<?xml version="1.0" encoding="UTF-8"?>
<svg width="1085px" height="759px" viewBox="0 0 1085 759" version="1.1" xmlns="http://www.w3.org/2000/svg" xmlns:xlink="http://www.w3.org/1999/xlink">
    <!-- Generator: Sketch 61 (89581) - https://sketch.com -->
    <title>il6 2</title>
    <desc>Created with Sketch.</desc>
    <g id="Page-1" stroke="none" stroke-width="1" fill="none" fill-rule="evenodd">
        <g id="il6" fill-rule="nonzero">
            <path d="M461.23,29.16 C417.16,12.4 370.59,-1.6 323.05,0.16 C253.15,2.74 186.05,42.07 153.19,99.82 C125.31,148.75 121.87,206.1 109.86,260.4 C95.08,327.29 66.72,390.88 36.44,453.05 C20.18,486.45 3.02,520.57 0.35,557.18 C-3.35,608.01 22.62,658.66 63.35,692.47 C104.08,726.28 158.17,744.12 212.46,748.01 C241.35,750.08 271.54,748.16 297.2,735.58 C324.35,722.27 344.14,698.22 371.4,685.1 C396.66,672.94 426.21,671.24 454.57,672.82 C491.598461,674.882392 528.151375,682.153924 563.15,694.42 C602.79,708.34 639.65,728.51 679.15,742.63 C718.65,756.75 762.89,764.63 803.31,752.85 C841.31,741.78 871.31,714.9 898.36,687.68 C942.590599,643.25181 983.131148,595.296775 1019.58,544.29 C1043.99,510.08 1066.71,473.99 1077.5,434.12 C1098.14,357.89 1069.74,271.89 1006.75,219.83 C954.56,176.7 884.52,157.98 815.96,146.62 C753.44,136.26 681.15,135.62 623.6,108.62 C568.72,82.84 518.78,51.06 461.23,29.16 Z" id="Path" fill="#E8EEEC" opacity="0.1"></path>
            <polygon id="Path" fill="#AAABB0" points="632.58 619 632.58 655.33 642.91 655.33 640.91 616.33"></polygon>
            <polygon id="Path" fill="#AAABB0" points="477.41 611.67 477.41 648 487.75 648 485.75 609"></polygon>
            <rect id="Rectangle" fill="#AAABB0" x="644.58" y="551.67" width="13.33" height="64.67" rx="6.665"></rect>
            <rect id="Rectangle" fill="#AAABB0" x="473.58" y="537.33" width="13.33" height="79" rx="6.665"></rect>
            <path d="M674.92,164.67 C674.92,164.67 688.25,159 690.25,164.67 C692.25,170.34 693.25,219.34 693.25,219.34 L680.58,219.34 L674.92,164.67 Z" id="Path" fill="#AAABB0"></path>
            <path d="M528.92,164.67 C528.92,164.67 515.58,159 513.58,164.67 C511.58,170.34 510.58,219.34 510.58,219.34 L523.25,219.34 L528.92,164.67 Z" id="Path" fill="#AAABB0"></path>
            <polygon id="Path" fill="#AAABB0" points="530.91 116 528.91 156.67 537.91 156.67 537.91 115"></polygon>
            <path d="M523.25,219.34 L525.92,160.67 C525.92,160.67 524.92,147.67 556.58,151.67 C588.24,155.67 680.92,163.67 680.92,163.67 L680.92,219.34 L523.25,219.34 Z" id="Path" fill="#33323D"></path>
            <path d="M649.92,528.34 L644.92,618 C644.92,618 571.58,658.67 482.58,620 L490.58,525.67 L649.92,528.34 Z" id="Path" fill="#33323D"></path>
            <polygon id="Path" fill="#444053" points="580.25 175.33 581.91 233.33 685.25 233.33 679.25 156.67"></polygon>
            <rect id="Rectangle" fill="#4C4981" x="493.41" y="490" width="97.34" height="123.33"></rect>
            <path d="M554.92,540.34 C554.92,540.34 568.92,529.34 571.25,532.67 C573.58,536 562.93,550.34 558.59,548.67 C554.25,547 554.92,540.34 554.92,540.34 Z" id="Path" fill="#FFB9B9"></path>
            <rect id="Rectangle" fill="#504F60" x="304.51" y="216" width="638.97" height="320"></rect>
            <path d="M523.58,113.67 C523.58,113.67 518.58,67 523.58,61.34 C528.58,55.68 612.58,2 690.25,65 C690.25,65 697.58,65.34 696.25,82 C695.466101,92.5442994 695.519602,103.134159 696.411337,113.67 C696.411337,113.67 529.25,125.67 523.58,113.67 Z" id="Path" fill="#33323D"></path>
            <path d="M523.58,113.67 C523.58,113.67 518.58,67 523.58,61.34 C528.58,55.68 612.58,2 690.25,65 C690.25,65 697.58,65.34 696.25,82 C695.466101,92.5442994 695.519602,103.134159 696.411337,113.67 C696.411337,113.67 529.25,125.67 523.58,113.67 Z" id="Path" fill="#000000" opacity="0.1"></path>
            <path d="M523.58,119.67 C523.58,119.67 518.58,73 523.58,67.34 C528.58,61.68 612.58,8 690.25,71 C690.25,71 697.58,71.34 696.25,88 C695.466101,98.5442994 695.519602,109.134159 696.411337,119.67 C696.411337,119.67 529.25,131.67 523.58,119.67 Z" id="Path" fill="#33323D"></path>
            <path d="M699.25,98.34 C699.25,98.34 704.58,118.34 702.92,121.67 C701.26,125 701.56,134.34 701.56,134.34 C701.56,134.34 701.92,140.34 699.25,141 C696.58,141.66 694.25,142 696.41,144 C698.57,146 696.41,149 696.41,149 C696.41,149 695.24,153.67 696.41,156.67 C697.58,159.67 689.57,160.92 690.25,164.67 C690.93,168.42 693.17,179 690.25,179.34 C687.33,179.68 691.25,192.67 688.62,192.67 C685.99,192.67 684.12,216 684.12,216 C684.12,216 665.62,200.34 653.29,204.67 C653.29,204.67 654.29,191.67 658.29,187 C662.29,182.33 661.08,170.34 661.08,170.34 L680.92,110.67 L699.25,98.34 Z" id="Path" fill="#5A5966"></path>
            <path d="M600.25,374.12 C595.92,378.91 591.25,353.33 591.25,353.33 C591.25,353.33 578.92,370.33 570.92,359 C565.38,351.15 569.75,328.91 572.92,316 C574.34,310.26 575.54,306.36 575.54,306.36 L593.54,303.36 C593.54,303.36 593.6,307.28 594,312.04 C594.54,318.47 595.71,326.45 598.2,328.36 C602.59,331.67 604.59,369.29 600.25,374.12 Z" id="Path" fill="#797892"></path>
            <path d="M590.92,74.67 C590.92,74.67 559.58,74.34 551.92,91 C544.26,107.66 543.92,113.34 540.92,116 C537.92,118.66 573.58,132.67 573.58,132.67 L575.25,190 C575.25,190 582.25,182.91 593.58,186.12 C604.91,189.33 619.25,186.12 619.25,186.12 C619.25,186.12 618.58,184.91 627.92,186.12 C637.26,187.33 666.92,171.67 666.92,171.67 C666.92,171.67 667.41,146.59 666.75,141.25 C666.09,135.91 687.91,96.67 687.91,96.67 C687.91,96.67 704.91,80.34 687.25,74.67 C687.25,74.67 681,65.25 664.92,65.3393592 C648.84,65.43 590.92,74.67 590.92,74.67 Z" id="Path" fill="#000000" opacity="0.1"></path>
            <path d="M590.92,73.67 C590.92,73.67 559.58,73.34 551.92,90 C544.26,106.66 543.92,112.34 540.92,115 C537.92,117.66 573.58,131.67 573.58,131.67 L575.25,189 C575.25,189 582.25,181.91 593.58,185.12 C604.91,188.33 619.25,185.12 619.25,185.12 C619.25,185.12 618.58,183.91 627.92,185.12 C637.26,186.33 666.92,170.67 666.92,170.67 C666.92,170.67 678.58,151.67 677.92,146.34 C677.26,141.01 701.25,100.67 701.25,100.67 C701.25,100.67 704.92,79.34 687.25,73.67 C687.25,73.67 681,64.25 664.92,64.3393592 C648.84,64.43 590.92,73.67 590.92,73.67 Z" id="Path" fill="#797892"></path>
            <path d="M594.08,312.01 C587.21,309.87 576.43,314.59 573,316.01 C574.42,310.27 575.62,306.37 575.62,306.37 L593.62,303.37 C593.62,303.37 593.65,307.29 594.08,312.01 Z" id="Path" fill="#000000" opacity="0.1"></path>
            <path d="M550.58,115 L540.92,115 C540.92,115 538.92,135.34 540.92,141.34 C542.92,147.34 543.92,146.47 543.25,150.91 C542.58,155.35 547.92,162.15 547.92,162.15 C547.92,162.15 548.58,178.91 551.92,185.15 C555.26,191.39 548.25,219.37 548.25,219.37 C550.161957,224.200168 552.990631,228.614666 556.58,232.37 C562.25,238.03 565.25,259.03 563.58,267.03 C561.91,275.03 568.25,278.03 568.25,278.03 C568.25,278.03 570.92,315.37 571.92,315.37 C572.92,315.37 592.25,305.37 598.25,314.03 L593.58,279.7 L593.92,213.37 C593.92,213.37 587.58,205.03 590.92,197.7 C594.26,190.37 588.25,173.03 588.25,173.03 L579.58,134.37 L550.58,115 Z" id="Path" fill="#69687A"></path>
            <path d="M490.58,642 C490.58,642 476.58,639 476.25,642 C475.92,645 459.58,675.67 479.92,684.67 C500.26,693.67 554.58,713 642.92,688 C642.92,688 648.58,690 647.25,677.67 C645.92,665.34 645.92,651.67 645.92,651.67 C645.92,651.67 632.58,648 622.58,649.34 C612.58,650.68 525.58,668.34 490.58,642 Z" id="Path" fill="#33323D"></path>
            <path d="M490.58,642 C490.58,642 476.58,639 476.25,642 C475.92,645 459.58,675.67 479.92,684.67 C500.26,693.67 554.58,713 642.92,688 C642.92,688 648.58,690 647.25,677.67 C645.92,665.34 645.92,651.67 645.92,651.67 C645.92,651.67 632.58,648 622.58,649.34 C612.58,650.68 525.58,668.34 490.58,642 Z" id="Path" fill="#000000" opacity="0.1"></path>
            <path d="M490.58,638 C490.58,638 476.58,635 476.25,638 C475.92,641 459.58,671.67 479.92,680.67 C500.26,689.67 554.58,709 642.92,684 C642.92,684 648.58,686 647.25,673.67 C645.92,661.34 645.92,647.67 645.92,647.67 C645.92,647.67 632.58,644 622.58,645.34 C612.58,646.68 525.58,664.34 490.58,638 Z" id="Path" fill="#33323D"></path>
            <path d="M572.22,126.98 C571.36,131.87 569.41,136.57 569.11,141.52 C568.81,146.47 570.72,152.1 575.29,154.04 C576.565092,154.420978 577.80074,154.923274 578.98,155.54 C580.74,156.73 581.46,158.97 581.83,161.07 C582.3211,163.781204 582.438859,166.546863 582.18,169.29 C581.93,172.05 581.34,175.02 582.7,177.43 C585.09,181.7 591.32,181.07 596.06,179.87 L594.43,192.5 C594.3,193.5 594.22,194.63 594.95,195.31 C595.646712,195.80087 596.512596,195.988478 597.35,195.83 C601.47,195.57 605.71,195 609.24,192.83 C612.77,190.66 615.4,186.62 614.73,182.55 C613.95,177.83 609.07,174.08 609.73,169.34 C610.24,165.67 613.83,163.34 616.19,160.52 C620.46,155.36 620.69,147.52 617.34,141.68 C613.99,135.84 607.52,132.22 600.86,131.56 C597.17,131.19 593.33,131.64 589.86,130.36 C587.412611,129.462278 585.525758,127.471834 584.76,124.98" id="Path" fill="#444053"></path>
            <path d="M455.92,571.67 L459.41,564.07 C459.41,564.07 478.25,546.52 482.58,545.29 C486.91,544.06 504.58,538.7 507.25,538.7 C509.92,538.7 558.59,536.03 558.59,536.03 L564.25,549.37 L503.17,562.78 L482.58,577.78 L455.92,571.67 Z" id="Path" fill="#767D9F"></path>
            <path d="M602.67,367 L599.48,391.55 L598.25,401 L583.92,403 C583.92,403 582.37,399.68 580.18,394.58 C573.53,379.1 561.01,347.18 568.27,341.67 C577.92,334.33 580.27,358.67 580.27,358.67 L591.27,353.33 L602.67,367 Z" id="Path" fill="#FFB9B9"></path>
            <rect id="Rectangle" fill="#FFFFFF" x="527.91" y="412.67" width="72.37" height="109.33"></rect>
            <rect id="Rectangle" fill="#000000" opacity="0.1" x="527.91" y="412.67" width="72.37" height="109.33"></rect>
            <rect id="Rectangle" fill="#FFFFFF" transform="translate(589.015714, 467.374542) rotate(8.410000) translate(-589.015714, -467.374542) " x="552.830714" y="412.709542" width="72.37" height="109.33"></rect>
            <rect id="Rectangle" fill="#E8EEEC" transform="translate(582.264028, 448.876250) rotate(8.410000) translate(-582.264028, -448.876250) " x="563.639028" y="420.74125" width="37.25" height="56.27"></rect>
            <rect id="Rectangle" fill="#E8EEEC" transform="translate(577.202509, 499.170365) rotate(8.410000) translate(-577.202509, -499.170365) " x="554.637509" y="493.060365" width="45.13" height="12.22"></rect>
            <circle id="Oval" fill="#000000" opacity="0.1" cx="619.25" cy="95" r="41.83"></circle>
            <circle id="Oval" fill="#AE6E79" cx="619.25" cy="94" r="41.83"></circle>
            <path d="M584.76,125 C584.475613,123.922579 584.57824,122.779532 585.05,121.77 C586.64,118.46 591.17,118.17 594.84,118.34 C603.47,118.74 612.94,118.79 619.69,113.34 C622.49,111.1 625.62,105.47 629.69,106.54 C633.31,107.49 634.82,112.4 638.59,113.49 C641.32,114.28 644.15,113.02 646.93,112.49 C650.93,111.7 655.03,112.36 659.09,112.39 C663.15,112.42 667.56,111.65 670.33,108.68 C674.07,104.68 673.46,98.43 673.13,92.95 C672.71982,85.8712554 673.200246,78.7690187 674.56,71.81 C675.92,64.89 678.01,57.15 674.19,51.22 C670.55,45.57 663.01,44.02 657.86,39.69 C653.04,35.69 650.49,29.28 645.4,25.57 C638.99,20.9 630.28,21.57 622.4,22.38 L605.3,24.2 C600.89,24.67 596.3,25.2 592.67,27.83 C586.12,32.57 585.22,42.42 579.02,47.61 C576.26,49.91 572.73,51.05 569.58,52.77 C566.43,54.49 563.39,57.21 563.03,60.77 C562.73,63.77 564.35,66.54 565.14,69.43 C567.01,76.33 564.09,83.43 562.22,90.38 C560.35,97.33 559.99,105.77 565.42,110.38 C566.52,111.32 567.8,112.04 568.87,113.02 C572.54,116.37 573.04,122.02 572.19,126.9" id="Path" fill="#444053"></path>
            <ellipse id="Oval" fill="#444053" cx="622.66" cy="143.75" rx="1" ry="2.5"></ellipse>
            <ellipse id="Oval" fill="#444053" cx="622.66" cy="154.17" rx="1" ry="2.5"></ellipse>
            <path d="M600.48,374.05 C601.55,372.82 602.26,369.66 602.67,365.49 L590.75,350.63 C590.75,350.63 595.8,379.44 600.48,374.05 Z" id="Path" fill="#AE6E79"></path>
            <path d="M613.92,619.67 C613.92,619.67 594.36,649.91 533.25,646.67 C475.68,643.67 447.58,615.34 448.92,605.34 C450.26,595.34 445.25,571 457.58,564 C464.73,559.95 474.14,562.35 480.78,565.09 C485.462193,566.991637 490.820667,566.030459 494.55,562.62 C500.62,557.15 511.94,550.99 529.81,555.84 C532.109426,556.453382 534.534935,556.408336 536.81,555.71 C544.25,553.44 561.96,549.5 574.81,558.25 C578.95581,561.107524 584.378909,561.314007 588.73,558.78 L588.91,558.67 C594.91,555 622.91,589.67 622.91,589.67 C622.91,589.67 624.25,616.34 613.92,619.67 Z" id="Path" fill="#000000" opacity="0.1"></path>
            <path d="M613.92,620.67 C613.92,620.67 594.36,650.91 533.25,647.67 C475.68,644.67 447.58,616.34 448.92,606.34 C450.26,596.34 445.25,572 457.58,565 C464.73,560.95 474.14,563.35 480.78,566.09 C485.462193,567.991637 490.820667,567.030459 494.55,563.62 C500.62,558.15 511.94,551.99 529.81,556.84 C532.109426,557.453382 534.534935,557.408336 536.81,556.71 C544.25,554.44 561.96,550.5 574.81,559.25 C578.95581,562.107524 584.378909,562.314007 588.73,559.78 L588.91,559.67 C594.91,556 622.91,590.67 622.91,590.67 C622.91,590.67 624.25,617.34 613.92,620.67 Z" id="Path" fill="#767D9F"></path>
            <circle id="Oval" fill="#000000" opacity="0.1" cx="533.25" cy="592.67" r="39.84"></circle>
            <circle id="Oval" fill="#FFB9B9" cx="533.25" cy="593.67" r="39.84"></circle>
            <path d="M521.83,559.23 C517.65,560.36 513.53,562.52 511.49,566.07 C510.26,568.21 509.83,570.78 508.05,572.56 C505.53,575.09 501.28,575.14 497.87,576.56 C494.46,577.98 492.21,582.98 495.55,584.56 C492.07,584.74 489.49,587.95 489.06,591.14 C488.63,594.33 489.84,597.51 491.01,600.55 C494.83,610.39 498.94,620.66 507.36,627.66 C521.08,639.08 541.76,638.55 560.19,637.34 C561.695836,637.389906 563.188546,637.045169 564.52,636.34 C566.52,635.02 566.77,632.49 567.1,630.27 C568.49,620.79 573.63,612.18 576.99,603.13 C580.35,594.08 581.73,583.45 576.07,575.44 C567.74,563.56 535.85,555.43 521.83,559.23 Z" id="Path" fill="#B96B6B"></path>
            <path d="M599.48,391.55 L598.25,401 L583.92,403 C583.92,403 582.37,399.68 580.18,394.58 L599.25,391 L599.48,391.55 Z" id="Path" fill="#000000" opacity="0.1"></path>
            <path d="M614.58,600.34 L622.92,590.67 L621.25,537.34 C622.071376,533.492498 622.629338,529.593448 622.92,525.67 C623.25,520 618.75,507.34 618.75,507.34 C619.448065,504.805695 620.396049,502.346967 621.58,500 C623.58,496 618.76,487 618.76,487 C618.76,487 611.58,463.67 614.58,452 C617.58,440.33 613.85,433.67 613.85,433.67 C613.85,433.67 610.92,420.67 611.25,415.34 C611.58,410.01 604.58,405 604.58,405 L599.25,392 L577.92,396 L577.92,441 C577.92,441 579.25,484 577.92,492.34 C576.59,500.68 580.58,508.67 580.58,508.67 C580.58,508.67 578.25,521 580.25,525.67 C582.25,530.34 586.25,541.67 586.25,541.67 C585.507503,545.719216 585.737135,549.886869 586.92,553.83 C588.92,559.67 586.92,563 586.92,563 L614.58,600.34 Z" id="Path" fill="#767D9F"></path>
            <g id="Group" opacity="0.1" transform="translate(561.000000, 57.000000)" fill="#000000">
                <path d="M113.59,11.52 C112.462441,17.3736507 111.9563,23.3300239 112.08,29.29 C112.165693,24.3342403 112.684333,19.3954508 113.63,14.53 C114.51,10.09 115.63,5.31 115.39,0.88 C115.021438,4.46195731 114.420167,8.01613382 113.59,11.52 L113.59,11.52 Z" id="Path"></path>
                <path d="M7.9,52.8 C6.83,51.8 5.55,51.1 4.45,50.15 C1.53,47.66 0.3,44.05 0.06,40.15 C-0.23,45.15 0.79,49.99 4.45,53.15 C5.55,54.1 6.83,54.82 7.9,55.8 C10.1367708,58.0134154 11.4334568,61.0043901 11.52,64.15 C11.81,59.95 10.96,55.58 7.9,52.8 Z" id="Path"></path>
                <path d="M4.71,15.46 C4.88487838,13.3478851 4.70231859,11.2214016 4.17,9.17 C3.59,7.03 2.55,4.94 2.17,2.79 C2.17,3.02 2.09,3.26 2.06,3.51 C1.77,6.51 3.39,9.28 4.17,12.17 C4.45736351,13.2463243 4.6382331,14.348289 4.71,15.46 L4.71,15.46 Z" id="Path"></path>
                <path d="M109.36,48.39 C106.59,51.39 102.18,52.13 98.12,52.1 C94.06,52.07 89.95,51.41 85.96,52.21 C83.18,52.77 80.35,54.02 77.62,53.21 C73.85,52.12 72.34,47.21 68.73,46.26 C64.62,45.18 61.49,50.81 58.73,53.05 C51.98,58.45 42.51,58.4 33.88,58.05 C30.21,57.88 25.68,58.17 24.1,61.49 C23.6179803,62.4967398 23.5150205,63.6434987 23.81,64.72 L11.59,66.64 C11.5438223,67.6459934 11.433599,68.6480229 11.26,69.64 L23.81,67.64 C23.5150205,66.5634987 23.6179803,65.4167398 24.1,64.41 C25.68,61.09 30.21,60.8 33.88,60.97 C42.51,61.37 51.98,61.42 58.73,55.97 C61.53,53.73 64.66,48.1 68.73,49.18 C72.34,50.12 73.85,55.04 77.62,56.13 C80.35,56.91 83.18,55.66 85.96,55.13 C89.96,54.33 94.06,54.99 98.12,55.02 C102.18,55.05 106.59,54.28 109.36,51.31 C112.13,48.34 112.53,43.91 112.36,39.59 C112.24,42.94 111.55,46.04 109.36,48.39 Z" id="Path"></path>
            </g>
            <g id="Group" opacity="0.1" transform="translate(569.000000, 144.000000)" fill="#000000">
                <path d="M8.79,9.42 C7.61233897,8.7998309 6.37634926,8.29739605 5.1,7.92 C2.92991278,6.93381688 1.20707349,5.17174108 0.27,2.98 C1.02,6.43 2.92,9.57 6.1,10.92 C7.37634926,11.2973961 8.61233897,11.7998309 9.79,12.42 C10.5430586,12.9519631 11.1514428,13.6634633 11.56,14.49 C11.16,12.53 10.43,10.53 8.79,9.42 Z" id="Path"></path>
                <path d="M25.87,33.75 C21.26,34.92 15.24,35.53 12.71,31.62 C12.7887276,32.562162 13.061076,33.4779335 13.51,34.31 C15.67,38.16 20.95,38.03 25.44,37.08 L25.87,33.75 Z" id="Path"></path>
                <path d="M44.55,36.49 C45.19,40.55 42.55,44.6 39.05,46.73 C35.55,48.86 31.28,49.45 27.16,49.73 C26.5050585,49.8147549 25.8393315,49.7392601 25.22,49.51 C24.8362101,50.3738655 25.0000417,51.3829774 25.6374165,52.0810545 C26.2747912,52.7791316 27.2648788,53.0338359 28.16,52.73 C32.28,52.47 36.52,51.9 40.05,49.73 C43.58,47.56 46.22,43.52 45.54,39.45 C45.3480093,38.4224187 45.0148544,37.4263194 44.55,36.49 L44.55,36.49 Z" id="Path"></path>
                <path d="M48.99,0.29 C50.2270328,5.21689687 49.1198835,10.4389511 45.99,14.44 C43.63,17.3 40.04,19.59 39.53,23.26 C39.3598402,24.9472793 39.7087156,26.6463027 40.53,28.13 C40.4398672,27.5099249 40.4398672,26.8800751 40.53,26.26 C41.04,22.59 44.63,20.26 46.99,17.44 C50.87,12.75 51.41,5.84 48.99,0.29 Z" id="Path"></path>
            </g>
            <g id="Group" opacity="0.1" transform="translate(488.000000, 557.000000)" fill="#000000">
                <path d="M9.88,21.1 C13.28,19.69 17.53,19.64 20.06,17.1 C21.84,15.32 22.27,12.75 23.5,10.62 C25.5,7.06 29.65,4.91 33.83,3.78 C47.83,-0.02 79.75,8.1 88.07,19.87 C90.5084291,23.4310272 91.8376521,27.6344339 91.89,31.95 C92.2103888,26.967767 90.8705417,22.0198275 88.08,17.88 C79.76,6.11 47.87,-2.01 33.84,1.79 C29.66,2.92 25.54,5.07 23.51,8.63 C22.28,10.76 21.85,13.33 20.07,15.11 C17.54,17.64 13.29,17.69 9.89,19.11 C7.3,20.18 5.38,23.34 6.08,25.46 C6.64463267,23.5189857 8.03431861,21.9245039 9.88,21.1 L9.88,21.1 Z" id="Path"></path>
                <path d="M1.08,35.63 C1.5,32.43 4.08,29.23 7.57,29.05 C6.827735,28.7405805 6.26529523,28.1119714 6.04,27.34 C3.33443822,28.3452669 1.40904745,30.7674085 1.04,33.63 C0.945033238,34.4439058 0.945033238,35.2660942 1.04,36.08 C1.08,35.93 1.08,35.78 1.08,35.63 Z" id="Path"></path>
            </g>
            <rect id="Rectangle" fill="#FFFFFF" x="609.91" y="230.24" width="91" height="118.67"></rect>
            <rect id="Rectangle" fill="#000000" opacity="0.1" x="609.91" y="230.24" width="91" height="118.67"></rect>
            <rect id="Rectangle" fill="#FFFFFF" transform="translate(700.895594, 303.391550) rotate(-9.760000) translate(-700.895594, -303.391550) " x="655.395594" y="244.05655" width="91" height="118.67"></rect>
            <rect id="Rectangle" fill="#E8EEEC" transform="translate(680.629859, 344.281001) rotate(-9.760000) translate(-680.629859, -344.281001) " x="669.939859" y="330.341001" width="21.38" height="27.88"></rect>
            <rect id="Rectangle" fill="#E8EEEC" transform="translate(709.786813, 339.260411) rotate(-9.760000) translate(-709.786813, -339.260411) " x="699.096813" y="325.320411" width="21.38" height="27.88"></rect>
            <rect id="Rectangle" fill="#E8EEEC" transform="translate(703.986200, 303.599400) rotate(-9.743641) translate(-703.986200, -303.599400) " x="666.498636" y="289.596811" width="74.9751277" height="28.005179"></rect>
            <rect id="Rectangle" fill="#E8EEEC" transform="translate(695.985800, 259.935600) rotate(-9.743641) translate(-695.985800, -259.935600) " x="658.498236" y="256.811636" width="74.9751277" height="6.2479273"></rect>
            <rect id="Rectangle" fill="#E8EEEC" transform="translate(698.409300, 271.263100) rotate(-9.743641) translate(-698.409300, -271.263100) " x="660.921736" y="268.139136" width="74.9751277" height="6.2479273"></rect>
            <path d="M661.08,198 C661.08,198 619.25,240 640.25,250.67 C661.25,261.34 674.92,215.17 674.92,215.17 L678.24,204.67 L661.08,198 Z" id="Path" fill="#AE6E79"></path>
            <path d="M657.42,194.29 L652.25,205.71 C652.25,205.71 677.75,209.29 683.08,217 L679.92,196.85 L676.17,188.25 L657.42,194.29 Z" id="Path" fill="#000000" opacity="0.1"></path>
            <path d="M658.42,193.29 L653.25,204.71 C653.25,204.71 678.75,208.29 684.08,216 L680.92,195.85 L677.17,187.25 L658.42,193.29 Z" id="Path" fill="#797892"></path>
            <polygon id="Path" fill="#464A5F" points="812.78 403.26 812.23 403.64 812.99 403.98 813.81 403.91 813.91 403.34"></polygon>
            <polygon id="Path" fill="#000000" opacity="0.1" points="812.78 403.26 812.23 403.64 812.99 403.98 813.81 403.91 813.91 403.34"></polygon>
            <polygon id="Path" fill="#9C9CA1" points="812.78 403.26 812.22 403.62 811.78 403.08 812.05 402.64 812.3 402.56"></polygon>
            <polygon id="Path" fill="#000000" opacity="0.1" points="812.78 403.26 812.22 403.62 811.78 403.08 812.05 402.64 812.3 402.56"></polygon>
            <path d="M911.21,334.15 L870.27,275.02 C869.537537,273.954071 868.411154,273.223277 867.139258,272.988783 C865.867362,272.754289 864.554427,273.035356 863.49,273.77 L772.23,336.41 C770.007034,337.936091 769.438895,340.973618 770.96,343.2 L811.79,403.08 L911.21,334.15 Z" id="Path" fill="#9C9CA1"></path>
            <path d="M911.21,334.15 L870.27,275.02 C869.537537,273.954071 868.411154,273.223277 867.139258,272.988783 C865.867362,272.754289 864.554427,273.035356 863.49,273.77 L772.23,336.41 C770.007034,337.936091 769.438895,340.973618 770.96,343.2 L811.79,403.08 L911.21,334.15 Z" id="Path" fill="#000000" opacity="0.1"></path>
            <path d="M912.21,334.29 L871.27,275.16 C870.535684,274.093408 869.407556,273.362405 868.134029,273.127956 C866.860502,272.893507 865.546008,273.174838 864.48,273.91 L773.23,336.59 C771.008592,338.116153 770.436709,341.149809 771.95,343.38 L812.78,403.29 L912.21,334.29 Z" id="Path" fill="#9C9CA1"></path>
            <path d="M946.43,345.98 L912.43,335.06 L812.99,403.99 L847.53,415.29 C849.097421,415.799192 850.81316,415.539793 852.16,414.59 L946.71,347.83 C947.072827,347.62646 947.271738,347.219548 947.209482,346.808214 C947.147226,346.396879 946.836809,346.067055 946.43,345.98 Z" id="Path" fill="#464A5F"></path>
            <path d="M946.43,345.98 L912.43,335.06 L812.99,403.99 L847.53,415.29 C849.097421,415.799192 850.81316,415.539793 852.16,414.59 L946.71,347.83 C947.072827,347.62646 947.271738,347.219548 947.209482,346.808214 C947.147226,346.396879 946.836809,346.067055 946.43,345.98 Z" id="Path" fill="#000000" opacity="0.1"></path>
            <path d="M946.22,345.29 L912.22,334.36 L812.78,403.29 L847.32,414.57 C848.885312,415.088588 850.603916,414.832468 851.95,413.88 L946.5,347.12 C946.848388,346.911223 947.035893,346.512466 946.974464,346.110984 C946.913035,345.709501 946.614876,345.385053 946.22,345.29 Z" id="Path" fill="#464A5F"></path>
            <g id="Group" opacity="0.1" transform="translate(797.000000, 306.000000)" fill="#000000">
                <path d="M99.15,25.65 L96.64,22.05 C96.3266058,21.616162 95.7271924,21.5059758 95.28,21.8 L91.55,24.29 C91.115253,24.5965557 90.9966011,25.1898151 91.28,25.64 L93.59,29.19 C93.8903369,29.6316901 94.4847661,29.7593823 94.94,29.48 L98.87,27.01 C99.3141488,26.7059087 99.4379048,26.1048082 99.15,25.65 L99.15,25.65 Z" id="Path"></path>
                <path d="M92.45,30.29 L89.93,26.7 C89.6166058,26.266162 89.0171924,26.1559758 88.57,26.45 L84.85,28.96 C84.4117913,29.26346 84.288626,29.8572932 84.57,30.31 L86.88,33.86 C87.1771855,34.305191 87.7722334,34.4374239 88.23,34.16 L92.17,31.69 C92.3948627,31.5431901 92.5512281,31.3121088 92.6038941,31.0487788 C92.6565601,30.7854489 92.6011002,30.5120025 92.45,30.29 Z" id="Path"></path>
                <path d="M85.41,35.16 L82.89,31.57 C82.5766058,31.136162 81.9771924,31.0259758 81.53,31.32 L77.8,33.83 C77.3593084,34.1372191 77.2400884,34.7377347 77.53,35.19 L79.84,38.74 C80.1403369,39.1816901 80.7347661,39.3093823 81.19,39.03 L85.12,36.56 C85.3464873,36.414791 85.50491,36.1844463 85.5594811,35.9209996 C85.6140522,35.657553 85.5601677,35.3832304 85.41,35.16 Z" id="Path"></path>
                <path d="M78.28,40.1 L75.76,36.5 C75.4473327,36.0721159 74.8551545,35.9624533 74.41,36.25 L70.68,38.77 C70.245253,39.0765557 70.1266011,39.6698151 70.41,40.12 L72.72,43.67 C73.0165636,44.1093389 73.604417,44.2409479 74.06,43.97 L78,41.49 C78.2220203,41.3432684 78.3763952,41.1140911 78.4289477,40.8532053 C78.4815002,40.5923195 78.4278952,40.3212469 78.28,40.1 Z" id="Path"></path>
                <path d="M71.16,45.03 L68.64,41.44 C68.3266058,41.006162 67.7271924,40.8959758 67.28,41.19 L63.56,43.7 C63.1217913,44.00346 62.998626,44.5972932 63.28,45.05 L65.59,48.6 C65.8871855,49.045191 66.4822334,49.1774239 66.94,48.9 L70.88,46.42 C71.1020203,46.2732684 71.2563952,46.0440911 71.3089477,45.7832053 C71.3615002,45.5223195 71.3078952,45.2512469 71.16,45.03 Z" id="Path"></path>
                <path d="M64.35,50.41 L61.22,45.95 C61.152985,45.8497808 61.0485581,45.7806435 60.9301266,45.7580852 C60.8116951,45.7355268 60.6891646,45.7614341 60.59,45.83 L56.01,48.92 C55.9081621,48.9854244 55.836975,49.0891164 55.8125133,49.2076615 C55.7880517,49.3262065 55.8123783,49.4496077 55.88,49.55 L58.75,53.96 C58.8865428,54.1708632 59.1670016,54.2331873 59.38,54.1 L64.22,51.1 C64.3376286,51.0332224 64.4199052,50.9180584 64.4449486,50.7851353 C64.4699921,50.6522122 64.435264,50.5150037 64.35,50.41 Z" id="Path"></path>
                <path d="M57.23,55.34 L54.08,50.88 C54.011119,50.7791234 53.9049441,50.7097853 53.784886,50.6872744 C53.664828,50.6647636 53.5407463,50.6909285 53.44,50.76 L48.86,53.85 C48.6560733,53.9929043 48.6028864,54.2721356 48.74,54.48 L51.61,58.89 C51.6717973,58.9957479 51.7748756,59.0709518 51.8944396,59.0975216 C52.0140037,59.1240914 52.1392316,59.0996222 52.24,59.03 L57.07,56.03 C57.1952711,55.9714842 57.2866882,55.8586284 57.3179207,55.7239381 C57.3491532,55.5892478 57.3167338,55.4476764 57.23,55.34 L57.23,55.34 Z" id="Path"></path>
                <path d="M50.92,59.71 L47.79,55.29 C47.6440036,55.0894748 47.365311,55.0408142 47.16,55.18 L42.58,58.26 C42.3713252,58.4034736 42.3138391,58.6864817 42.45,58.9 L45.32,63.31 C45.459711,63.5162543 45.7360835,63.5776704 45.95,63.45 L50.79,60.45 C50.9250694,60.3861996 51.0207482,60.260785 51.0465947,60.1136585 C51.0724412,59.9665321 51.0252367,59.8160163 50.92,59.71 L50.92,59.71 Z" id="Path"></path>
                <path d="M43.86,64.59 L40.73,60.13 C40.5840036,59.9294748 40.305311,59.8808142 40.1,60.02 L35.52,63.1 C35.417506,63.1673122 35.3461292,63.2727603 35.3217202,63.3929275 C35.2973112,63.5130948 35.3218906,63.638034 35.39,63.74 L38.26,68.15 C38.399711,68.3562543 38.6760835,68.4176704 38.89,68.29 L43.73,65.29 C43.8481305,65.2211291 43.9304105,65.1042264 43.9553783,64.9697845 C43.9803461,64.8353426 43.9455258,64.6966928 43.86,64.59 L43.86,64.59 Z" id="Path"></path>
                <path d="M37.02,69.29 L33.89,64.83 C33.822985,64.7297808 33.7185581,64.6606435 33.6001266,64.6380852 C33.4816951,64.6155268 33.3591646,64.6414341 33.26,64.71 L28.68,67.8 C28.5781621,67.8654244 28.506975,67.9691164 28.4825133,68.0876615 C28.4580517,68.2062065 28.4823783,68.3296077 28.55,68.43 L31.42,72.84 C31.5565428,73.0508632 31.8370016,73.1131873 32.05,72.98 L36.89,69.98 C37.0076286,69.9132224 37.0899052,69.7980584 37.1149486,69.6651353 C37.1399921,69.5322122 37.105264,69.3950037 37.02,69.29 Z" id="Path"></path>
                <path d="M30.18,74.07 L27.08,69.6 C26.9340036,69.3994748 26.655311,69.3508142 26.45,69.49 L21.87,72.57 C21.767506,72.6373122 21.6961292,72.7427603 21.6717202,72.8629275 C21.6473112,72.9830948 21.6718906,73.108034 21.74,73.21 L24.61,77.62 C24.749711,77.8262543 25.0260835,77.8876704 25.24,77.76 L30.08,74.76 C30.1929849,74.6880763 30.2690118,74.570481 30.288222,74.4379307 C30.3074322,74.3053805 30.2679177,74.17104 30.18,74.07 L30.18,74.07 Z" id="Path"></path>
                <path d="M23.34,78.8 L20.21,74.34 C20.142985,74.2397808 20.0385581,74.1706435 19.9201266,74.1480852 C19.8016951,74.1255268 19.6791646,74.1514341 19.58,74.22 L15,77.29 C14.8981621,77.3554244 14.826975,77.4591164 14.8025133,77.5776615 C14.7780517,77.6962065 14.8023783,77.8196077 14.87,77.92 L17.74,82.33 C17.8765428,82.5408632 18.1570016,82.6031873 18.37,82.47 L23.21,79.47 C23.3213271,79.4027618 23.3989888,79.2915396 23.4237617,79.1638642 C23.4485345,79.0361888 23.4181031,78.9039934 23.34,78.8 Z" id="Path"></path>
                <path d="M94.65,19.14 L92.13,15.54 C91.8166058,15.106162 91.2171924,14.9959758 90.77,15.29 L87.08,17.81 C86.6417913,18.11346 86.518626,18.7072932 86.8,19.16 L89.11,22.71 C89.4103369,23.1516901 90.0047661,23.2793823 90.46,23 L94.4,20.53 C94.8521954,20.2147628 94.9640152,19.5930449 94.65,19.14 Z" id="Path"></path>
                <path d="M84.8,4.91 L82.28,1.29 C81.9673327,0.862115908 81.3751545,0.752453293 80.93,1.04 L77.2,3.55 C76.7617913,3.85346004 76.638626,4.44729317 76.92,4.9 L79.23,8.45 C79.5271855,8.89519101 80.1222334,9.02742387 80.58,8.75 L84.52,6.28 C84.9701704,5.97533403 85.0945286,5.36686722 84.8,4.91 Z" id="Path"></path>
                <path d="M87.94,23.78 L85.42,20.19 C85.1073327,19.7621159 84.5151545,19.6524533 84.07,19.94 L80.34,22.45 C79.905253,22.7565557 79.7866011,23.3498151 80.07,23.8 L82.37,27.35 C82.6671855,27.795191 83.2622334,27.9274239 83.72,27.65 L87.66,25.18 C87.8848627,25.0331901 88.0412281,24.8021088 88.0938941,24.5387788 C88.1465601,24.2754489 88.0911002,24.0020025 87.94,23.78 Z" id="Path"></path>
                <path d="M80.9,28.65 L78.38,25.06 C78.0666058,24.626162 77.4671924,24.5159758 77.02,24.81 L73.3,27.29 C72.8558512,27.5940913 72.7320952,28.1951918 73.02,28.65 L75.33,32.2 C75.6303369,32.6416901 76.2247661,32.7693823 76.68,32.49 L80.62,30.02 C81.0701704,29.715334 81.1945286,29.1068672 80.9,28.65 Z" id="Path"></path>
                <path d="M73.77,33.59 L71.26,29.99 C70.9466058,29.556162 70.3471924,29.4459758 69.9,29.74 L66.17,32.29 C65.735253,32.5965557 65.6166011,33.1898151 65.9,33.64 L68.21,37.19 C68.5103369,37.6316901 69.1047661,37.7593823 69.56,37.48 L73.49,35.01 C73.7206521,34.8631324 73.8811019,34.6282202 73.9340015,34.359944 C73.986901,34.0916677 73.9276354,33.8134313 73.77,33.59 Z" id="Path"></path>
                <path d="M78.25,9.78 L75.73,6.19 C75.4173327,5.76211591 74.8251545,5.65245329 74.38,5.94 L70.65,8.45 C70.2117913,8.75346004 70.088626,9.34729317 70.37,9.8 L72.68,13.35 C72.9771855,13.795191 73.5722334,13.9274239 74.03,13.65 L77.97,11.18 C78.1948627,11.0331901 78.3512281,10.8021088 78.4038941,10.5387788 C78.4565601,10.2754489 78.4011002,10.0020025 78.25,9.78 Z" id="Path"></path>
                <path d="M71.21,14.66 L68.69,11.06 C68.3766058,10.626162 67.7771924,10.5159758 67.33,10.81 L63.61,13.29 C63.1717913,13.59346 63.048626,14.1872932 63.33,14.64 L65.64,18.19 C65.9403369,18.6316901 66.5347661,18.7593823 66.99,18.48 L70.93,16.01 C71.3682087,15.70654 71.491374,15.1127068 71.21,14.66 L71.21,14.66 Z" id="Path"></path>
                <path d="M64.08,19.59 L61.56,16 C61.2503754,15.5686945 60.6576677,15.4545434 60.21,15.74 L56.48,18.29 C56.045253,18.5965557 55.9266011,19.1898151 56.21,19.64 L58.52,23.19 C58.8171855,23.635191 59.4122334,23.7674239 59.87,23.49 L63.8,21.01 C64.0306521,20.8631324 64.1911019,20.6282202 64.2440015,20.359944 C64.296901,20.0916677 64.2376354,19.8134313 64.08,19.59 Z" id="Path"></path>
                <path d="M66.65,38.52 L64.13,34.93 C63.8203754,34.4986945 63.2276677,34.3845434 62.78,34.67 L59.08,37.19 C58.645253,37.4965557 58.5266011,38.0898151 58.81,38.54 L61.08,42.09 C61.3765636,42.5293389 61.964417,42.6609479 62.42,42.39 L66.36,39.91 C66.5836491,39.7648538 66.7400754,39.5364056 66.7945287,39.2754053 C66.848982,39.0144049 66.796953,38.7424661 66.65,38.52 Z" id="Path"></path>
                <path d="M59.53,43.45 L57.01,39.86 C56.6966058,39.426162 56.0971924,39.3159758 55.65,39.61 L51.93,42.12 C51.4917913,42.42346 51.368626,43.0172932 51.65,43.47 L53.96,47.02 C54.2571855,47.465191 54.8522334,47.5974239 55.31,47.32 L59.25,44.85 C59.4748627,44.7031901 59.6312281,44.4721088 59.6838941,44.2087788 C59.7365601,43.9454489 59.6811002,43.6720025 59.53,43.45 Z" id="Path"></path>
                <path d="M52.72,48.83 L49.59,44.37 C49.522985,44.2697808 49.4185581,44.2006435 49.3001266,44.1780852 C49.1816951,44.1555268 49.0591646,44.1814341 48.96,44.25 L44.38,47.34 C44.2781621,47.4054244 44.206975,47.5091164 44.1825133,47.6276615 C44.1580517,47.7462065 44.1823783,47.8696077 44.25,47.97 L47.12,52.38 C47.1838015,52.4834745 47.2867527,52.5567344 47.4054211,52.5831052 C47.5240895,52.6094759 47.6483788,52.5867139 47.75,52.52 L52.59,49.52 C52.7076286,49.4532224 52.7899052,49.3380584 52.8149486,49.2051353 C52.8399921,49.0722122 52.805264,48.9350037 52.72,48.83 Z" id="Path"></path>
                <path d="M46.41,53.2 L43.28,48.73 C43.1340036,48.5294748 42.855311,48.4808142 42.65,48.62 L38.08,51.7 C37.8713252,51.8434736 37.8138391,52.1264817 37.95,52.34 L40.82,56.75 C40.959711,56.9562543 41.2360835,57.0176704 41.45,56.89 L46.29,53.89 C46.4120153,53.8267598 46.4974741,53.7101407 46.5210216,53.5747429 C46.544569,53.4393451 46.5035002,53.3007212 46.41,53.2 L46.41,53.2 Z" id="Path"></path>
                <path d="M39.35,58.08 L36.22,53.62 C36.0740036,53.4194748 35.795311,53.3708142 35.59,53.51 L31.01,56.59 C30.9081621,56.6554244 30.836975,56.7591164 30.8125133,56.8776615 C30.7880517,56.9962065 30.8123783,57.1196077 30.88,57.22 L33.75,61.64 C33.889711,61.8462543 34.1660835,61.9076704 34.38,61.78 L39.22,58.78 C39.3381305,58.7111291 39.4204105,58.5942264 39.4453783,58.4597845 C39.4703461,58.3253426 39.4355258,58.1866928 39.35,58.08 Z" id="Path"></path>
                <path d="M32.51,62.82 L29.38,58.36 C29.312985,58.2597808 29.2085581,58.1906435 29.0901266,58.1680852 C28.9716951,58.1455268 28.8491646,58.1714341 28.75,58.24 L24.17,61.29 C24.0681621,61.3554244 23.996975,61.4591164 23.9725133,61.5776615 C23.9480517,61.6962065 23.9723783,61.8196077 24.04,61.92 L26.91,66.33 C27.0465428,66.5408632 27.3270016,66.6031873 27.54,66.47 L32.38,63.47 C32.4853602,63.402637 32.5587536,63.2952815 32.5832788,63.1726558 C32.6078039,63.0500301 32.5813468,62.9227044 32.51,62.82 L32.51,62.82 Z" id="Path"></path>
                <path d="M76.21,21.88 L73.69,18.29 C73.3773327,17.8621159 72.7851545,17.7524533 72.34,18.04 L68.61,20.56 C68.175253,20.8665557 68.0566011,21.4598151 68.34,21.91 L70.65,25.46 C70.9496827,25.895834 71.5369292,26.0229247 71.99,25.75 L75.93,23.28 C76.1548627,23.1331901 76.3112281,22.9021088 76.3638941,22.6387788 C76.4165601,22.3754489 76.3611002,22.1020025 76.21,21.88 Z" id="Path"></path>
                <path d="M69.08,26.82 L66.56,23.22 C66.2466058,22.786162 65.6471924,22.6759758 65.2,22.97 L61.48,25.49 C61.0417913,25.79346 60.918626,26.3872932 61.2,26.84 L63.51,30.39 C63.8071855,30.835191 64.4022334,30.9674239 64.86,30.69 L68.8,28.21 C69.0220203,28.0632684 69.1763952,27.8340911 69.2289477,27.5732053 C69.2815002,27.3123195 69.2278952,27.0412469 69.08,26.82 L69.08,26.82 Z" id="Path"></path>
                <path d="M61.97,31.75 L59.45,28.16 C59.1366058,27.726162 58.5371924,27.6159758 58.09,27.91 L54.36,30.42 C53.925253,30.7265557 53.8066011,31.3198151 54.09,31.77 L56.4,35.32 C56.6971855,35.765191 57.2922334,35.8974239 57.75,35.62 L61.68,33.14 C61.9036491,32.9948538 62.0600754,32.7664056 62.1145287,32.5054053 C62.168982,32.2444049 62.116953,31.9724661 61.97,31.75 L61.97,31.75 Z" id="Path"></path>
                <path d="M54.84,36.68 L52.32,33.09 C52.0073327,32.6621159 51.4151545,32.5524533 50.97,32.84 L47.24,35.35 C46.805253,35.6565557 46.6866011,36.2498151 46.97,36.7 L49.28,40.29 C49.5765636,40.7293389 50.164417,40.8609479 50.62,40.59 L54.56,38.12 C54.7965853,37.973213 54.9612633,37.7344382 55.0144057,37.4611344 C55.0675481,37.1878307 55.0043429,36.9047453 54.84,36.68 Z" id="Path"></path>
                <path d="M48.08,42.06 L44.95,37.6 C44.882985,37.4997808 44.7785581,37.4306435 44.6601266,37.4080852 C44.5416951,37.3855268 44.4191646,37.4114341 44.32,37.48 L39.74,40.57 C39.532627,40.7097542 39.4748864,40.9895739 39.61,41.2 L42.48,45.62 C42.5454244,45.7218379 42.6491164,45.793025 42.7676615,45.8174867 C42.8862065,45.8419483 43.0096077,45.8176217 43.11,45.75 L47.95,42.75 C48.0676286,42.6832224 48.1499052,42.5680584 48.1749486,42.4351353 C48.1999921,42.3022122 48.165264,42.1650037 48.08,42.06 Z" id="Path"></path>
                <path d="M41.73,46.43 L38.6,41.96 C38.4503642,41.7581577 38.1684411,41.7097021 37.96,41.85 L33.39,44.93 C33.1813252,45.0734736 33.1238391,45.3564817 33.26,45.57 L36.13,49.98 C36.2665428,50.1908632 36.5470016,50.2531873 36.76,50.12 L41.6,47.12 C41.7176286,47.0532224 41.7999052,46.9380584 41.8249486,46.8051353 C41.8499921,46.6722122 41.815264,46.5350037 41.73,46.43 L41.73,46.43 Z" id="Path"></path>
                <path d="M34.67,51.29 L31.54,46.82 C31.3903642,46.6181577 31.1084411,46.5697021 30.9,46.71 L26.32,49.79 C26.1158537,49.936437 26.059165,50.2155199 26.19,50.43 L29.07,54.84 C29.2065428,55.0508632 29.4870016,55.1131873 29.7,54.98 L34.53,51.98 C34.6520579,51.9176476 34.7390448,51.8030666 34.7662991,51.6687418 C34.7935534,51.5344171 34.7581036,51.3949938 34.67,51.29 L34.67,51.29 Z" id="Path"></path>
                <path d="M27.83,56.05 L24.7,51.59 C24.631119,51.4891234 24.5249441,51.4197853 24.404886,51.3972744 C24.284828,51.3747636 24.1607463,51.4009285 24.06,51.47 L19.48,54.56 C19.2760733,54.7029043 19.2228864,54.9821356 19.36,55.19 L22.23,59.6 C22.2917973,59.7057479 22.3948756,59.7809518 22.5144396,59.8075216 C22.6340037,59.8340914 22.7592316,59.8096222 22.86,59.74 L27.69,56.74 C27.8120579,56.6776476 27.8990448,56.5630666 27.9262991,56.4287418 C27.9535534,56.2944171 27.9181036,56.1549938 27.83,56.05 Z" id="Path"></path>
                <path d="M25.67,67.55 L22.54,63.09 C22.3940036,62.8894748 22.115311,62.8408142 21.91,62.98 L17.33,66.06 C17.2281621,66.1254244 17.156975,66.2291164 17.1325133,66.3476615 C17.1080517,66.4662065 17.1323783,66.5896077 17.2,66.69 L20.07,71.11 C20.209711,71.3162543 20.4860835,71.3776704 20.7,71.25 L25.54,68.25 C25.6581305,68.1811291 25.7404105,68.0642264 25.7653783,67.9297845 C25.7903461,67.7953426 25.7555258,67.6566928 25.67,67.55 L25.67,67.55 Z" id="Path"></path>
                <path d="M18.83,72.29 L15.7,67.83 C15.632985,67.7297808 15.5285581,67.6606435 15.4101266,67.6380852 C15.2916951,67.6155268 15.1691646,67.6414341 15.07,67.71 L10.49,70.8 C10.3881621,70.8654244 10.316975,70.9691164 10.2925133,71.0876615 C10.2680517,71.2062065 10.2923783,71.3296077 10.36,71.43 L13.23,75.84 C13.3665428,76.0508632 13.6470016,76.1131873 13.86,75.98 L18.7,72.98 C18.8176286,72.9132224 18.8999052,72.7980584 18.9249486,72.6651353 C18.9499921,72.5322122 18.915264,72.3950037 18.83,72.29 Z" id="Path"></path>
                <path d="M29.57,43.95 L26.57,39.75 C26.3736977,39.4786098 25.9973371,39.4121933 25.72,39.6 L21.4,42.51 C21.2641029,42.5996515 21.1696823,42.7399075 21.1377537,42.8995507 C21.105825,43.059194 21.1390379,43.2249766 21.23,43.36 L23.93,47.51 C24.0145207,47.6485152 24.1515406,47.7468908 24.3098083,47.7826895 C24.468076,47.8184881 24.6340951,47.788657 24.77,47.7 L29.34,44.83 C29.4921829,44.7485007 29.6034956,44.6072422 29.647149,44.4402208 C29.6908023,44.2731993 29.662843,44.0955402 29.57,43.95 L29.57,43.95 Z" id="Path"></path>
                <path d="M22.73,48.69 L19.78,44.49 C19.6887782,44.3557184 19.5477942,44.2633365 19.3882599,44.2333065 C19.2287257,44.2032766 19.0638017,44.2380757 18.93,44.33 L14.61,47.29 C14.474758,47.3777667 14.380528,47.5162684 14.3485475,47.6742894 C14.3165671,47.8323104 14.3495275,47.996553 14.44,48.13 L17.14,52.29 C17.3231529,52.5691978 17.6945196,52.6531974 17.98,52.48 L22.55,49.61 C22.706097,49.5205418 22.8156369,49.3676889 22.8501824,49.1911226 C22.884728,49.0145564 22.8408721,48.8316913 22.73,48.69 L22.73,48.69 Z" id="Path"></path>
                <path d="M15.89,53.43 L12.94,49.22 C12.7436977,48.9486098 12.3673371,48.8821933 12.09,49.07 L7.77,51.98 C7.6341029,52.0696515 7.53968235,52.2099075 7.50775369,52.3695507 C7.47582503,52.529194 7.50903789,52.6949766 7.6,52.83 L10.3,56.98 C10.3845207,57.1185152 10.5215406,57.2168908 10.6798083,57.2526895 C10.838076,57.2884881 11.0040951,57.258657 11.14,57.17 L15.71,54.3 C15.8533019,54.2119316 15.9538798,54.0686003 15.9879583,53.9038879 C16.0220367,53.7391756 15.9865909,53.5677014 15.89,53.43 Z" id="Path"></path>
                <path d="M9.14,58.29 L6.01,53.82 C5.8640036,53.6194748 5.58531101,53.5708142 5.38,53.71 L0.8,56.79 C0.591325162,56.9334736 0.533839134,57.2164817 0.67,57.43 L3.54,61.84 C3.67971101,62.0462543 3.95608348,62.1076704 4.17,61.98 L9.01,58.98 C9.13356093,58.9186597 9.22120165,58.8029213 9.24674268,58.6673573 C9.27228372,58.5317934 9.23276822,58.3920979 9.14,58.29 Z" id="Path"></path>
                <path d="M90.08,12.14 L87.37,8.29 C87.0535571,7.85955794 86.4546614,7.75387046 86.01,8.05 L75.43,15.46 C75.0045636,15.7688753 74.890948,16.354433 75.17,16.8 L77.72,20.74 C77.8683028,20.9603997 78.0982067,21.1127332 78.3589823,21.1633875 C78.6197579,21.2140417 78.8899718,21.1588534 79.11,21.01 L89.85,13.5 C90.277067,13.1805336 90.3782671,12.5821332 90.08,12.14 Z" id="Path"></path>
                <path d="M20.97,60.64 L17.65,55.95 C17.5813447,55.8484666 17.4742445,55.7793308 17.3534491,55.7585691 C17.2326537,55.7378074 17.108616,55.7672164 17.01,55.84 L5.59,63.84 C5.38735754,63.9791917 5.33392681,64.2552505 5.47,64.46 L8.59,69.29 C8.65736296,69.3953602 8.76471855,69.4687536 8.88734424,69.4932788 C9.00996994,69.5178039 9.13729565,69.4913468 9.24,69.42 L20.85,61.29 C21.0613306,61.1428048 21.1148423,60.8529502 20.97,60.64 L20.97,60.64 Z" id="Path"></path>
                <path d="M57.3,24.77 L54.24,20.29 C54.0970957,20.0860733 53.8178644,20.0328864 53.61,20.17 L28.25,37.29 C28.042627,37.4297542 27.9848864,37.7095739 28.12,37.92 L31.25,42.72 C31.317363,42.8253602 31.4247185,42.8987536 31.5473442,42.9232788 C31.6699699,42.9478039 31.7972956,42.9213468 31.9,42.85 L57.18,25.41 C57.2808766,25.341119 57.3502147,25.2349441 57.3727256,25.114886 C57.3952364,24.994828 57.3690715,24.8707463 57.3,24.77 Z" id="Path"></path>
            </g>
            <path d="M896.82,331.77 L894.3,328.17 C893.986606,327.736162 893.387192,327.625976 892.94,327.92 L889.22,330.44 C888.781791,330.74346 888.658626,331.337293 888.94,331.79 L891.25,335.34 C891.547186,335.785191 892.142233,335.917424 892.6,335.64 L896.54,333.16 C896.76202,333.013268 896.916395,332.784091 896.968948,332.523205 C897.0215,332.262319 896.967895,331.991247 896.82,331.77 L896.82,331.77 Z" id="Path" fill="#464A5F"></path>
            <path d="M890.08,336.41 L887.56,332.82 C887.247333,332.392116 886.655155,332.282453 886.21,332.57 L882.48,335.08 C882.041791,335.38346 881.918626,335.977293 882.2,336.43 L884.51,339.98 C884.807186,340.425191 885.402233,340.557424 885.86,340.28 L889.8,337.81 C890.024863,337.66319 890.181228,337.432109 890.233894,337.168779 C890.28656,336.905449 890.2311,336.632002 890.08,336.41 L890.08,336.41 Z" id="Path" fill="#464A5F"></path>
            <path d="M883.08,341.29 L880.56,337.7 C880.246606,337.266162 879.647192,337.155976 879.2,337.45 L875.48,339.97 C875.041791,340.27346 874.918626,340.867293 875.2,341.32 L877.51,344.87 C877.810337,345.31169 878.404766,345.439382 878.86,345.16 L882.8,342.69 C883.024863,342.54319 883.181228,342.312109 883.233894,342.048779 C883.28656,341.785449 883.2311,341.512002 883.08,341.29 L883.08,341.29 Z" id="Path" fill="#464A5F"></path>
            <path d="M875.94,346.22 L873.42,342.62 C873.107333,342.192116 872.515155,342.082453 872.07,342.37 L868.34,344.89 C868.118362,345.039969 867.96608,345.272516 867.917217,345.535626 C867.868354,345.798736 867.926986,346.070453 868.08,346.29 L870.39,349.84 C870.687186,350.285191 871.282233,350.417424 871.74,350.14 L875.67,347.66 C875.904986,347.511563 876.067593,347.272023 876.118815,346.99884 C876.170037,346.725658 876.105251,346.443482 875.94,346.22 Z" id="Path" fill="#464A5F"></path>
            <path d="M868.82,351.15 L866.3,347.56 C865.987333,347.132116 865.395155,347.022453 864.95,347.31 L861.22,349.82 C860.785253,350.126556 860.666601,350.719815 860.95,351.17 L863.25,354.72 C863.547186,355.165191 864.142233,355.297424 864.6,355.02 L868.54,352.54 C868.76202,352.393268 868.916395,352.164091 868.968948,351.903205 C869.0215,351.642319 868.967895,351.371247 868.82,351.15 Z" id="Path" fill="#464A5F"></path>
            <path d="M862.01,356.53 L858.88,352.07 C858.812985,351.969781 858.708558,351.900644 858.590127,351.878085 C858.471695,351.855527 858.349165,351.881434 858.25,351.95 L853.67,355.04 C853.568162,355.105424 853.496975,355.209116 853.472513,355.327661 C853.448052,355.446207 853.472378,355.569608 853.54,355.67 L856.41,360.08 C856.546543,360.290863 856.827002,360.353187 857.04,360.22 L861.88,357.22 C861.997629,357.153222 862.079905,357.038058 862.104949,356.905135 C862.129992,356.772212 862.095264,356.635004 862.01,356.53 Z" id="Path" fill="#464A5F"></path>
            <path d="M854.89,361.46 L851.76,357 C851.691119,356.899123 851.584944,356.829785 851.464886,356.807274 C851.344828,356.784764 851.220746,356.810928 851.12,356.88 L846.55,359.97 C846.448162,360.035424 846.376975,360.139116 846.352513,360.257661 C846.328052,360.376207 846.352378,360.499608 846.42,360.6 L849.29,365.02 C849.355424,365.121838 849.459116,365.193025 849.577661,365.217487 C849.696207,365.241948 849.819608,365.217622 849.92,365.15 L854.76,362.15 C854.874976,362.080908 854.954951,361.965982 854.979787,361.834163 C855.004622,361.702344 854.971951,361.566194 854.89,361.46 L854.89,361.46 Z" id="Path" fill="#464A5F"></path>
            <path d="M848.58,365.83 L845.45,361.36 C845.304004,361.159475 845.025311,361.110814 844.82,361.25 L840.24,364.29 C840.031325,364.433474 839.973839,364.716482 840.11,364.93 L842.98,369.34 C843.119711,369.546254 843.396083,369.60767 843.61,369.48 L848.45,366.48 C848.55536,366.412637 848.628754,366.305281 848.653279,366.182656 C848.677804,366.06003 848.651347,365.932704 848.58,365.83 Z" id="Path" fill="#464A5F"></path>
            <path d="M841.52,370.72 L838.39,366.29 C838.244004,366.089475 837.965311,366.040814 837.76,366.18 L833.18,369.26 C833.077506,369.327312 833.006129,369.43276 832.98172,369.552928 C832.957311,369.673095 832.981891,369.798034 833.05,369.9 L835.92,374.31 C836.059711,374.516254 836.336083,374.57767 836.55,374.45 L841.39,371.45 C841.521367,371.385361 841.614119,371.262048 841.639788,371.117907 C841.665457,370.973766 841.620977,370.826015 841.52,370.72 L841.52,370.72 Z" id="Path" fill="#464A5F"></path>
            <path d="M834.68,375.45 L831.55,370.99 C831.482985,370.889781 831.378558,370.820644 831.260127,370.798085 C831.141695,370.775527 831.019165,370.801434 830.92,370.87 L826.34,373.96 C826.238162,374.025424 826.166975,374.129116 826.142513,374.247661 C826.118052,374.366207 826.142378,374.489608 826.21,374.59 L829.08,379 C829.143801,379.103475 829.246753,379.176734 829.365421,379.203105 C829.484089,379.229476 829.608379,379.206714 829.71,379.14 L834.55,376.14 C834.667629,376.073222 834.749905,375.958058 834.774949,375.825135 C834.799992,375.692212 834.765264,375.555004 834.68,375.45 Z" id="Path" fill="#464A5F"></path>
            <path d="M827.84,380.19 L824.71,375.72 C824.564004,375.519475 824.285311,375.470814 824.08,375.61 L819.5,378.69 C819.291325,378.833474 819.233839,379.116482 819.37,379.33 L822.24,383.74 C822.379711,383.946254 822.656083,384.00767 822.87,383.88 L827.71,380.88 C827.827629,380.813222 827.909905,380.698058 827.934949,380.565135 C827.959992,380.432212 827.925264,380.295004 827.84,380.19 Z" id="Path" fill="#464A5F"></path>
            <path d="M821,384.92 L817.87,380.46 C817.802985,380.359781 817.698558,380.290644 817.580127,380.268085 C817.461695,380.245527 817.339165,380.271434 817.24,380.34 L812.66,383.43 C812.558162,383.495424 812.486975,383.599116 812.462513,383.717661 C812.438052,383.836207 812.462378,383.959608 812.53,384.06 L815.4,388.47 C815.463801,388.573475 815.566753,388.646734 815.685421,388.673105 C815.804089,388.699476 815.928379,388.676714 816.03,388.61 L820.87,385.61 C820.987629,385.543222 821.069905,385.428058 821.094949,385.295135 C821.119992,385.162212 821.085264,385.025004 821,384.92 L821,384.92 Z" id="Path" fill="#464A5F"></path>
            <path d="M892.31,325.29 L889.79,321.69 C889.477333,321.262116 888.885155,321.152453 888.44,321.44 L884.71,323.96 C884.275253,324.266556 884.156601,324.859815 884.44,325.31 L886.74,328.86 C887.037186,329.305191 887.632233,329.437424 888.09,329.16 L892.03,326.68 C892.25202,326.533268 892.406395,326.304091 892.458948,326.043205 C892.5115,325.782319 892.457895,325.511247 892.31,325.29 L892.31,325.29 Z" id="Path" fill="#464A5F"></path>
            <path d="M882.46,311.03 L879.94,307.44 C879.627333,307.012116 879.035155,306.902453 878.59,307.19 L874.86,309.7 C874.425253,310.006556 874.306601,310.599815 874.59,311.05 L876.9,314.6 C877.196564,315.039339 877.784417,315.170948 878.24,314.9 L882.18,312.43 C882.404863,312.28319 882.561228,312.052109 882.613894,311.788779 C882.66656,311.525449 882.6111,311.252002 882.46,311.03 Z" id="Path" fill="#464A5F"></path>
            <path d="M885.6,329.9 L883.08,326.29 C882.767333,325.862116 882.175155,325.752453 881.73,326.04 L878,328.55 C877.565253,328.856556 877.446601,329.449815 877.73,329.9 L880.04,333.45 C880.336564,333.889339 880.924417,334.020948 881.38,333.75 L885.32,331.28 C885.776275,330.974817 885.901247,330.358883 885.6,329.9 Z" id="Path" fill="#464A5F"></path>
            <path d="M878.56,334.77 L876.08,331.18 C875.767333,330.752116 875.175155,330.642453 874.73,330.93 L871,333.44 C870.559308,333.747219 870.440088,334.347735 870.73,334.8 L873.03,338.35 C873.330337,338.79169 873.924766,338.919382 874.38,338.64 L878.32,336.17 C878.538448,336.016926 878.686686,335.782922 878.731755,335.520015 C878.776825,335.257109 878.714991,334.987092 878.56,334.77 Z" id="Path" fill="#464A5F"></path>
            <path d="M871.44,339.71 L868.92,336.11 C868.606606,335.676162 868.007192,335.565976 867.56,335.86 L863.84,338.38 C863.401791,338.68346 863.278626,339.277293 863.56,339.73 L865.87,343.28 C866.167186,343.725191 866.762233,343.857424 867.22,343.58 L871.16,341.1 C871.38202,340.953268 871.536395,340.724091 871.588948,340.463205 C871.6415,340.202319 871.587895,339.931247 871.44,339.71 Z" id="Path" fill="#464A5F"></path>
            <path d="M875.91,315.9 L873.39,312.29 C873.077333,311.862116 872.485155,311.752453 872.04,312.04 L868.31,314.55 C867.875253,314.856556 867.756601,315.449815 868.04,315.9 L870.35,319.45 C870.646564,319.889339 871.234417,320.020948 871.69,319.75 L875.63,317.28 C876.086275,316.974817 876.211247,316.358883 875.91,315.9 L875.91,315.9 Z" id="Path" fill="#464A5F"></path>
            <path d="M868.87,320.78 L866.35,317.18 C866.037333,316.752116 865.445155,316.642453 865,316.93 L861.27,319.45 C860.831791,319.75346 860.708626,320.347293 860.99,320.8 L863.3,324.35 C863.597186,324.795191 864.192233,324.927424 864.65,324.65 L868.59,322.17 C868.81202,322.023268 868.966395,321.794091 869.018948,321.533205 C869.0715,321.272319 869.017895,321.001247 868.87,320.78 Z" id="Path" fill="#464A5F"></path>
            <path d="M861.75,325.71 L859.23,322.12 C858.916606,321.686162 858.317192,321.575976 857.87,321.87 L854.15,324.38 C853.711791,324.68346 853.588626,325.277293 853.87,325.73 L856.18,329.29 C856.477186,329.735191 857.072233,329.867424 857.53,329.59 L861.46,327.11 C861.686487,326.964791 861.84491,326.734446 861.899481,326.471 C861.954052,326.207553 861.900168,325.93323 861.75,325.71 Z" id="Path" fill="#464A5F"></path>
            <path d="M864.31,344.64 L861.79,341.05 C861.477333,340.622116 860.885155,340.512453 860.44,340.8 L856.71,343.29 C856.275253,343.596556 856.156601,344.189815 856.44,344.64 L858.75,348.19 C859.046564,348.629339 859.634417,348.760948 860.09,348.49 L864.03,346.01 C864.48017,345.705334 864.604529,345.096867 864.31,344.64 Z" id="Path" fill="#464A5F"></path>
            <path d="M857.19,349.57 L854.67,345.98 C854.357333,345.552116 853.765155,345.442453 853.32,345.73 L849.59,348.29 C849.151791,348.59346 849.028626,349.187293 849.31,349.64 L851.62,353.19 C851.917186,353.635191 852.512233,353.767424 852.97,353.49 L856.91,351.02 C857.149607,350.873308 857.316456,350.632589 857.369723,350.35674 C857.422991,350.08089 857.357763,349.795357 857.19,349.57 Z" id="Path" fill="#464A5F"></path>
            <path d="M850.38,354.95 L847.25,350.49 C847.182985,350.389781 847.078558,350.320644 846.960127,350.298085 C846.841695,350.275527 846.719165,350.301434 846.62,350.37 L842.08,353.46 C841.978162,353.525424 841.906975,353.629116 841.882513,353.747661 C841.858052,353.866207 841.882378,353.989608 841.95,354.09 L844.82,358.5 C844.883801,358.603475 844.986753,358.676734 845.105421,358.703105 C845.224089,358.729476 845.348379,358.706714 845.45,358.64 L850.29,355.64 C850.398781,355.564353 850.470579,355.446305 850.487716,355.314919 C850.504853,355.183534 850.465738,355.051019 850.38,354.95 L850.38,354.95 Z" id="Path" fill="#464A5F"></path>
            <path d="M844.08,359.29 L840.95,354.82 C840.800364,354.618158 840.518441,354.569702 840.31,354.71 L835.73,357.79 C835.525854,357.936437 835.469165,358.21552 835.6,358.43 L838.48,362.84 C838.616543,363.050863 838.897002,363.113187 839.11,362.98 L843.94,359.98 C844.062058,359.917648 844.149045,359.803067 844.176299,359.668742 C844.203553,359.534417 844.168104,359.394994 844.08,359.29 L844.08,359.29 Z" id="Path" fill="#464A5F"></path>
            <path d="M837.01,364.21 L833.88,359.74 C833.734004,359.539475 833.455311,359.490814 833.25,359.63 L828.67,362.71 C828.461325,362.853474 828.403839,363.136482 828.54,363.35 L831.41,367.76 C831.549711,367.966254 831.826083,368.02767 832.04,367.9 L836.88,364.9 C837.003561,364.83866 837.091202,364.722921 837.116743,364.587357 C837.142284,364.451793 837.102768,364.312098 837.01,364.21 L837.01,364.21 Z" id="Path" fill="#464A5F"></path>
            <path d="M830.18,368.94 L827.08,364.48 C827.012985,364.379781 826.908558,364.310644 826.790127,364.288085 C826.671695,364.265527 826.549165,364.291434 826.45,364.36 L821.87,367.45 C821.662627,367.589754 821.604886,367.869574 821.74,368.08 L824.61,372.49 C824.746543,372.700863 825.027002,372.763187 825.24,372.63 L830.08,369.63 C830.195872,369.560438 830.274344,369.44248 830.293728,369.308729 C830.313113,369.174977 830.271356,369.039595 830.18,368.94 L830.18,368.94 Z" id="Path" fill="#464A5F"></path>
            <path d="M873.87,328.01 L871.36,324.41 C871.046606,323.976162 870.447192,323.865976 870,324.16 L866.27,326.68 C865.835253,326.986556 865.716601,327.579815 866,328.03 L868.31,331.58 C868.610337,332.02169 869.204766,332.149382 869.66,331.87 L873.59,329.4 C873.81202,329.253268 873.966395,329.024091 874.018948,328.763205 C874.0715,328.502319 874.017895,328.231247 873.87,328.01 Z" id="Path" fill="#464A5F"></path>
            <path d="M866.75,332.94 L864.23,329.35 C863.920375,328.918695 863.327668,328.804543 862.88,329.09 L859.15,331.61 C858.715253,331.916556 858.596601,332.509815 858.88,332.96 L861.19,336.51 C861.486564,336.949339 862.074417,337.080948 862.53,336.81 L866.47,334.33 C866.69202,334.183268 866.846395,333.954091 866.898948,333.693205 C866.9515,333.432319 866.897895,333.161247 866.75,332.94 L866.75,332.94 Z" id="Path" fill="#464A5F"></path>
            <path d="M859.63,337.87 L857.08,334.29 C856.766606,333.856162 856.167192,333.745976 855.72,334.04 L852.08,336.54 C851.641791,336.84346 851.518626,337.437293 851.8,337.89 L854.11,341.44 C854.407186,341.885191 855.002233,342.017424 855.46,341.74 L859.4,339.27 C859.616865,339.115393 859.763097,338.880663 859.806273,338.617852 C859.849449,338.355041 859.786002,338.085864 859.63,337.87 L859.63,337.87 Z" id="Path" fill="#464A5F"></path>
            <path d="M852.5,342.8 L849.98,339.21 C849.667333,338.782116 849.075155,338.672453 848.63,338.96 L844.9,341.47 C844.465253,341.776556 844.346601,342.369815 844.63,342.82 L846.94,346.37 C847.236564,346.809339 847.824417,346.940948 848.28,346.67 L852.22,344.2 C852.444863,344.05319 852.601228,343.822109 852.653894,343.558779 C852.70656,343.295449 852.6511,343.022002 852.5,342.8 Z" id="Path" fill="#464A5F"></path>
            <path d="M845.7,348.18 L842.57,343.72 C842.501119,343.619123 842.394944,343.549785 842.274886,343.527274 C842.154828,343.504764 842.030746,343.530928 841.93,343.6 L837.35,346.69 C837.142627,346.829754 837.084886,347.109574 837.22,347.32 L840.09,351.74 C840.157312,351.842494 840.26276,351.913871 840.382928,351.93828 C840.503095,351.962689 840.628034,351.938109 840.73,351.87 L845.56,348.87 C845.679216,348.805006 845.763628,348.690662 845.790627,348.557591 C845.817627,348.42452 845.784457,348.286319 845.7,348.18 Z" id="Path" fill="#464A5F"></path>
            <path d="M839.39,352.55 L836.26,348.09 C836.192985,347.989781 836.088558,347.920644 835.970127,347.898085 C835.851695,347.875527 835.729165,347.901434 835.63,347.97 L831.08,351.05 C830.871325,351.193474 830.813839,351.476482 830.95,351.69 L833.82,356.1 C833.959711,356.306254 834.236083,356.36767 834.45,356.24 L839.29,353.24 C839.402985,353.168076 839.479012,353.050481 839.498222,352.917931 C839.517432,352.78538 839.477918,352.65104 839.39,352.55 Z" id="Path" fill="#464A5F"></path>
            <path d="M832.33,357.44 L829.2,352.97 C829.050364,352.768158 828.768441,352.719702 828.56,352.86 L823.99,355.94 C823.781325,356.083474 823.723839,356.366482 823.86,356.58 L826.73,360.99 C826.866543,361.200863 827.147002,361.263187 827.36,361.13 L832.2,358.13 C832.317629,358.063222 832.399905,357.948058 832.424949,357.815135 C832.449992,357.682212 832.415264,357.545004 832.33,357.44 Z" id="Path" fill="#464A5F"></path>
            <path d="M825.49,362.17 L822.36,357.71 C822.291119,357.609123 822.184944,357.539785 822.064886,357.517274 C821.944828,357.494764 821.820746,357.520928 821.72,357.59 L817.15,360.68 C817.048162,360.745424 816.976975,360.849116 816.952513,360.967661 C816.928052,361.086207 816.952378,361.209608 817.02,361.31 L819.89,365.73 C819.955424,365.831838 820.059116,365.903025 820.177661,365.927487 C820.296207,365.951948 820.419608,365.927622 820.52,365.86 L825.36,362.86 C825.474976,362.790908 825.554951,362.675982 825.579787,362.544163 C825.604622,362.412344 825.571951,362.276194 825.49,362.17 L825.49,362.17 Z" id="Path" fill="#464A5F"></path>
            <path d="M823.34,373.68 L820.21,369.21 C820.060364,369.008158 819.778441,368.959702 819.57,369.1 L814.99,372.18 C814.781325,372.323474 814.723839,372.606482 814.86,372.82 L817.73,377.23 C817.869711,377.436254 818.146083,377.49767 818.36,377.37 L823.2,374.37 C823.322058,374.307648 823.409045,374.193067 823.436299,374.058742 C823.463553,373.924417 823.428104,373.784994 823.34,373.68 Z" id="Path" fill="#464A5F"></path>
            <path d="M816.5,378.41 L813.37,373.95 C813.301119,373.849123 813.194944,373.779785 813.074886,373.757274 C812.954828,373.734764 812.830746,373.760928 812.73,373.83 L808.15,376.92 C807.942627,377.059754 807.884886,377.339574 808.02,377.55 L810.89,381.96 C810.955713,382.064129 811.060428,382.137567 811.180714,382.163879 C811.301,382.190192 811.426813,382.167182 811.53,382.1 L816.36,379.1 C816.482058,379.037648 816.569045,378.923067 816.596299,378.788742 C816.623553,378.654417 816.588104,378.514994 816.5,378.41 L816.5,378.41 Z" id="Path" fill="#464A5F"></path>
            <path d="M827.23,350.08 L824.28,345.87 C824.083698,345.59861 823.707337,345.532193 823.43,345.72 L819.08,348.63 C818.801775,348.820066 818.726279,349.197544 818.91,349.48 L821.61,353.64 C821.796883,353.921692 822.174975,354.001759 822.46,353.82 L827.02,350.95 C827.168226,350.86702 827.275137,350.725991 827.314995,350.560861 C827.354854,350.395731 827.324051,350.22146 827.23,350.08 Z" id="Path" fill="#464A5F"></path>
            <path d="M820.39,354.81 L817.44,350.61 C817.348778,350.475718 817.207794,350.383337 817.04826,350.353307 C816.888726,350.323277 816.723802,350.358076 816.59,350.45 L812.27,353.37 C811.993053,353.556328 811.917298,353.930648 812.1,354.21 L814.8,358.37 C814.986881,358.650527 815.361462,358.734257 815.65,358.56 L820.22,355.69 C820.360057,355.596511 820.456858,355.450843 820.488798,355.285506 C820.520738,355.12017 820.485158,354.948928 820.39,354.81 L820.39,354.81 Z" id="Path" fill="#464A5F"></path>
            <path d="M813.55,359.55 L810.55,355.34 C810.357374,355.0699 809.984204,355.003262 809.71,355.19 L805.38,358.1 C805.101775,358.290066 805.026279,358.667544 805.21,358.95 L807.91,363.11 C808.096883,363.391692 808.474975,363.471759 808.76,363.29 L813.33,360.42 C813.479892,360.33877 813.58895,360.198519 813.630747,360.033235 C813.672543,359.86795 813.643262,359.692717 813.55,359.55 L813.55,359.55 Z" id="Path" fill="#464A5F"></path>
            <path d="M806.81,364.42 L803.68,359.95 C803.530364,359.748158 803.248441,359.699702 803.04,359.84 L798.46,362.92 C798.254763,363.066582 798.201805,363.349024 798.34,363.56 L801.21,367.97 C801.346543,368.180863 801.627002,368.243187 801.84,368.11 L806.68,365.11 C806.797629,365.043222 806.879905,364.928058 806.904949,364.795135 C806.929992,364.662212 806.895264,364.525004 806.81,364.42 Z" id="Path" fill="#464A5F"></path>
            <path d="M887.75,318.29 L885.08,314.43 C884.763557,313.999558 884.164661,313.89387 883.72,314.19 L873.08,321.6 C872.654564,321.908875 872.540948,322.494433 872.82,322.94 L875.38,326.88 C875.528303,327.1004 875.758207,327.252733 876.018982,327.303387 C876.279758,327.354042 876.549972,327.298853 876.77,327.15 L887.5,319.64 C887.927884,319.327333 888.037547,318.735155 887.75,318.29 Z" id="Path" fill="#464A5F"></path>
            <path d="M818.63,366.76 L815.31,362.07 C815.241345,361.968467 815.134244,361.899331 815.013449,361.878569 C814.892654,361.857807 814.768616,361.887216 814.67,361.96 L803.25,369.96 C803.046073,370.102904 802.992886,370.382136 803.13,370.59 L806.26,375.41 C806.327363,375.51536 806.434719,375.588754 806.557344,375.613279 C806.67997,375.637804 806.807296,375.611347 806.91,375.54 L818.52,367.41 C818.727947,367.259683 818.776908,366.970369 818.63,366.76 L818.63,366.76 Z" id="Path" fill="#464A5F"></path>
            <path d="M854.96,330.89 L851.96,326.44 C851.816526,326.231325 851.533518,326.173839 851.32,326.31 L825.97,343.41 C825.868162,343.475424 825.796975,343.579116 825.772513,343.697661 C825.748052,343.816207 825.772378,343.939608 825.84,344.04 L828.96,348.84 C829.027363,348.94536 829.134719,349.018754 829.257344,349.043279 C829.37997,349.067804 829.507296,349.041347 829.61,348.97 L854.89,331.53 C855.083613,331.371264 855.114722,331.086835 854.96,330.89 Z" id="Path" fill="#464A5F"></path>
            <path d="M855.08,315.61 L841.6,296.02 C840.823775,294.88691 839.278821,294.592208 838.14,295.36 L801.01,320.29 C800.457729,320.663455 800.076722,321.241283 799.951029,321.896014 C799.825335,322.550746 799.965283,323.228584 800.34,323.78 L814.08,343.93 C814.453261,344.482841 815.03198,344.863588 815.687414,344.987538 C816.342848,345.111488 817.020637,344.968362 817.57,344.59 L854.44,319.08 C854.98612,318.705592 855.360625,318.129085 855.480723,317.477929 C855.600821,316.826772 855.45662,316.154597 855.08,315.61 Z" id="Path" fill="#000000" opacity="0.1"></path>
            <path d="M855.7,315.73 L842.22,296.14 C841.440574,295.011814 839.899992,294.717946 838.76,295.48 L801.68,320.43 C801.123934,320.80012 800.739112,321.37738 800.611364,322.033031 C800.483615,322.688682 800.623565,323.368189 801,323.92 L814.7,344.05 C815.073261,344.602841 815.65198,344.983588 816.307414,345.107538 C816.962848,345.231488 817.640637,345.088362 818.19,344.71 L855.08,319.2 C855.622918,318.822498 855.993381,318.244543 856.109689,317.59359 C856.225998,316.942637 856.0786,316.272153 855.7,315.73 Z" id="Path" fill="#939498"></path>
            <path d="M939.29,347.39 L910.69,337.85 L818.96,401.57 L847.35,410.82 C848.90192,411.326371 850.601554,411.074573 851.94,410.14 L939.55,349.22 C939.898607,349.014328 940.088854,348.618793 940.031919,348.218061 C939.974984,347.817328 939.682098,347.490436 939.29,347.39 L939.29,347.39 Z" id="Path" fill="#E8EEEC"></path>
        </g>
    </g>
</svg>