<svg aria-hidden="true" style="position: absolute; width: 0; height: 0; overflow: hidden;" version="1.1" xmlns="http://www.w3.org/2000/svg" xmlns:xlink="http://www.w3.org/1999/xlink">
<defs>
<symbol id="icon-react-brands-2" viewBox="0 0 32 32">
<path d="M26.137 11.075c-0.337-0.113-0.675-0.219-1.012-0.319 0.056-0.231 0.106-0.463 0.156-0.694 0.769-3.725 0.262-6.719-1.444-7.706-1.644-0.944-4.325 0.038-7.038 2.4-0.269 0.231-0.531 0.475-0.781 0.719-0.169-0.162-0.344-0.325-0.519-0.481-2.844-2.525-5.694-3.587-7.4-2.594-1.638 0.95-2.125 3.769-1.438 7.294 0.069 0.35 0.144 0.694 0.231 1.044-0.4 0.113-0.794 0.238-1.163 0.369-3.337 1.156-5.731 2.981-5.731 4.869 0 1.95 2.55 3.906 6.019 5.094 0.281 0.094 0.563 0.188 0.85 0.269-0.094 0.375-0.175 0.744-0.25 1.125-0.656 3.469-0.144 6.219 1.494 7.162 1.688 0.975 4.525-0.025 7.287-2.444 0.219-0.194 0.438-0.394 0.656-0.606 0.275 0.269 0.563 0.525 0.85 0.775 2.675 2.3 5.319 3.231 6.95 2.288 1.688-0.975 2.238-3.931 1.525-7.531-0.056-0.275-0.119-0.556-0.188-0.844 0.2-0.056 0.394-0.119 0.587-0.181 3.606-1.194 6.219-3.125 6.219-5.106 0-1.894-2.462-3.731-5.863-4.9zM17.681 5.769c2.325-2.025 4.494-2.819 5.481-2.25 1.056 0.606 1.462 3.056 0.8 6.275-0.044 0.213-0.087 0.419-0.144 0.625-1.387-0.313-2.794-0.537-4.206-0.662-0.813-1.162-1.7-2.275-2.663-3.319 0.244-0.231 0.481-0.45 0.731-0.669zM10.45 19.219c0.319 0.544 0.644 1.087 0.988 1.619-0.975-0.106-1.944-0.262-2.9-0.469 0.275-0.9 0.619-1.831 1.019-2.781 0.287 0.55 0.581 1.094 0.894 1.631zM8.556 11.7c0.9-0.2 1.856-0.363 2.85-0.488-0.331 0.519-0.656 1.050-0.963 1.588-0.306 0.531-0.606 1.075-0.887 1.625-0.394-0.931-0.725-1.844-1-2.725zM10.269 16.006c0.412-0.863 0.863-1.706 1.338-2.537s0.988-1.637 1.525-2.431c0.938-0.069 1.894-0.106 2.869-0.106s1.938 0.037 2.869 0.106c0.531 0.787 1.038 1.594 1.519 2.419s0.931 1.669 1.356 2.525c-0.419 0.862-0.869 1.713-1.35 2.55-0.475 0.831-0.981 1.637-1.512 2.438-0.931 0.069-1.9 0.1-2.881 0.1s-1.931-0.031-2.85-0.087c-0.544-0.794-1.056-1.606-1.537-2.438s-0.925-1.675-1.344-2.538zM21.556 19.206c0.319-0.55 0.619-1.106 0.913-1.669 0.4 0.906 0.75 1.825 1.056 2.769-0.969 0.219-1.95 0.387-2.938 0.5 0.337-0.525 0.656-1.063 0.969-1.6zM22.456 14.425c-0.294-0.55-0.594-1.1-0.906-1.637-0.306-0.531-0.625-1.056-0.956-1.575 1.006 0.125 1.969 0.294 2.869 0.5-0.288 0.925-0.625 1.825-1.006 2.713zM16.012 7.394c0.656 0.712 1.275 1.462 1.85 2.237-1.238-0.056-2.481-0.056-3.719 0 0.613-0.806 1.244-1.556 1.869-2.237zM8.762 3.563c1.050-0.612 3.381 0.263 5.838 2.438 0.156 0.138 0.313 0.287 0.475 0.438-0.969 1.044-1.863 2.156-2.681 3.319-1.412 0.125-2.813 0.344-4.2 0.65-0.081-0.319-0.15-0.644-0.219-0.969-0.588-3.025-0.2-5.306 0.787-5.875zM7.231 20.038c-0.263-0.075-0.519-0.156-0.775-0.244-1.331-0.419-2.844-1.081-3.938-1.95-0.631-0.438-1.056-1.113-1.175-1.869 0-1.144 1.975-2.606 4.825-3.6 0.356-0.125 0.719-0.238 1.081-0.344 0.425 1.356 0.938 2.688 1.531 3.975-0.6 1.306-1.119 2.656-1.55 4.031zM14.519 26.163c-1.031 0.944-2.225 1.694-3.525 2.206-0.694 0.331-1.494 0.363-2.206 0.081-0.994-0.575-1.406-2.781-0.844-5.75 0.069-0.35 0.144-0.7 0.231-1.044 1.4 0.3 2.813 0.506 4.244 0.613 0.825 1.169 1.731 2.288 2.7 3.337-0.2 0.194-0.4 0.381-0.6 0.556zM16.050 24.644c-0.637-0.688-1.275-1.45-1.894-2.269 0.6 0.025 1.219 0.038 1.844 0.038 0.644 0 1.275-0.012 1.9-0.044-0.575 0.794-1.194 1.55-1.85 2.275zM24.219 26.519c-0.056 0.762-0.431 1.475-1.031 1.956-0.994 0.575-3.113-0.175-5.4-2.137-0.262-0.225-0.525-0.469-0.794-0.719 0.956-1.056 1.837-2.175 2.637-3.35 1.431-0.119 2.856-0.337 4.262-0.656 0.063 0.256 0.119 0.512 0.169 0.762 0.306 1.35 0.356 2.756 0.156 4.144zM25.356 19.8c-0.175 0.056-0.35 0.113-0.531 0.163-0.438-1.363-0.975-2.694-1.594-3.988 0.6-1.275 1.106-2.588 1.531-3.931 0.325 0.094 0.637 0.194 0.938 0.294 2.913 1 4.956 2.487 4.956 3.625 0 1.225-2.181 2.806-5.3 3.838zM16 18.863c1.581 0 2.863-1.281 2.863-2.863s-1.281-2.863-2.863-2.863c-1.581 0-2.863 1.281-2.863 2.863s1.281 2.863 2.863 2.863z"></path>
</symbol>
<symbol id="icon-dribbble-brands" viewBox="0 0 32 32">
<path d="M16 0.5c-8.547 0-15.5 6.953-15.5 15.5s6.953 15.5 15.5 15.5 15.5-6.953 15.5-15.5-6.953-15.5-15.5-15.5zM26.248 7.648c1.844 2.253 2.961 5.122 2.99 8.247-0.436-0.092-4.814-0.98-9.219-0.426-0.36-0.878-0.699-1.65-1.164-2.601 4.895-1.999 7.114-4.843 7.393-5.22zM24.776 6.117c-0.238 0.339-2.231 3.018-6.939 4.782-2.169-3.986-4.574-7.261-4.94-7.75 4.198-1.012 8.623 0.079 11.879 2.968zM10.371 4.039c0.349 0.479 2.715 3.757 4.909 7.657-6.193 1.645-11.648 1.621-12.24 1.613 0.859-4.108 3.627-7.523 7.331-9.27zM2.761 16.020c0-0.135 0.003-0.27 0.007-0.405 0.579 0.012 6.995 0.095 13.607-1.884 0.379 0.742 0.741 1.495 1.073 2.247-4.787 1.348-9.137 5.22-11.283 8.894-2.115-2.347-3.404-5.452-3.404-8.852zM7.874 26.465c1.383-2.827 5.136-6.476 10.474-8.297 1.859 4.83 2.627 8.878 2.824 10.040-4.257 1.813-9.376 1.316-13.298-1.743zM23.397 26.995c-0.136-0.805-0.84-4.681-2.572-9.44 4.149-0.664 7.794 0.423 8.247 0.566-0.59 3.684-2.705 6.865-5.675 8.874z"></path>
</symbol>
<symbol id="icon-github-brands" viewBox="0 0 31 32">
<path d="M10.369 24.837c0 0.125-0.144 0.225-0.325 0.225-0.206 0.019-0.35-0.081-0.35-0.225 0-0.125 0.144-0.225 0.325-0.225 0.188-0.019 0.35 0.081 0.35 0.225zM8.425 24.556c-0.044 0.125 0.081 0.269 0.269 0.306 0.162 0.063 0.35 0 0.387-0.125s-0.081-0.269-0.269-0.325c-0.162-0.044-0.344 0.019-0.387 0.144zM11.188 24.45c-0.181 0.044-0.306 0.163-0.287 0.306 0.019 0.125 0.181 0.206 0.369 0.163 0.181-0.044 0.306-0.163 0.287-0.288-0.019-0.119-0.188-0.2-0.369-0.181zM15.3 0.5c-8.669 0-15.3 6.581-15.3 15.25 0 6.931 4.362 12.863 10.594 14.95 0.8 0.144 1.081-0.35 1.081-0.756 0-0.387-0.019-2.525-0.019-3.837 0 0-4.375 0.938-5.294-1.863 0 0-0.713-1.819-1.737-2.288 0 0-1.431-0.981 0.1-0.962 0 0 1.556 0.125 2.412 1.613 1.369 2.413 3.662 1.719 4.556 1.306 0.144-1 0.55-1.694 1-2.106-3.494-0.387-7.019-0.894-7.019-6.906 0-1.719 0.475-2.581 1.475-3.681-0.162-0.406-0.694-2.081 0.162-4.244 1.306-0.406 4.313 1.688 4.313 1.688 1.25-0.35 2.594-0.531 3.925-0.531s2.675 0.181 3.925 0.531c0 0 3.006-2.1 4.313-1.688 0.856 2.169 0.325 3.838 0.163 4.244 1 1.106 1.613 1.969 1.613 3.681 0 6.031-3.681 6.512-7.175 6.906 0.575 0.494 1.063 1.431 1.063 2.9 0 2.106-0.019 4.712-0.019 5.225 0 0.406 0.288 0.9 1.081 0.756 6.25-2.075 10.488-8.006 10.488-14.938 0-8.669-7.031-15.25-15.7-15.25zM6.075 22.056c-0.081 0.063-0.063 0.206 0.044 0.325 0.1 0.1 0.244 0.144 0.325 0.063 0.081-0.063 0.063-0.206-0.044-0.325-0.1-0.1-0.244-0.144-0.325-0.063zM5.4 21.55c-0.044 0.081 0.019 0.181 0.144 0.244 0.1 0.063 0.225 0.044 0.269-0.044 0.044-0.081-0.019-0.181-0.144-0.244-0.125-0.038-0.225-0.019-0.269 0.044zM7.425 23.775c-0.1 0.081-0.063 0.269 0.081 0.387 0.144 0.144 0.325 0.163 0.406 0.063 0.081-0.081 0.044-0.269-0.081-0.387-0.138-0.144-0.325-0.163-0.406-0.063zM6.713 22.856c-0.1 0.063-0.1 0.225 0 0.369s0.269 0.206 0.35 0.144c0.1-0.081 0.1-0.244 0-0.387-0.088-0.144-0.25-0.206-0.35-0.125z"></path>
</symbol>
<symbol id="icon-instagram-brands" viewBox="0 0 28 32">
<path d="M14.006 8.813c-3.975 0-7.181 3.206-7.181 7.181s3.206 7.181 7.181 7.181 7.181-3.206 7.181-7.181-3.206-7.181-7.181-7.181zM14.006 20.663c-2.569 0-4.669-2.094-4.669-4.669s2.094-4.669 4.669-4.669 4.669 2.094 4.669 4.669-2.1 4.669-4.669 4.669zM23.156 8.519c0 0.931-0.75 1.675-1.675 1.675-0.931 0-1.675-0.75-1.675-1.675s0.75-1.675 1.675-1.675 1.675 0.75 1.675 1.675zM27.913 10.219c-0.106-2.244-0.619-4.231-2.262-5.869-1.637-1.638-3.625-2.15-5.869-2.263-2.313-0.131-9.244-0.131-11.556 0-2.237 0.106-4.225 0.619-5.869 2.256s-2.15 3.625-2.263 5.869c-0.131 2.313-0.131 9.244 0 11.556 0.106 2.244 0.619 4.231 2.263 5.869s3.625 2.15 5.869 2.262c2.313 0.131 9.244 0.131 11.556 0 2.244-0.106 4.231-0.619 5.869-2.262 1.637-1.637 2.15-3.625 2.262-5.869 0.131-2.313 0.131-9.238 0-11.55zM24.925 24.25c-0.488 1.225-1.431 2.169-2.663 2.663-1.844 0.731-6.219 0.563-8.256 0.563s-6.419 0.163-8.256-0.563c-1.225-0.488-2.169-1.431-2.663-2.663-0.731-1.844-0.563-6.219-0.563-8.256s-0.163-6.419 0.563-8.256c0.487-1.225 1.431-2.169 2.663-2.662 1.844-0.731 6.219-0.563 8.256-0.563s6.419-0.162 8.256 0.563c1.225 0.487 2.169 1.431 2.663 2.662 0.731 1.844 0.563 6.219 0.563 8.256s0.169 6.419-0.563 8.256z"></path>
</symbol>
<symbol id="icon-twitter-brands" viewBox="0 0 32 32">
<path d="M28.711 9.482c0.020 0.284 0.020 0.569 0.020 0.853 0 8.67-6.599 18.66-18.66 18.66-3.716 0-7.168-1.076-10.071-2.944 0.528 0.061 1.036 0.081 1.584 0.081 3.066 0 5.888-1.035 8.142-2.802-2.883-0.061-5.3-1.949-6.132-4.548 0.406 0.061 0.812 0.102 1.239 0.102 0.589 0 1.178-0.081 1.726-0.223-3.005-0.609-5.259-3.249-5.259-6.437v-0.081c0.873 0.487 1.888 0.792 2.964 0.832-1.766-1.178-2.924-3.188-2.924-5.462 0-1.218 0.325-2.335 0.893-3.31 3.228 3.98 8.081 6.579 13.523 6.863-0.101-0.487-0.162-0.995-0.162-1.502 0-3.614 2.924-6.558 6.558-6.558 1.888 0 3.594 0.792 4.792 2.071 1.482-0.284 2.904-0.832 4.162-1.584-0.487 1.523-1.523 2.802-2.883 3.614 1.32-0.142 2.599-0.508 3.777-1.015-0.893 1.299-2.010 2.457-3.289 3.391z"></path>
</symbol>
<symbol id="icon-gulp-brands" viewBox="0 0 16 32">
<path d="M13.113 24.444l-0.881 1.538-0.287 5.012c0 0.556-1.769 1.006-3.944 1.006s-3.944-0.45-3.944-1.006l-0.362-4.962-0.931-1.587c2.575 1.081 7.875 1.044 10.35 0zM0.863 8.613l0.85 7.844c0.369-1.25 1.3-2.938 2.5-3.45 0.394-0.169 0.794-0.169 1.169 0.056 0.325 0.188 0.6 0.581 0.631 0.738 0.075 0.406-0.125 0.569-0.281 0.569-0.188 0-0.331-0.287-0.425-0.456-0.256-0.456-0.644-0.475-1.056-0.175-0.431 0.313-0.806 0.838-1.069 1.294-0.319 0.55-0.587 1.156-0.75 1.762-0.094 0.35-0.181 0.913-0.038 1.244 0.063 0.137 0.156 0.225 0.306 0.225 0.313 0 0.769-0.413 0.988-0.631 0.281-0.281 0.644-0.719 0.781-1l0.325-0.969c0.162-0.425 0.619-0.35 0.619 0 0 0.637-0.231 0.85-0.625 2.169-0.362 1.219-0.475 1.613-0.475 1.613-0.044 0.175-0.213 0.469-0.394 0.469-0.075 0-0.131-0.025-0.163-0.075-0.063-0.087-0.056-0.331-0.050-0.394 0.013-0.2 0.394-1.387 0.456-1.575-0.125 0.137-0.256 0.275-0.4 0.413-0.337 0.319-0.881 0.738-1.344 0.738-0.212 0-0.35-0.056-0.481-0.15l0.475 4.975c0.125 0.313 2.45 1.069 5.513 1.069 3.069 0 5.394-0.762 5.513-1.069l0.681-5.913c-0.356 0.325-0.769 0.725-1.225 0.925-0.338 0.144-1.088 0.238-1.088-0.356 0-0.325 0.569-0.925 0.9-1.344 0.088-0.106 0.294-0.369 0.294-0.506 0-0.181-0.375-0.137-0.731 0.156-0.2 0.169-0.387 0.394-0.544 0.606-0.269 0.375-0.412 0.7-0.531 0.969-0.387 0.887-0.256 0.538-0.569 1.375-0.313 0.831-0.262 0.738-0.325 0.875-0.056 0.119-0.137 0.219-0.25 0.281-0.119 0.063-0.281 0.056-0.381-0.019-0.056-0.038-0.081-0.119-0.081-0.231 0-0.056 0.006-0.113 0.019-0.169 0.094-0.381 0.488-1.131 0.938-2.144 0.1-0.231 0.063-0.163 0.050-0.144-0.387 0.375-0.681 0.556-0.9 0.656-0.363 0.163-0.813 0.163-0.906-0.256-0.006-0.025-0.006-0.050-0.012-0.075-0.738 0.575-1.519 0.731-1.25-0.506-0.287 0.512-0.787 0.931-1.4 0.931-0.256 0-0.444-0.087-0.537-0.319-0.144-0.344 0.081-0.931 0.287-1.488 0.106-0.281 0.25-0.619 0.444-1.012 0.1-0.213 0.263-0.338 0.475-0.281 0.037 0.012 0.069 0.025 0.1 0.044 0.162 0.113 0.1 0.281 0.019 0.45-0.237 0.469-0.444 0.813-0.581 1.3-0.056 0.206-0.125 0.563 0.094 0.563 0.15 0 0.294-0.050 0.431-0.15 0.287-0.212 0.519-0.531 0.694-0.844 0.125-0.225 0.275-0.519 0.35-0.769 0.031-0.106 0.069-0.206 0.113-0.3 0.069-0.156 0.162-0.319 0.325-0.319 0.081 0 0.15 0.031 0.2 0.094 0.106 0.138 0.081 0.281 0.025 0.431-0.125 0.35-0.294 0.663-0.431 1.044-0.081 0.219-0.169 0.5-0.169 0.731 0 0.212 0.231 0.163 0.425 0.075 0.15-0.069 0.3-0.175 0.425-0.281 0.075-0.306 0.056-0.238 1.65-4.262 0.081-0.206 0.231-0.294 0.381-0.294 0.075 0 0.137 0.025 0.2 0.069 0.106 0.081 0.106 0.256 0.063 0.387-0.044 0.119-0.037 0.081-0.281 0.656-0.325 0.756-0.537 1.3-0.825 1.994-0.119 0.288-0.481 1.181-0.544 1.394-0.037 0.137-0.081 0.363 0.063 0.363 0.338 0 1.206-0.819 1.444-1.063 0.012-0.019 0.031-0.025 0.056-0.038 0.037-0.119 0.075-0.231 0.106-0.344 0.088-0.238 0.169-0.512 0.331-0.706 0.050-0.063 0.106-0.1 0.169-0.1 0.175 0 0.262 0.075 0.262 0.25 0 0.069-0.044 0.319-0.069 0.387 0.088-0.094 0.181-0.188 0.281-0.281 0.938-0.869 1.606-0.425 1.606 0.012 0 0.462-0.556 1.106-0.863 1.462-0.1 0.119-0.306 0.337-0.313 0.4 0 0.081 0.056 0.113 0.137 0.113 0.125 0 0.4-0.219 0.5-0.294 0.313-0.244 0.738-0.619 1.037-0.881l0.925-8.55c-1.906 1.069-12.35 1.075-14.269 0.012zM15.219 8.081c0 1.313-14.45 1.313-14.45 0 0-0.55 3.237-0.994 7.225-0.994 0.563 0 1.113 0.006 1.644 0.025l0.787-3.044 3.831-4.031c0.088-0.087 0.363-0.013 0.619 0.219s0.412 0.494 0.331 0.581l-0.006 0.006-3.581 3.781-0.625 2.544c2.494 0.162 4.225 0.506 4.225 0.912zM10.881 8.369c0-0.050-0.056-0.094-0.156-0.131l-0.012 0.050c0 0.081-0.313 0.15-0.694 0.15s-0.694-0.069-0.694-0.15c0-0.006 0-0.012 0.006-0.019l0.012-0.044c-0.113 0.037-0.188 0.088-0.188 0.144 0 0.131 0.387 0.231 0.856 0.231 0.481 0.006 0.869-0.1 0.869-0.231z"></path>
</symbol>
<symbol id="icon-js-square-brands" viewBox="0 0 28 32">
<path d="M25 2h-22c-1.656 0-3 1.344-3 3v22c0 1.656 1.344 3 3 3h22c1.656 0 3-1.344 3-3v-22c0-1.656-1.344-3-3-3zM15.238 23.837c0 2.725-1.6 3.969-3.931 3.969-2.106 0-3.325-1.087-3.95-2.406l2.144-1.294c0.412 0.731 0.787 1.35 1.694 1.35 0.863 0 1.412-0.337 1.412-1.656v-8.944h2.631v8.981zM21.462 27.806c-2.444 0-4.025-1.163-4.794-2.688l2.144-1.238c0.563 0.919 1.3 1.6 2.594 1.6 1.087 0 1.788-0.544 1.788-1.3 0-0.9-0.712-1.219-1.919-1.75l-0.656-0.281c-1.9-0.806-3.156-1.825-3.156-3.969 0-1.975 1.506-3.475 3.85-3.475 1.675 0 2.875 0.581 3.738 2.106l-2.050 1.313c-0.45-0.806-0.938-1.125-1.694-1.125-0.769 0-1.256 0.488-1.256 1.125 0 0.788 0.488 1.106 1.619 1.6l0.656 0.281c2.238 0.956 3.494 1.938 3.494 4.137 0 2.363-1.863 3.663-4.356 3.663z"></path>
</symbol>
<symbol id="icon-bootstrap-brands" viewBox="0 0 28 32">
<path d="M18.269 19.496c0 2.651-2.482 2.589-2.745 2.589h-5.056v-5.106h5.056c2.66 0 2.745 1.994 2.745 2.516zM15.134 14.925c0.042 0 2.403 0.063 2.403-2.269 0-0.97-0.219-2.242-2.402-2.242h-4.666v4.511h4.666zM28 6.667v18.666c-0.008 2.574-2.093 4.659-4.666 4.667h-18.667c-2.574-0.008-4.659-2.093-4.667-4.666v-18.667c0.008-2.574 2.093-4.659 4.666-4.667h18.667c2.574 0.008 4.659 2.093 4.667 4.666v0.001zM21.128 19.866c0-1.348-0.416-3.643-3.066-4.209v-0.046c1.432-0.611 2.334-1.766 2.334-3.477 0-0.438 0.125-4.049-4.85-4.049h-7.938v16.333c8.014 0 8.742 0.105 10.225-0.357 0.888-0.276 3.294-1.124 3.294-4.195z"></path>
</symbol>
<symbol id="icon-gulp-brands1" viewBox="0 0 16 32">
<path d="M13.113 24.444l-0.881 1.538-0.287 5.012c0 0.556-1.769 1.006-3.944 1.006s-3.944-0.45-3.944-1.006l-0.362-4.962-0.931-1.587c2.575 1.081 7.875 1.044 10.35 0zM0.863 8.613l0.85 7.844c0.369-1.25 1.3-2.938 2.5-3.45 0.394-0.169 0.794-0.169 1.169 0.056 0.325 0.188 0.6 0.581 0.631 0.738 0.075 0.406-0.125 0.569-0.281 0.569-0.188 0-0.331-0.287-0.425-0.456-0.256-0.456-0.644-0.475-1.056-0.175-0.431 0.313-0.806 0.838-1.069 1.294-0.319 0.55-0.587 1.156-0.75 1.762-0.094 0.35-0.181 0.913-0.038 1.244 0.063 0.137 0.156 0.225 0.306 0.225 0.313 0 0.769-0.413 0.988-0.631 0.281-0.281 0.644-0.719 0.781-1l0.325-0.969c0.162-0.425 0.619-0.35 0.619 0 0 0.637-0.231 0.85-0.625 2.169-0.362 1.219-0.475 1.613-0.475 1.613-0.044 0.175-0.213 0.469-0.394 0.469-0.075 0-0.131-0.025-0.163-0.075-0.063-0.087-0.056-0.331-0.050-0.394 0.013-0.2 0.394-1.387 0.456-1.575-0.125 0.137-0.256 0.275-0.4 0.413-0.337 0.319-0.881 0.738-1.344 0.738-0.212 0-0.35-0.056-0.481-0.15l0.475 4.975c0.125 0.313 2.45 1.069 5.513 1.069 3.069 0 5.394-0.762 5.513-1.069l0.681-5.913c-0.356 0.325-0.769 0.725-1.225 0.925-0.338 0.144-1.088 0.238-1.088-0.356 0-0.325 0.569-0.925 0.9-1.344 0.088-0.106 0.294-0.369 0.294-0.506 0-0.181-0.375-0.137-0.731 0.156-0.2 0.169-0.387 0.394-0.544 0.606-0.269 0.375-0.412 0.7-0.531 0.969-0.387 0.887-0.256 0.538-0.569 1.375-0.313 0.831-0.262 0.738-0.325 0.875-0.056 0.119-0.137 0.219-0.25 0.281-0.119 0.063-0.281 0.056-0.381-0.019-0.056-0.038-0.081-0.119-0.081-0.231 0-0.056 0.006-0.113 0.019-0.169 0.094-0.381 0.488-1.131 0.938-2.144 0.1-0.231 0.063-0.163 0.050-0.144-0.387 0.375-0.681 0.556-0.9 0.656-0.363 0.163-0.813 0.163-0.906-0.256-0.006-0.025-0.006-0.050-0.012-0.075-0.738 0.575-1.519 0.731-1.25-0.506-0.287 0.512-0.787 0.931-1.4 0.931-0.256 0-0.444-0.087-0.537-0.319-0.144-0.344 0.081-0.931 0.287-1.488 0.106-0.281 0.25-0.619 0.444-1.012 0.1-0.213 0.263-0.338 0.475-0.281 0.037 0.012 0.069 0.025 0.1 0.044 0.162 0.113 0.1 0.281 0.019 0.45-0.237 0.469-0.444 0.813-0.581 1.3-0.056 0.206-0.125 0.563 0.094 0.563 0.15 0 0.294-0.050 0.431-0.15 0.287-0.212 0.519-0.531 0.694-0.844 0.125-0.225 0.275-0.519 0.35-0.769 0.031-0.106 0.069-0.206 0.113-0.3 0.069-0.156 0.162-0.319 0.325-0.319 0.081 0 0.15 0.031 0.2 0.094 0.106 0.138 0.081 0.281 0.025 0.431-0.125 0.35-0.294 0.663-0.431 1.044-0.081 0.219-0.169 0.5-0.169 0.731 0 0.212 0.231 0.163 0.425 0.075 0.15-0.069 0.3-0.175 0.425-0.281 0.075-0.306 0.056-0.238 1.65-4.262 0.081-0.206 0.231-0.294 0.381-0.294 0.075 0 0.137 0.025 0.2 0.069 0.106 0.081 0.106 0.256 0.063 0.387-0.044 0.119-0.037 0.081-0.281 0.656-0.325 0.756-0.537 1.3-0.825 1.994-0.119 0.288-0.481 1.181-0.544 1.394-0.037 0.137-0.081 0.363 0.063 0.363 0.338 0 1.206-0.819 1.444-1.063 0.012-0.019 0.031-0.025 0.056-0.038 0.037-0.119 0.075-0.231 0.106-0.344 0.088-0.238 0.169-0.512 0.331-0.706 0.050-0.063 0.106-0.1 0.169-0.1 0.175 0 0.262 0.075 0.262 0.25 0 0.069-0.044 0.319-0.069 0.387 0.088-0.094 0.181-0.188 0.281-0.281 0.938-0.869 1.606-0.425 1.606 0.012 0 0.462-0.556 1.106-0.863 1.462-0.1 0.119-0.306 0.337-0.313 0.4 0 0.081 0.056 0.113 0.137 0.113 0.125 0 0.4-0.219 0.5-0.294 0.313-0.244 0.738-0.619 1.037-0.881l0.925-8.55c-1.906 1.069-12.35 1.075-14.269 0.012zM15.219 8.081c0 1.313-14.45 1.313-14.45 0 0-0.55 3.237-0.994 7.225-0.994 0.563 0 1.113 0.006 1.644 0.025l0.787-3.044 3.831-4.031c0.088-0.087 0.363-0.013 0.619 0.219s0.412 0.494 0.331 0.581l-0.006 0.006-3.581 3.781-0.625 2.544c2.494 0.162 4.225 0.506 4.225 0.912zM10.881 8.369c0-0.050-0.056-0.094-0.156-0.131l-0.012 0.050c0 0.081-0.313 0.15-0.694 0.15s-0.694-0.069-0.694-0.15c0-0.006 0-0.012 0.006-0.019l0.012-0.044c-0.113 0.037-0.188 0.088-0.188 0.144 0 0.131 0.387 0.231 0.856 0.231 0.481 0.006 0.869-0.1 0.869-0.231z"></path>
</symbol>
<symbol id="icon-css3-alt-brands" viewBox="0 0 24 32">
<path d="M0 2l2.181 24.738 9.819 3.262 9.819-3.262 2.181-24.738h-24zM19.569 7l-0.3 2.956-7.225 3.088h6.969l-0.8 9.162-6.137 1.794-6.175-1.825-0.4-4.619h3.056l0.2 2.394 3.287 0.831 3.419-0.962 0.231-3.85-10.406-0.031-0.225-2.894 7.412-3.088h-7.681l-0.362-2.956h15.137z"></path>
</symbol>
<symbol id="icon-html5-brands" viewBox="0 0 24 32">
<path d="M0 2l2.181 24.738 9.787 3.262 9.85-3.262 2.181-24.738h-24zM19.262 9.994h-11.488l0.256 3.088h10.975l-0.85 9.275-6.119 1.688v0.019h-0.069l-6.169-1.706-0.375-4.738h2.981l0.219 2.381 3.344 0.906 3.356-0.906 0.375-3.887h-10.431l-0.8-9.1h15.069l-0.275 2.981z"></path>
</symbol>
<symbol id="icon-figma-brands" viewBox="0 0 24 32">
<path d="M17.313 10.669c2.946 0 5.334-2.388 5.334-5.334s-2.388-5.334-5.334-5.334v0h-10.669c-2.944 0-5.331 2.387-5.331 5.331s2.387 5.331 5.331 5.331v0c-2.946 0-5.334 2.388-5.334 5.334s2.388 5.334 5.334 5.334v0c-0.001 0-0.002 0-0.003 0-2.946 0-5.334 2.388-5.334 5.334s2.388 5.334 5.334 5.334c2.945 0 5.333-2.386 5.334-5.331v-16zM17.313 10.669c-2.944 0-5.331 2.387-5.331 5.331s2.387 5.331 5.331 5.331c2.944 0 5.331-2.387 5.331-5.331v0c-0-2.944-2.387-5.331-5.331-5.331h-0z"></path>
</symbol>
</defs>
</svg>
