<svg aria-hidden="true" style="position: absolute; width: 0; height: 0; overflow: hidden;" version="1.1" xmlns="http://www.w3.org/2000/svg" xmlns:xlink="http://www.w3.org/1999/xlink">
<defs>
<symbol id="icon-gulp-brands" viewBox="0 0 16 32">
<title>gulp-brands</title>
<path d="M13.113 24.444l-0.881 1.538-0.287 5.012c0 0.556-1.769 1.006-3.944 1.006s-3.944-0.45-3.944-1.006l-0.362-4.962-0.931-1.587c2.575 1.081 7.875 1.044 10.35 0zM0.863 8.613l0.85 7.844c0.369-1.25 1.3-2.938 2.5-3.45 0.394-0.169 0.794-0.169 1.169 0.056 0.325 0.188 0.6 0.581 0.631 0.738 0.075 0.406-0.125 0.569-0.281 0.569-0.188 0-0.331-0.287-0.425-0.456-0.256-0.456-0.644-0.475-1.056-0.175-0.431 0.313-0.806 0.838-1.069 1.294-0.319 0.55-0.587 1.156-0.75 1.762-0.094 0.35-0.181 0.913-0.038 1.244 0.063 0.137 0.156 0.225 0.306 0.225 0.313 0 0.769-0.413 0.988-0.631 0.281-0.281 0.644-0.719 0.781-1l0.325-0.969c0.162-0.425 0.619-0.35 0.619 0 0 0.637-0.231 0.85-0.625 2.169-0.362 1.219-0.475 1.613-0.475 1.613-0.044 0.175-0.213 0.469-0.394 0.469-0.075 0-0.131-0.025-0.163-0.075-0.063-0.087-0.056-0.331-0.050-0.394 0.013-0.2 0.394-1.387 0.456-1.575-0.125 0.137-0.256 0.275-0.4 0.413-0.337 0.319-0.881 0.738-1.344 0.738-0.212 0-0.35-0.056-0.481-0.15l0.475 4.975c0.125 0.313 2.45 1.069 5.513 1.069 3.069 0 5.394-0.762 5.513-1.069l0.681-5.913c-0.356 0.325-0.769 0.725-1.225 0.925-0.338 0.144-1.088 0.238-1.088-0.356 0-0.325 0.569-0.925 0.9-1.344 0.088-0.106 0.294-0.369 0.294-0.506 0-0.181-0.375-0.137-0.731 0.156-0.2 0.169-0.387 0.394-0.544 0.606-0.269 0.375-0.412 0.7-0.531 0.969-0.387 0.887-0.256 0.538-0.569 1.375-0.313 0.831-0.262 0.738-0.325 0.875-0.056 0.119-0.137 0.219-0.25 0.281-0.119 0.063-0.281 0.056-0.381-0.019-0.056-0.038-0.081-0.119-0.081-0.231 0-0.056 0.006-0.113 0.019-0.169 0.094-0.381 0.488-1.131 0.938-2.144 0.1-0.231 0.063-0.163 0.050-0.144-0.387 0.375-0.681 0.556-0.9 0.656-0.363 0.163-0.813 0.163-0.906-0.256-0.006-0.025-0.006-0.050-0.012-0.075-0.738 0.575-1.519 0.731-1.25-0.506-0.287 0.512-0.787 0.931-1.4 0.931-0.256 0-0.444-0.087-0.537-0.319-0.144-0.344 0.081-0.931 0.287-1.488 0.106-0.281 0.25-0.619 0.444-1.012 0.1-0.213 0.263-0.338 0.475-0.281 0.037 0.012 0.069 0.025 0.1 0.044 0.162 0.113 0.1 0.281 0.019 0.45-0.237 0.469-0.444 0.813-0.581 1.3-0.056 0.206-0.125 0.563 0.094 0.563 0.15 0 0.294-0.050 0.431-0.15 0.287-0.212 0.519-0.531 0.694-0.844 0.125-0.225 0.275-0.519 0.35-0.769 0.031-0.106 0.069-0.206 0.113-0.3 0.069-0.156 0.162-0.319 0.325-0.319 0.081 0 0.15 0.031 0.2 0.094 0.106 0.138 0.081 0.281 0.025 0.431-0.125 0.35-0.294 0.663-0.431 1.044-0.081 0.219-0.169 0.5-0.169 0.731 0 0.212 0.231 0.163 0.425 0.075 0.15-0.069 0.3-0.175 0.425-0.281 0.075-0.306 0.056-0.238 1.65-4.262 0.081-0.206 0.231-0.294 0.381-0.294 0.075 0 0.137 0.025 0.2 0.069 0.106 0.081 0.106 0.256 0.063 0.387-0.044 0.119-0.037 0.081-0.281 0.656-0.325 0.756-0.537 1.3-0.825 1.994-0.119 0.288-0.481 1.181-0.544 1.394-0.037 0.137-0.081 0.363 0.063 0.363 0.338 0 1.206-0.819 1.444-1.063 0.012-0.019 0.031-0.025 0.056-0.038 0.037-0.119 0.075-0.231 0.106-0.344 0.088-0.238 0.169-0.512 0.331-0.706 0.050-0.063 0.106-0.1 0.169-0.1 0.175 0 0.262 0.075 0.262 0.25 0 0.069-0.044 0.319-0.069 0.387 0.088-0.094 0.181-0.188 0.281-0.281 0.938-0.869 1.606-0.425 1.606 0.012 0 0.462-0.556 1.106-0.863 1.462-0.1 0.119-0.306 0.337-0.313 0.4 0 0.081 0.056 0.113 0.137 0.113 0.125 0 0.4-0.219 0.5-0.294 0.313-0.244 0.738-0.619 1.037-0.881l0.925-8.55c-1.906 1.069-12.35 1.075-14.269 0.012zM15.219 8.081c0 1.313-14.45 1.313-14.45 0 0-0.55 3.237-0.994 7.225-0.994 0.563 0 1.113 0.006 1.644 0.025l0.787-3.044 3.831-4.031c0.088-0.087 0.363-0.013 0.619 0.219s0.412 0.494 0.331 0.581l-0.006 0.006-3.581 3.781-0.625 2.544c2.494 0.162 4.225 0.506 4.225 0.912zM10.881 8.369c0-0.050-0.056-0.094-0.156-0.131l-0.012 0.050c0 0.081-0.313 0.15-0.694 0.15s-0.694-0.069-0.694-0.15c0-0.006 0-0.012 0.006-0.019l0.012-0.044c-0.113 0.037-0.188 0.088-0.188 0.144 0 0.131 0.387 0.231 0.856 0.231 0.481 0.006 0.869-0.1 0.869-0.231z"></path>
</symbol>
<symbol id="icon-js-square-brands" viewBox="0 0 28 32">
<title>js-square-brands</title>
<path d="M25 2h-22c-1.656 0-3 1.344-3 3v22c0 1.656 1.344 3 3 3h22c1.656 0 3-1.344 3-3v-22c0-1.656-1.344-3-3-3zM15.238 23.837c0 2.725-1.6 3.969-3.931 3.969-2.106 0-3.325-1.087-3.95-2.406l2.144-1.294c0.412 0.731 0.787 1.35 1.694 1.35 0.863 0 1.412-0.337 1.412-1.656v-8.944h2.631v8.981zM21.462 27.806c-2.444 0-4.025-1.163-4.794-2.688l2.144-1.238c0.563 0.919 1.3 1.6 2.594 1.6 1.087 0 1.788-0.544 1.788-1.3 0-0.9-0.712-1.219-1.919-1.75l-0.656-0.281c-1.9-0.806-3.156-1.825-3.156-3.969 0-1.975 1.506-3.475 3.85-3.475 1.675 0 2.875 0.581 3.738 2.106l-2.050 1.313c-0.45-0.806-0.938-1.125-1.694-1.125-0.769 0-1.256 0.488-1.256 1.125 0 0.788 0.488 1.106 1.619 1.6l0.656 0.281c2.238 0.956 3.494 1.938 3.494 4.137 0 2.363-1.863 3.663-4.356 3.663z"></path>
</symbol>
<symbol id="icon-bootstrap-brands" viewBox="0 0 28 32">
<title>bootstrap-brands</title>
<path d="M18.269 19.496c0 2.651-2.482 2.589-2.745 2.589h-5.056v-5.106h5.056c2.66 0 2.745 1.994 2.745 2.516zM15.134 14.925c0.042 0 2.403 0.063 2.403-2.269 0-0.97-0.219-2.242-2.402-2.242h-4.666v4.511h4.666zM28 6.667v18.666c-0.008 2.574-2.093 4.659-4.666 4.667h-18.667c-2.574-0.008-4.659-2.093-4.667-4.666v-18.667c0.008-2.574 2.093-4.659 4.666-4.667h18.667c2.574 0.008 4.659 2.093 4.667 4.666v0.001zM21.128 19.866c0-1.348-0.416-3.643-3.066-4.209v-0.046c1.432-0.611 2.334-1.766 2.334-3.477 0-0.438 0.125-4.049-4.85-4.049h-7.938v16.333c8.014 0 8.742 0.105 10.225-0.357 0.888-0.276 3.294-1.124 3.294-4.195z"></path>
</symbol>
<symbol id="icon-gulp-brands1" viewBox="0 0 16 32">
<title>gulp-brands1</title>
<path d="M13.113 24.444l-0.881 1.538-0.287 5.012c0 0.556-1.769 1.006-3.944 1.006s-3.944-0.45-3.944-1.006l-0.362-4.962-0.931-1.587c2.575 1.081 7.875 1.044 10.35 0zM0.863 8.613l0.85 7.844c0.369-1.25 1.3-2.938 2.5-3.45 0.394-0.169 0.794-0.169 1.169 0.056 0.325 0.188 0.6 0.581 0.631 0.738 0.075 0.406-0.125 0.569-0.281 0.569-0.188 0-0.331-0.287-0.425-0.456-0.256-0.456-0.644-0.475-1.056-0.175-0.431 0.313-0.806 0.838-1.069 1.294-0.319 0.55-0.587 1.156-0.75 1.762-0.094 0.35-0.181 0.913-0.038 1.244 0.063 0.137 0.156 0.225 0.306 0.225 0.313 0 0.769-0.413 0.988-0.631 0.281-0.281 0.644-0.719 0.781-1l0.325-0.969c0.162-0.425 0.619-0.35 0.619 0 0 0.637-0.231 0.85-0.625 2.169-0.362 1.219-0.475 1.613-0.475 1.613-0.044 0.175-0.213 0.469-0.394 0.469-0.075 0-0.131-0.025-0.163-0.075-0.063-0.087-0.056-0.331-0.050-0.394 0.013-0.2 0.394-1.387 0.456-1.575-0.125 0.137-0.256 0.275-0.4 0.413-0.337 0.319-0.881 0.738-1.344 0.738-0.212 0-0.35-0.056-0.481-0.15l0.475 4.975c0.125 0.313 2.45 1.069 5.513 1.069 3.069 0 5.394-0.762 5.513-1.069l0.681-5.913c-0.356 0.325-0.769 0.725-1.225 0.925-0.338 0.144-1.088 0.238-1.088-0.356 0-0.325 0.569-0.925 0.9-1.344 0.088-0.106 0.294-0.369 0.294-0.506 0-0.181-0.375-0.137-0.731 0.156-0.2 0.169-0.387 0.394-0.544 0.606-0.269 0.375-0.412 0.7-0.531 0.969-0.387 0.887-0.256 0.538-0.569 1.375-0.313 0.831-0.262 0.738-0.325 0.875-0.056 0.119-0.137 0.219-0.25 0.281-0.119 0.063-0.281 0.056-0.381-0.019-0.056-0.038-0.081-0.119-0.081-0.231 0-0.056 0.006-0.113 0.019-0.169 0.094-0.381 0.488-1.131 0.938-2.144 0.1-0.231 0.063-0.163 0.050-0.144-0.387 0.375-0.681 0.556-0.9 0.656-0.363 0.163-0.813 0.163-0.906-0.256-0.006-0.025-0.006-0.050-0.012-0.075-0.738 0.575-1.519 0.731-1.25-0.506-0.287 0.512-0.787 0.931-1.4 0.931-0.256 0-0.444-0.087-0.537-0.319-0.144-0.344 0.081-0.931 0.287-1.488 0.106-0.281 0.25-0.619 0.444-1.012 0.1-0.213 0.263-0.338 0.475-0.281 0.037 0.012 0.069 0.025 0.1 0.044 0.162 0.113 0.1 0.281 0.019 0.45-0.237 0.469-0.444 0.813-0.581 1.3-0.056 0.206-0.125 0.563 0.094 0.563 0.15 0 0.294-0.050 0.431-0.15 0.287-0.212 0.519-0.531 0.694-0.844 0.125-0.225 0.275-0.519 0.35-0.769 0.031-0.106 0.069-0.206 0.113-0.3 0.069-0.156 0.162-0.319 0.325-0.319 0.081 0 0.15 0.031 0.2 0.094 0.106 0.138 0.081 0.281 0.025 0.431-0.125 0.35-0.294 0.663-0.431 1.044-0.081 0.219-0.169 0.5-0.169 0.731 0 0.212 0.231 0.163 0.425 0.075 0.15-0.069 0.3-0.175 0.425-0.281 0.075-0.306 0.056-0.238 1.65-4.262 0.081-0.206 0.231-0.294 0.381-0.294 0.075 0 0.137 0.025 0.2 0.069 0.106 0.081 0.106 0.256 0.063 0.387-0.044 0.119-0.037 0.081-0.281 0.656-0.325 0.756-0.537 1.3-0.825 1.994-0.119 0.288-0.481 1.181-0.544 1.394-0.037 0.137-0.081 0.363 0.063 0.363 0.338 0 1.206-0.819 1.444-1.063 0.012-0.019 0.031-0.025 0.056-0.038 0.037-0.119 0.075-0.231 0.106-0.344 0.088-0.238 0.169-0.512 0.331-0.706 0.050-0.063 0.106-0.1 0.169-0.1 0.175 0 0.262 0.075 0.262 0.25 0 0.069-0.044 0.319-0.069 0.387 0.088-0.094 0.181-0.188 0.281-0.281 0.938-0.869 1.606-0.425 1.606 0.012 0 0.462-0.556 1.106-0.863 1.462-0.1 0.119-0.306 0.337-0.313 0.4 0 0.081 0.056 0.113 0.137 0.113 0.125 0 0.4-0.219 0.5-0.294 0.313-0.244 0.738-0.619 1.037-0.881l0.925-8.55c-1.906 1.069-12.35 1.075-14.269 0.012zM15.219 8.081c0 1.313-14.45 1.313-14.45 0 0-0.55 3.237-0.994 7.225-0.994 0.563 0 1.113 0.006 1.644 0.025l0.787-3.044 3.831-4.031c0.088-0.087 0.363-0.013 0.619 0.219s0.412 0.494 0.331 0.581l-0.006 0.006-3.581 3.781-0.625 2.544c2.494 0.162 4.225 0.506 4.225 0.912zM10.881 8.369c0-0.050-0.056-0.094-0.156-0.131l-0.012 0.050c0 0.081-0.313 0.15-0.694 0.15s-0.694-0.069-0.694-0.15c0-0.006 0-0.012 0.006-0.019l0.012-0.044c-0.113 0.037-0.188 0.088-0.188 0.144 0 0.131 0.387 0.231 0.856 0.231 0.481 0.006 0.869-0.1 0.869-0.231z"></path>
</symbol>
<symbol id="icon-css3-alt-brands" viewBox="0 0 24 32">
<title>css3-alt-brands</title>
<path d="M0 2l2.181 24.738 9.819 3.262 9.819-3.262 2.181-24.738h-24zM19.569 7l-0.3 2.956-7.225 3.088h6.969l-0.8 9.162-6.137 1.794-6.175-1.825-0.4-4.619h3.056l0.2 2.394 3.287 0.831 3.419-0.962 0.231-3.85-10.406-0.031-0.225-2.894 7.412-3.088h-7.681l-0.362-2.956h15.137z"></path>
</symbol>
<symbol id="icon-html5-brands" viewBox="0 0 24 32">
<title>html5-brands</title>
<path d="M0 2l2.181 24.738 9.787 3.262 9.85-3.262 2.181-24.738h-24zM19.262 9.994h-11.488l0.256 3.088h10.975l-0.85 9.275-6.119 1.688v0.019h-0.069l-6.169-1.706-0.375-4.738h2.981l0.219 2.381 3.344 0.906 3.356-0.906 0.375-3.887h-10.431l-0.8-9.1h15.069l-0.275 2.981z"></path>
</symbol>
<symbol id="icon-figma-brands" viewBox="0 0 24 32">
<title>figma-brands</title>
<path d="M17.313 10.669c2.946 0 5.334-2.388 5.334-5.334s-2.388-5.334-5.334-5.334v0h-10.669c-2.944 0-5.331 2.387-5.331 5.331s2.387 5.331 5.331 5.331v0c-2.946 0-5.334 2.388-5.334 5.334s2.388 5.334 5.334 5.334v0c-0.001 0-0.002 0-0.003 0-2.946 0-5.334 2.388-5.334 5.334s2.388 5.334 5.334 5.334c2.945 0 5.333-2.386 5.334-5.331v-16zM17.313 10.669c-2.944 0-5.331 2.387-5.331 5.331s2.387 5.331 5.331 5.331c2.944 0 5.331-2.387 5.331-5.331v0c-0-2.944-2.387-5.331-5.331-5.331h-0z"></path>
</symbol>
</defs>
</svg>
