<svg width="1440" height="900" viewBox="0 0 1440 900" fill="none" xmlns="http://www.w3.org/2000/svg">
<rect width="1440" height="900" fill="white"/>
<path d="M946.479 21.5755C946.634 20.9278 947.556 20.9278 947.711 21.5755L949.019 27.0491C949.114 27.4469 948.812 27.8291 948.403 27.8291H945.787C945.378 27.8291 945.076 27.4469 945.171 27.0491L946.479 21.5755Z" fill="#E0E2E5"/>
<path d="M947.647 36.4245C947.492 37.0722 946.571 37.0722 946.416 36.4245L945.108 30.9509C945.013 30.5531 945.314 30.1709 945.723 30.1709L948.34 30.1709C948.749 30.1709 949.051 30.5531 948.955 30.9509L947.647 36.4245Z" fill="#E0E2E5"/>
<path d="M939.576 29.6472C938.928 29.4924 938.928 28.5709 939.576 28.4161L945.049 27.1078C945.447 27.0127 945.829 27.3144 945.829 27.7234L945.829 30.3399C945.829 30.7489 945.447 31.0505 945.049 30.9555L939.576 29.6472Z" fill="#E0E2E5"/>
<path d="M954.488 28.4161C955.135 28.5709 955.135 29.4924 954.488 29.6472L949.014 30.9555C948.616 31.0506 948.234 30.7489 948.234 30.3399L948.234 27.7234C948.234 27.3144 948.616 27.0127 949.014 27.1078L954.488 28.4161Z" fill="#E0E2E5"/>
<rect x="945.418" y="27.481" width="3.10127" height="3.29114" fill="#E0E2E5"/>
<path d="M58.2843 307.338C58.4849 306.498 59.6791 306.498 59.8797 307.338L61.5751 314.431C61.6983 314.946 61.3074 315.442 60.7773 315.442H57.3866C56.8566 315.442 56.4657 314.946 56.5889 314.431L58.2843 307.338Z" fill="#E0E2E5"/>
<path d="M59.7977 326.58C59.5971 327.42 58.4029 327.42 58.2023 326.58L56.5069 319.487C56.3837 318.972 56.7746 318.476 57.3046 318.476L60.6953 318.476C61.2254 318.476 61.6163 318.972 61.4931 319.487L59.7977 326.58Z" fill="#E0E2E5"/>
<path d="M49.3376 317.798C48.4982 317.597 48.4982 316.403 49.3376 316.202L56.4308 314.507C56.9464 314.384 57.4416 314.775 57.4416 315.305L57.4416 318.695C57.4416 319.225 56.9464 319.616 56.4308 319.493L49.3376 317.798Z" fill="#E0E2E5"/>
<path d="M68.6624 316.202C69.5018 316.403 69.5018 317.597 68.6624 317.798L61.5692 319.493C61.0536 319.616 60.5584 319.225 60.5584 318.695L60.5584 315.305C60.5584 314.775 61.0536 314.384 61.5692 314.507L68.6624 316.202Z" fill="#E0E2E5"/>
<rect x="56.9085" y="314.991" width="4.01893" height="4.26498" fill="#E0E2E5"/>
<path d="M1261.98 217.439C1262.12 216.826 1263 216.826 1263.14 217.439L1264.38 222.622C1264.47 222.999 1264.19 223.361 1263.8 223.361H1261.32C1260.93 223.361 1260.65 222.999 1260.74 222.622L1261.98 217.439Z" fill="#E0E2E5"/>
<path d="M1263.08 231.501C1262.94 232.114 1262.06 232.114 1261.92 231.501L1260.68 226.318C1260.59 225.941 1260.87 225.579 1261.26 225.579L1263.74 225.579C1264.13 225.579 1264.41 225.941 1264.32 226.318L1263.08 231.501Z" fill="#E0E2E5"/>
<path d="M1255.44 225.083C1254.83 224.936 1254.83 224.064 1255.44 223.917L1260.62 222.678C1261 222.588 1261.36 222.874 1261.36 223.261L1261.36 225.739C1261.36 226.126 1261 226.412 1260.62 226.322L1255.44 225.083Z" fill="#E0E2E5"/>
<path d="M1269.56 223.917C1270.17 224.064 1270.17 224.936 1269.56 225.083L1264.38 226.322C1264 226.412 1263.64 226.126 1263.64 225.739L1263.64 223.261C1263.64 222.874 1264 222.588 1264.38 222.678L1269.56 223.917Z" fill="#E0E2E5"/>
<rect x="1260.97" y="223.032" width="2.93691" height="3.11672" fill="#E0E2E5"/>
<path d="M799.482 182.75C799.767 181.555 801.466 181.555 801.752 182.75L804.165 192.844C804.34 193.578 803.784 194.282 803.029 194.282H798.204C797.45 194.282 796.894 193.577 797.069 192.844L799.482 182.75Z" fill="#E0E2E5"/>
<path d="M801.635 210.134C801.35 211.328 799.65 211.328 799.365 210.134L796.952 200.039C796.777 199.306 797.333 198.601 798.087 198.601L802.913 198.601C803.667 198.601 804.223 199.306 804.048 200.039L801.635 210.134Z" fill="#E0E2E5"/>
<path d="M786.75 197.635C785.555 197.35 785.555 195.65 786.75 195.365L796.844 192.952C797.578 192.777 798.282 193.333 798.282 194.087L798.282 198.913C798.282 199.667 797.577 200.223 796.844 200.048L786.75 197.635Z" fill="#E0E2E5"/>
<path d="M814.25 195.365C815.445 195.65 815.445 197.35 814.25 197.635L804.156 200.048C803.422 200.223 802.718 199.667 802.718 198.913L802.718 194.087C802.718 193.333 803.423 192.777 804.156 192.952L814.25 195.365Z" fill="#E0E2E5"/>
<rect x="797.524" y="193.64" width="5.71924" height="6.0694" fill="#E0E2E5"/>
<path d="M663.977 388.439C664.124 387.826 664.996 387.826 665.143 388.439L666.382 393.623C666.472 393.999 666.186 394.361 665.799 394.361H663.321C662.934 394.361 662.648 393.999 662.738 393.623L663.977 388.439Z" fill="#E0E2E5"/>
<path d="M665.083 402.501C664.936 403.114 664.064 403.114 663.917 402.501L662.678 397.318C662.588 396.941 662.874 396.579 663.261 396.579L665.739 396.579C666.126 396.579 666.412 396.941 666.322 397.318L665.083 402.501Z" fill="#E0E2E5"/>
<path d="M657.439 396.083C656.826 395.936 656.826 395.064 657.439 394.917L662.622 393.678C662.999 393.588 663.361 393.874 663.361 394.261L663.361 396.739C663.361 397.126 662.999 397.412 662.622 397.322L657.439 396.083Z" fill="#E0E2E5"/>
<path d="M671.561 394.917C672.174 395.064 672.174 395.936 671.561 396.083L666.378 397.322C666.001 397.412 665.639 397.126 665.639 396.739L665.639 394.261C665.639 393.874 666.001 393.588 666.378 393.678L671.561 394.917Z" fill="#E0E2E5"/>
<rect x="662.972" y="394.032" width="2.93691" height="3.11672" fill="#E0E2E5"/>
<path d="M934.057 331.189C934.189 330.639 934.972 330.639 935.104 331.189L936.216 335.842C936.297 336.18 936.04 336.505 935.693 336.505H933.469C933.121 336.505 932.865 336.18 932.945 335.842L934.057 331.189Z" fill="#E0E2E5"/>
<path d="M935.05 343.811C934.919 344.361 934.135 344.361 934.004 343.811L932.892 339.158C932.811 338.82 933.067 338.495 933.415 338.495L935.639 338.495C935.987 338.495 936.243 338.82 936.162 339.158L935.05 343.811Z" fill="#E0E2E5"/>
<path d="M928.189 338.05C927.639 337.919 927.639 337.135 928.189 337.004L932.842 335.892C933.18 335.811 933.505 336.067 933.505 336.415L933.505 338.639C933.505 338.987 933.18 339.243 932.842 339.162L928.189 338.05Z" fill="#E0E2E5"/>
<path d="M940.865 337.004C941.415 337.135 941.415 337.919 940.865 338.05L936.212 339.162C935.874 339.243 935.549 338.987 935.549 338.639L935.549 336.415C935.549 336.067 935.874 335.811 936.212 335.892L940.865 337.004Z" fill="#E0E2E5"/>
<rect x="933.155" y="336.209" width="2.63608" height="2.79747" fill="#E0E2E5"/>
<path d="M906.481 808.75C906.767 807.555 908.466 807.555 908.752 808.75L911.165 818.844C911.34 819.578 910.784 820.282 910.029 820.282H905.204C904.45 820.282 903.894 819.577 904.069 818.844L906.481 808.75Z" fill="#E0E2E5"/>
<path d="M908.635 836.134C908.35 837.328 906.65 837.328 906.365 836.134L903.952 826.039C903.777 825.306 904.333 824.601 905.087 824.601L909.913 824.601C910.667 824.601 911.223 825.306 911.048 826.039L908.635 836.134Z" fill="#E0E2E5"/>
<path d="M893.75 823.635C892.555 823.35 892.555 821.65 893.75 821.365L903.844 818.952C904.578 818.777 905.282 819.333 905.282 820.087L905.282 824.913C905.282 825.667 904.577 826.223 903.844 826.048L893.75 823.635Z" fill="#E0E2E5"/>
<path d="M921.25 821.365C922.445 821.65 922.445 823.35 921.25 823.635L911.156 826.048C910.422 826.223 909.718 825.667 909.718 824.913L909.718 820.087C909.718 819.333 910.423 818.777 911.156 818.952L921.25 821.365Z" fill="#E0E2E5"/>
<rect x="904.524" y="819.64" width="5.71924" height="6.0694" fill="#E0E2E5"/>
<path d="M371.693 609.992C371.933 608.988 373.361 608.988 373.601 609.992L375.629 618.476C375.776 619.093 375.309 619.685 374.675 619.685H370.619C369.985 619.685 369.518 619.093 369.665 618.476L371.693 609.992Z" fill="#E0E2E5"/>
<path d="M373.503 633.008C373.263 634.012 371.835 634.012 371.595 633.008L369.567 624.524C369.42 623.907 369.887 623.315 370.521 623.315L374.577 623.315C375.211 623.315 375.678 623.907 375.531 624.524L373.503 633.008Z" fill="#E0E2E5"/>
<path d="M360.992 622.503C359.988 622.263 359.988 620.835 360.992 620.595L369.476 618.567C370.093 618.42 370.685 618.887 370.685 619.521L370.685 623.577C370.685 624.211 370.093 624.678 369.476 624.531L360.992 622.503Z" fill="#E0E2E5"/>
<path d="M384.106 620.595C385.11 620.835 385.11 622.263 384.106 622.503L375.622 624.531C375.005 624.678 374.413 624.211 374.413 623.577L374.413 619.521C374.413 618.887 375.005 618.42 375.622 618.567L384.106 620.595Z" fill="#E0E2E5"/>
<rect x="370.047" y="619.146" width="4.80696" height="5.10127" fill="#E0E2E5"/>
<path d="M327.977 229.439C328.124 228.826 328.996 228.826 329.143 229.439L330.382 234.622C330.472 234.999 330.186 235.361 329.799 235.361H327.321C326.934 235.361 326.648 234.999 326.738 234.622L327.977 229.439Z" fill="#E0E2E5"/>
<path d="M329.083 243.501C328.936 244.114 328.064 244.114 327.917 243.501L326.678 238.318C326.588 237.941 326.874 237.579 327.261 237.579L329.739 237.579C330.126 237.579 330.412 237.941 330.322 238.318L329.083 243.501Z" fill="#E0E2E5"/>
<path d="M321.439 237.083C320.826 236.936 320.826 236.064 321.439 235.917L326.622 234.678C326.999 234.588 327.361 234.874 327.361 235.261L327.361 237.739C327.361 238.126 326.999 238.412 326.622 238.322L321.439 237.083Z" fill="#E0E2E5"/>
<path d="M335.561 235.917C336.174 236.064 336.174 236.936 335.561 237.083L330.378 238.322C330.001 238.412 329.639 238.126 329.639 237.739L329.639 235.261C329.639 234.874 330.001 234.588 330.378 234.678L335.561 235.917Z" fill="#E0E2E5"/>
<rect x="326.972" y="235.032" width="2.93691" height="3.11672" fill="#E0E2E5"/>
<path d="M200.261 128.777C200.608 127.324 202.675 127.324 203.023 128.777L205.957 141.053C206.17 141.946 205.494 142.803 204.576 142.803H198.708C197.79 142.803 197.114 141.946 197.327 141.053L200.261 128.777Z" fill="#E0E2E5"/>
<path d="M202.881 162.081C202.533 163.534 200.467 163.534 200.119 162.081L197.185 149.805C196.972 148.912 197.648 148.055 198.566 148.055L204.434 148.055C205.352 148.055 206.028 148.912 205.815 149.805L202.881 162.081Z" fill="#E0E2E5"/>
<path d="M184.777 146.881C183.324 146.533 183.324 144.467 184.777 144.119L197.053 141.185C197.946 140.972 198.803 141.648 198.803 142.566L198.803 148.434C198.803 149.352 197.946 150.028 197.053 149.815L184.777 146.881Z" fill="#E0E2E5"/>
<path d="M218.223 144.119C219.676 144.467 219.676 146.533 218.223 146.881L205.947 149.815C205.054 150.028 204.197 149.352 204.197 148.434L204.197 142.566C204.197 141.648 205.054 140.972 205.947 141.185L218.223 144.119Z" fill="#E0E2E5"/>
<rect x="197.88" y="142.022" width="6.95584" height="7.3817" fill="#E0E2E5"/>
<path d="M255.812 705.209C256.005 704.402 257.153 704.402 257.346 705.209L258.976 712.03C259.095 712.525 258.719 713.002 258.209 713.002H254.949C254.439 713.002 254.063 712.525 254.182 712.03L255.812 705.209Z" fill="#E0E2E5"/>
<path d="M257.267 723.712C257.074 724.519 255.926 724.519 255.733 723.712L254.103 716.892C253.984 716.396 254.36 715.92 254.87 715.92L258.13 715.92C258.64 715.92 259.016 716.396 258.897 716.892L257.267 723.712Z" fill="#E0E2E5"/>
<path d="M247.209 715.267C246.402 715.074 246.402 713.926 247.209 713.733L254.03 712.103C254.525 711.984 255.002 712.36 255.002 712.87L255.002 716.13C255.002 716.64 254.525 717.016 254.03 716.897L247.209 715.267Z" fill="#E0E2E5"/>
<path d="M265.791 713.733C266.598 713.926 266.598 715.074 265.791 715.267L258.97 716.897C258.475 717.016 257.998 716.64 257.998 716.13L257.998 712.87C257.998 712.36 258.475 711.984 258.97 712.103L265.791 713.733Z" fill="#E0E2E5"/>
<rect x="254.489" y="712.568" width="3.86435" height="4.10095" fill="#E0E2E5"/>
<path d="M560.005 776.447C560.152 775.831 561.028 775.831 561.175 776.447L562.418 781.647C562.508 782.025 562.222 782.388 561.833 782.388H559.347C558.959 782.388 558.672 782.025 558.763 781.647L560.005 776.447Z" fill="#E0E2E5"/>
<path d="M561.115 790.553C560.968 791.169 560.092 791.169 559.945 790.553L558.702 785.353C558.612 784.975 558.899 784.612 559.287 784.612L561.773 784.612C562.161 784.612 562.448 784.975 562.358 785.353L561.115 790.553Z" fill="#E0E2E5"/>
<path d="M553.447 784.115C552.831 783.968 552.831 783.092 553.447 782.945L558.647 781.702C559.025 781.612 559.388 781.899 559.388 782.287L559.388 784.773C559.388 785.161 559.025 785.448 558.647 785.358L553.447 784.115Z" fill="#E0E2E5"/>
<path d="M567.613 782.945C568.229 783.092 568.229 783.968 567.613 784.115L562.414 785.358C562.036 785.448 561.672 785.162 561.672 784.773L561.672 782.287C561.672 781.899 562.036 781.612 562.414 781.702L567.613 782.945Z" fill="#E0E2E5"/>
<rect x="558.997" y="782.057" width="2.9462" height="3.12658" fill="#E0E2E5"/>
<path d="M1021.98 589.439C1022.12 588.826 1023 588.826 1023.14 589.439L1024.38 594.622C1024.47 594.999 1024.19 595.361 1023.8 595.361H1021.32C1020.93 595.361 1020.65 594.999 1020.74 594.622L1021.98 589.439Z" fill="#E0E2E5"/>
<path d="M1023.08 603.501C1022.94 604.114 1022.06 604.114 1021.92 603.501L1020.68 598.318C1020.59 597.941 1020.87 597.579 1021.26 597.579L1023.74 597.579C1024.13 597.579 1024.41 597.941 1024.32 598.318L1023.08 603.501Z" fill="#E0E2E5"/>
<path d="M1015.44 597.083C1014.83 596.936 1014.83 596.064 1015.44 595.917L1020.62 594.678C1021 594.588 1021.36 594.874 1021.36 595.261L1021.36 597.739C1021.36 598.126 1021 598.412 1020.62 598.322L1015.44 597.083Z" fill="#E0E2E5"/>
<path d="M1029.56 595.917C1030.17 596.064 1030.17 596.936 1029.56 597.083L1024.38 598.322C1024 598.412 1023.64 598.126 1023.64 597.739L1023.64 595.261C1023.64 594.874 1024 594.588 1024.38 594.678L1029.56 595.917Z" fill="#E0E2E5"/>
<rect x="1020.97" y="595.032" width="2.93691" height="3.11672" fill="#E0E2E5"/>
<path d="M1232.91 98.4086C1233.23 97.0484 1235.17 97.0484 1235.49 98.4086L1238.24 109.903C1238.44 110.739 1237.81 111.541 1236.95 111.541H1231.45C1230.59 111.541 1229.96 110.739 1230.16 109.903L1232.91 98.4086Z" fill="#E0E2E5"/>
<path d="M1235.36 129.591C1235.03 130.952 1233.1 130.952 1232.77 129.591L1230.03 118.097C1229.83 117.261 1230.46 116.459 1231.32 116.459L1236.81 116.459C1237.67 116.459 1238.31 117.261 1238.11 118.097L1235.36 129.591Z" fill="#E0E2E5"/>
<path d="M1218.41 115.359C1217.05 115.034 1217.05 113.099 1218.41 112.774L1229.9 110.026C1230.74 109.827 1231.54 110.46 1231.54 111.319L1231.54 116.814C1231.54 117.673 1230.74 118.306 1229.9 118.106L1218.41 115.359Z" fill="#E0E2E5"/>
<path d="M1249.72 112.774C1251.08 113.099 1251.08 115.034 1249.72 115.359L1238.23 118.106C1237.39 118.306 1236.59 117.673 1236.59 116.814L1236.59 111.319C1236.59 110.46 1237.39 109.827 1238.23 110.026L1249.72 112.774Z" fill="#E0E2E5"/>
<rect x="1230.68" y="110.81" width="6.51266" height="6.91139" fill="#E0E2E5"/>
<path d="M1215.12 506.108C1215.37 505.075 1216.84 505.075 1217.08 506.108L1219.17 514.838C1219.32 515.472 1218.84 516.082 1218.19 516.082H1214.01C1213.36 516.082 1212.88 515.472 1213.03 514.838L1215.12 506.108Z" fill="#E0E2E5"/>
<path d="M1216.98 529.791C1216.73 530.824 1215.27 530.824 1215.02 529.791L1212.93 521.061C1212.78 520.427 1213.26 519.817 1213.91 519.817L1218.09 519.817C1218.74 519.817 1219.22 520.427 1219.07 521.061L1216.98 529.791Z" fill="#E0E2E5"/>
<path d="M1204.11 518.982C1203.07 518.735 1203.07 517.265 1204.11 517.018L1212.84 514.932C1213.47 514.78 1214.08 515.261 1214.08 515.913L1214.08 520.087C1214.08 520.739 1213.47 521.22 1212.84 521.068L1204.11 518.982Z" fill="#E0E2E5"/>
<path d="M1227.89 517.018C1228.93 517.265 1228.93 518.735 1227.89 518.982L1219.16 521.068C1218.53 521.22 1217.92 520.739 1217.92 520.087L1217.92 515.913C1217.92 515.261 1218.53 514.78 1219.16 514.932L1227.89 517.018Z" fill="#E0E2E5"/>
<rect x="1213.43" y="515.527" width="4.94637" height="5.24921" fill="#E0E2E5"/>
<path d="M1381.39 639.824C1381.56 639.114 1382.57 639.114 1382.74 639.824L1384.18 645.826C1384.28 646.262 1383.95 646.681 1383.5 646.681H1380.63C1380.19 646.681 1379.86 646.262 1379.96 645.826L1381.39 639.824Z" fill="#E0E2E5"/>
<path d="M1382.68 656.106C1382.51 656.817 1381.49 656.817 1381.33 656.106L1379.89 650.105C1379.79 649.668 1380.12 649.249 1380.57 649.249L1383.43 649.249C1383.88 649.249 1384.21 649.668 1384.11 650.105L1382.68 656.106Z" fill="#E0E2E5"/>
<path d="M1373.82 648.675C1373.11 648.505 1373.11 647.495 1373.82 647.325L1379.83 645.89C1380.26 645.786 1380.68 646.117 1380.68 646.565L1380.68 649.435C1380.68 649.883 1380.26 650.214 1379.83 650.11L1373.82 648.675Z" fill="#E0E2E5"/>
<path d="M1390.18 647.325C1390.89 647.495 1390.89 648.505 1390.18 648.675L1384.17 650.11C1383.74 650.214 1383.32 649.883 1383.32 649.435L1383.32 646.565C1383.32 646.117 1383.74 645.786 1384.17 645.89L1390.18 647.325Z" fill="#E0E2E5"/>
<rect x="1380.23" y="646.3" width="3.40063" height="3.60883" fill="#E0E2E5"/>
<path d="M1320.5 852.311C1320.64 851.73 1321.47 851.73 1321.61 852.311L1322.78 857.221C1322.87 857.578 1322.6 857.921 1322.23 857.921H1319.88C1319.52 857.921 1319.25 857.578 1319.33 857.221L1320.5 852.311Z" fill="#E0E2E5"/>
<path d="M1321.55 865.633C1321.41 866.214 1320.59 866.214 1320.45 865.633L1319.27 860.722C1319.19 860.365 1319.46 860.022 1319.83 860.022L1322.17 860.022C1322.54 860.022 1322.81 860.365 1322.73 860.722L1321.55 865.633Z" fill="#E0E2E5"/>
<path d="M1314.31 859.552C1313.73 859.413 1313.73 858.587 1314.31 858.448L1319.22 857.274C1319.58 857.189 1319.92 857.459 1319.92 857.826L1319.92 860.174C1319.92 860.541 1319.58 860.811 1319.22 860.726L1314.31 859.552Z" fill="#E0E2E5"/>
<path d="M1327.69 858.448C1328.27 858.587 1328.27 859.413 1327.69 859.552L1322.78 860.726C1322.42 860.811 1322.08 860.541 1322.08 860.174L1322.08 857.826C1322.08 857.459 1322.42 857.189 1322.78 857.274L1327.69 858.448Z" fill="#E0E2E5"/>
<rect x="1319.55" y="857.609" width="2.78233" height="2.95268" fill="#E0E2E5"/>
<path d="M168.725 531.284C168.802 530.961 169.261 530.961 169.338 531.284L169.99 534.012C170.038 534.21 169.887 534.401 169.684 534.401H168.379C168.176 534.401 168.025 534.21 168.073 534.012L168.725 531.284Z" fill="#E0E2E5"/>
<path d="M169.307 538.685C169.23 539.008 168.77 539.008 168.693 538.685L168.041 535.957C167.994 535.758 168.144 535.568 168.348 535.568L169.652 535.568C169.856 535.568 170.006 535.758 169.959 535.957L169.307 538.685Z" fill="#E0E2E5"/>
<path d="M165.284 535.307C164.961 535.23 164.961 534.77 165.284 534.693L168.012 534.041C168.21 533.994 168.401 534.144 168.401 534.348L168.401 535.652C168.401 535.856 168.21 536.006 168.012 535.959L165.284 535.307Z" fill="#E0E2E5"/>
<path d="M172.716 534.693C173.039 534.77 173.039 535.23 172.716 535.307L169.988 535.959C169.79 536.006 169.599 535.856 169.599 535.652L169.599 534.348C169.599 534.144 169.79 533.994 169.988 534.041L172.716 534.693Z" fill="#E0E2E5"/>
<rect x="168.196" y="534.227" width="1.54574" height="1.64038" fill="#E0E2E5"/>
<path d="M505.307 472.079C505.361 472.305 505.683 472.305 505.737 472.079L506.193 470.17C506.226 470.031 506.121 469.897 505.979 469.897H505.066C504.923 469.897 504.818 470.031 504.851 470.17L505.307 472.079Z" fill="#E0E2E5"/>
<path d="M505.715 466.899C505.661 466.673 505.339 466.673 505.285 466.899L504.829 468.808C504.796 468.947 504.901 469.08 505.044 469.08L505.956 469.08C506.099 469.08 506.204 468.947 506.171 468.808L505.715 466.899Z" fill="#E0E2E5"/>
<path d="M502.899 469.263C502.673 469.317 502.673 469.639 502.899 469.693L504.808 470.149C504.947 470.182 505.08 470.077 505.08 469.934L505.08 469.021C505.08 468.879 504.947 468.774 504.808 468.807L502.899 469.263Z" fill="#E0E2E5"/>
<path d="M508.101 469.693C508.327 469.639 508.327 469.317 508.101 469.263L506.192 468.807C506.053 468.774 505.92 468.879 505.92 469.021L505.92 469.934C505.92 470.077 506.053 470.182 506.192 470.149L508.101 469.693Z" fill="#E0E2E5"/>
<rect width="1.08202" height="1.14827" transform="matrix(1 0 0 -1 504.937 470.019)" fill="#E0E2E5"/>
<path d="M652.252 248.155C652.322 247.865 652.735 247.865 652.805 248.155L653.391 250.611C653.434 250.789 653.299 250.961 653.115 250.961H651.942C651.758 250.961 651.623 250.789 651.665 250.611L652.252 248.155Z" fill="#E0E2E5"/>
<path d="M652.776 254.816C652.707 255.107 652.293 255.107 652.224 254.816L651.637 252.361C651.594 252.182 651.73 252.011 651.913 252.011L653.087 252.011C653.27 252.011 653.406 252.182 653.363 252.361L652.776 254.816Z" fill="#E0E2E5"/>
<path d="M649.155 251.776C648.865 251.707 648.865 251.293 649.155 251.224L651.611 250.637C651.789 250.594 651.961 250.73 651.961 250.913L651.961 252.087C651.961 252.27 651.789 252.406 651.611 252.363L649.155 251.776Z" fill="#E0E2E5"/>
<path d="M655.845 251.224C656.135 251.293 656.135 251.707 655.845 251.776L653.389 252.363C653.211 252.406 653.039 252.27 653.039 252.087L653.039 250.913C653.039 250.73 653.211 250.594 653.389 250.637L655.845 251.224Z" fill="#E0E2E5"/>
<rect x="651.776" y="250.804" width="1.39117" height="1.47634" fill="#E0E2E5"/>
<path d="M989.78 144.027C989.842 143.769 990.209 143.769 990.271 144.027L990.792 146.209C990.83 146.368 990.71 146.521 990.547 146.521H989.504C989.34 146.521 989.22 146.368 989.258 146.209L989.78 144.027Z" fill="#E0E2E5"/>
<path d="M990.245 149.948C990.184 150.206 989.816 150.206 989.755 149.948L989.233 147.765C989.195 147.607 989.315 147.454 989.478 147.454L990.522 147.454C990.685 147.454 990.805 147.607 990.767 147.765L990.245 149.948Z" fill="#E0E2E5"/>
<path d="M987.027 147.245C986.769 147.184 986.769 146.816 987.027 146.755L989.209 146.233C989.368 146.195 989.521 146.315 989.521 146.478L989.521 147.522C989.521 147.685 989.368 147.805 989.209 147.767L987.027 147.245Z" fill="#E0E2E5"/>
<path d="M992.973 146.755C993.231 146.816 993.231 147.184 992.973 147.245L990.791 147.767C990.632 147.805 990.479 147.685 990.479 147.522L990.479 146.478C990.479 146.315 990.632 146.195 990.791 146.233L992.973 146.755Z" fill="#E0E2E5"/>
<rect x="989.356" y="146.382" width="1.23659" height="1.3123" fill="#E0E2E5"/>
<path d="M1191.25 335.816C1191.32 336.107 1191.74 336.107 1191.8 335.816L1192.39 333.361C1192.43 333.182 1192.3 333.011 1192.12 333.011H1190.94C1190.76 333.011 1190.62 333.182 1190.67 333.361L1191.25 335.816Z" fill="#E0E2E5"/>
<path d="M1191.78 329.155C1191.71 328.865 1191.29 328.865 1191.22 329.155L1190.64 331.611C1190.59 331.789 1190.73 331.961 1190.91 331.961L1192.09 331.961C1192.27 331.961 1192.41 331.789 1192.36 331.611L1191.78 329.155Z" fill="#E0E2E5"/>
<path d="M1188.16 332.195C1187.86 332.265 1187.86 332.678 1188.16 332.748L1190.61 333.335C1190.79 333.377 1190.96 333.242 1190.96 333.058L1190.96 331.885C1190.96 331.701 1190.79 331.566 1190.61 331.609L1188.16 332.195Z" fill="#E0E2E5"/>
<path d="M1194.84 332.748C1195.14 332.678 1195.14 332.265 1194.84 332.195L1192.39 331.609C1192.21 331.566 1192.04 331.701 1192.04 331.885L1192.04 333.058C1192.04 333.242 1192.21 333.377 1192.39 333.335L1194.84 332.748Z" fill="#E0E2E5"/>
<rect width="1.39117" height="1.47634" transform="matrix(1 0 0 -1 1190.78 333.167)" fill="#E0E2E5"/>
<path d="M153.615 860.797C153.723 860.345 154.366 860.345 154.474 860.797L155.387 864.617C155.453 864.894 155.242 865.161 154.957 865.161H153.131C152.846 865.161 152.635 864.894 152.702 864.617L153.615 860.797Z" fill="#E0E2E5"/>
<path d="M154.43 871.159C154.322 871.611 153.678 871.611 153.57 871.159L152.658 867.339C152.591 867.062 152.802 866.795 153.087 866.795L154.913 866.795C155.198 866.795 155.409 867.062 155.342 867.339L154.43 871.159Z" fill="#E0E2E5"/>
<path d="M148.797 866.43C148.345 866.322 148.345 865.678 148.797 865.57L152.617 864.658C152.894 864.591 153.161 864.802 153.161 865.087L153.161 866.913C153.161 867.198 152.894 867.409 152.617 867.342L148.797 866.43Z" fill="#E0E2E5"/>
<path d="M159.203 865.57C159.655 865.678 159.655 866.322 159.203 866.43L155.383 867.342C155.106 867.409 154.839 867.198 154.839 866.913L154.839 865.087C154.839 864.802 155.106 864.591 155.383 864.658L159.203 865.57Z" fill="#E0E2E5"/>
<rect x="152.874" y="864.918" width="2.16404" height="2.29653" fill="#E0E2E5"/>
<circle cx="462.5" cy="118.5" r="2.5" fill="#E0E2E5"/>
<circle cx="959.5" cy="499.5" r="2.5" fill="#E0E2E5"/>
<circle cx="1093.5" cy="315.5" r="2.5" fill="#E0E2E5"/>
<circle cx="43.5" cy="673.5" r="2.5" fill="#E0E2E5"/>
</svg>
