<?xml version="1.0" encoding="UTF-8"?>
<svg width="933px" height="780px" viewBox="0 0 933 780" version="1.1" xmlns="http://www.w3.org/2000/svg" xmlns:xlink="http://www.w3.org/1999/xlink">
    <!-- Generator: Sketch 61 (89581) - https://sketch.com -->
    <title>Slice 1</title>
    <desc>Created with Sketch.</desc>
    <defs>
        <linearGradient x1="49.9989145%" y1="99.9903002%" x2="49.9989145%" y2="0.00713229431%" id="linearGradient-1">
            <stop stop-color="#808080" stop-opacity="0.25" offset="0%"></stop>
            <stop stop-color="#808080" stop-opacity="0.12" offset="54%"></stop>
            <stop stop-color="#808080" stop-opacity="0.1" offset="100%"></stop>
        </linearGradient>
    </defs>
    <g id="Page-1" stroke="none" stroke-width="1" fill="none" fill-rule="evenodd">
        <g id="undraw_airport_2581" fill-rule="nonzero">
            <ellipse id="Oval" fill="#ED2F25" opacity="0.1" cx="478.99" cy="703.7" rx="303.97" ry="46.65"></ellipse>
            <ellipse id="Oval" fill="#ED2F25" opacity="0.1" cx="857.56" cy="750.35" rx="74.6" ry="11.45"></ellipse>
            <ellipse id="Oval" fill="#ED2F25" opacity="0.1" cx="75.56" cy="728.6" rx="74.6" ry="11.45"></ellipse>
            <ellipse id="Oval" fill="#ED2F25" opacity="0.1" cx="165.56" cy="773.24" rx="41.4" ry="6.35"></ellipse>
            <path d="M654.38,366.44 L652.05,359.76 L652.92,358.84 L648.31,336.12 C648.490428,335.320049 648.554421,334.498239 648.5,333.68 C648.617935,331.293102 647.911818,328.938201 646.5,327.01 L645.58,322.5 C645.58,322.14 645.58,321.79 645.65,321.43 C647.54,294.9 636.19,262.82 636.19,262.82 L636.19,233.3 L627.43,175.54 L627.43,175.54 C627.6,146.65 616.26,136.54 616.26,136.54 C616.26,136.54 615.33,136.32 613.82,135.86 C610.82,129.65 605.71,119.86 597.35,104.13 C594.245558,98.1446509 590.193202,92.7009868 585.35,88.01 C578.898203,81.4371813 570.674345,76.8822685 561.68,74.9 C562.451724,74.0316562 563.291015,73.2258028 564.19,72.49 C566.19,70.88 568.41,69.59 570.28,67.86 C572.755424,65.4548503 574.650076,62.5171137 575.82,59.27 C577.739411,54.5643276 578.263617,49.405583 577.33,44.41 C576.334965,39.3583644 573.323114,34.9308708 568.99,32.15 C567.741229,31.5094171 566.561685,30.742043 565.47,29.86 C564.04,28.49 563.37,26.56 562.64,24.75 C560.124834,18.5491817 556.33655,12.9451104 551.52,8.3 C549.52,6.3 547.06,4.45 544.2,4.22 C541.34,3.99 538.52,5.52 535.82,6.68 C526.389699,10.6226694 515.709012,10.2575177 506.57,5.68 C502.18,3.43 497.95,0.15 492.99,0.228563934 C489.593216,0.382108232 486.431336,2.00686179 484.33,4.68 C484.42,4.49 484.5,4.3 484.6,4.11 C482.792974,6.13738077 481.602922,8.63891942 481.17,11.32 L481.17,11.59 C481.17,18.75 483.04,26.88 488.95,31.79 C488.52,32.33 488.09,32.87 487.69,33.43 C480.569706,43.1803537 478.168303,55.5979918 481.14,67.3 C480.87967,67.4168581 480.628902,67.5539448 480.39,67.71 L474.75,71.53 L461.91,82.63 L456.17,86.51 C462.17,82.09 470.77,74.89 468.71,73.24 C465.87,70.97 437.17,79.24 430.59,86.91 C427.76,90.22 424.1,96.41 420.86,102.39 L420.63,101.95 C420.36,102.31 420.05,102.74 419.73,103.2 L419.6,102.96 C418.26,104.76 416.15,107.84 413.81,111.33 C412.96,112.59 412.08,113.91 411.21,115.24 C402.12,125.45 384.65,146.02 382.12,155.9 C382.12,155.9 364.93,183.77 369.06,197.54 C373.19,211.31 389.86,214 401.89,209.8 C410.48,206.8 431.78,196.53 443.25,190.9 L442.11,207.12 C442.11,207.12 432.73,273.76 425.4,300.8 C424.13,305.47 422.92,308.97 421.83,310.72 C421.685714,310.948534 421.555473,311.185639 421.44,311.43 C414.02,325.56 402.75,404.93 402.75,404.93 C402.75,404.93 392.75,415.51 412.03,416.86 C425.31,417.78 433.27,429.09 436.93,436.02 L436.93,436.17 C436.54,446.78 436.37,455.83 436.61,461.52 C437.32,478.96 435.32,500.99 434.02,512.89 C433.360802,518.849853 433.549343,524.873044 434.58,530.78 C437.4,547.07 443.5,580.33 448.47,594.52 C455.17,613.66 452.08,634.82 452.08,634.82 C452.08,634.82 458.78,655.47 464.97,663.03 C465.427706,663.544824 465.972745,663.974762 466.58,664.3 C466.5,664.91 466.42,665.53 466.31,666.16 C465.31,672.05 463.06,678.85 458.12,683.98 C450.8,691.59 440.65,701.98 439.46,709.54 C438.9,713.18 440.38,716.16 445.23,717.9 C460.23,723.27 479.61,717.9 479.61,717.9 C479.61,717.9 492.67,713.2 492.67,708.5 C492.67,703.8 498,703.8 498,703.8 L506.59,697.8 C506.813112,694.694002 506.813112,691.575998 506.59,688.47 C506.21,682.47 504.9,675.05 501.06,670.3 C499.929753,668.897597 499.003887,667.342141 498.31,665.68 C498.059205,665.05886 497.842221,664.424599 497.66,663.78 C501.24,663.18 503.75,662.78 504.16,663.04 C505.71,664.04 510.35,636.34 498.49,621.73 C486.63,607.12 492.3,594.02 492.3,594.02 C492.3,594.02 490.75,540.62 483.02,536.09 C483.02,536.09 489.2,519.97 488.69,511.91 C488.18,503.85 485.6,487.73 488.69,484.2 C490.15,482.53 496.16,471.2 502.05,459.78 C502.4,459.11 502.75,458.44 503.05,457.78 C506.68,458.03 510.68,458.18 514.85,458.1 C514.9,458.76 514.96,459.42 515.02,460.1 C515.95,470.16 518.2,481.19 523.2,489.26 L523.2,540.14 C523.2,540.14 526.81,554.75 529.9,560.8 C532.99,566.85 520.28,608.65 520.28,608.65 C520.28,608.65 513.22,659.78 520.28,666.2 C521.790876,667.388893 523.557316,668.210493 525.44,668.6 C525.55,669.29 525.65,669.99 525.75,670.7 C526.75,677.52 527.42,684.97 526.63,689.26 C525.707831,694.777376 525.734886,700.411735 526.71,705.92 C526.86,706.76 526.97,707.22 526.97,707.22 C526.97,707.22 523.71,723.51 546.23,721.17 C568.75,718.83 571.15,711.76 571.15,711.76 C571.15,711.76 571.15,711.53 571.1,711.13 C570.977219,709.522536 570.763544,707.923312 570.46,706.34 C569.087577,699.248841 566.250434,692.522124 562.13,686.59 C560.333226,684.134389 559.290753,681.208517 559.13,678.17 C559.13,676.17 559,673.99 558.89,671.81 C558.89,671.14 558.82,670.47 558.78,669.81 C560.4,669.7 561.37,669.61 561.37,669.61 C561.37,669.61 568.58,657.02 568.07,632.83 C567.56,608.64 573.74,586.49 573.74,586.49 C573.74,586.49 575.29,550.22 573.74,545.18 C572.19,540.14 570.47,511.63 574.43,507.75 C577.17,505.06 580.73,472.02 582.66,452.01 C582.73,451.33 582.79,450.67 582.85,450.01 C587.9,449.81 591.1,449.78 591.1,449.78 C591.1,449.78 591.66,434.97 592.15,414.78 L594.34,413.95 C593.4,415.46 594.41,419.56 601.71,417.5 C611.12,414.86 623.63,412.59 623.63,412.59 C623.63,412.59 630.33,407.8 630.63,404.4 C630.897803,402.661991 631.285393,400.944567 631.79,399.26 C646.46,393.41 658.52,388.53 658.52,388.53 C658.52,388.53 663.32,380.71 654.38,366.44 Z M602.99,281.97 L604.77,296.19 L599.77,297.73 L589.24,298.45 C586.31,271.84 591.24,227.06 591.24,227.06 L592.13,226.48 C596.58,244.45 602.99,281.97 602.99,281.97 L602.99,281.97 Z M550.42,96.58 C550.2,96.07 549.99,95.58 549.77,94.98 L550.77,96.52 C550.652115,96.5320919 550.535182,96.5521376 550.42,96.58 Z M589.58,300.9 L589.4,299.49 L592.85,298.76 L598.3,298.2 L589.58,300.9 Z M481.17,104.69 C479.7,105.04 478.17,105.42 476.72,105.85 L476.98,105.7 L481.26,103.15 C481.199838,103.644384 481.169782,104.141969 481.17,104.64 L481.17,104.69 Z M432.66,141.75 C429.22,143.43 427.5,143.26 427.5,143.26 L435.4,127.96 C436.314923,126.574336 437.139953,125.131369 437.87,123.64 C440.132823,122.752832 442.596543,122.507152 444.99,122.93 C444.99,122.93 446.9,122.5 449.85,121.78 C449.170628,122.639786 448.536437,123.534328 447.95,124.46 C447.95,124.46 436.09,140.07 432.66,141.75 Z M595.58,413.39 L595.58,413.39 L598.06,412.44 C597,413.21 596.11,413.62 595.58,413.39 Z" id="Shape" fill="url(#linearGradient-1)"></path>
            <path d="M512.43,83.73 C509.25,85.6 509.15,93.59 509.64,100 C509.99,104.69 510.64,108.53 510.64,108.53 L489.95,158.83 C489.95,158.83 482.28,122.99 482.16,106.99 C482.150797,105.727566 482.343219,104.471759 482.73,103.27 C486.38,91.74 506.66,85.3 512.43,83.73 Z" id="Path" fill="#67647E"></path>
            <path d="M513.96,83.3 C513.96,83.3 513.4,83.43 512.43,83.7 C512.895046,83.4322261 513.423404,83.2940933 513.96,83.3 L513.96,83.3 Z" id="Path" fill="#67647E"></path>
            <path d="M506.79,695.66 L498.46,701.66 C498.46,701.66 493.29,701.66 493.29,706.33 C493.29,711 480.63,715.66 480.63,715.66 C480.63,715.66 461.79,720.99 447.29,715.66 C442.59,713.93 441.15,710.97 441.7,707.36 C442.85,699.83 452.7,689.54 459.79,681.99 C464.58,676.9 466.79,670.15 467.73,664.31 C468.423245,660.131044 468.611262,655.883867 468.29,651.66 L498.79,649.49 C497.043322,654.09321 497.043322,659.17679 498.79,663.78 C499.456503,665.426443 500.355653,666.968806 501.46,668.36 C505.18,673.08 506.46,680.49 506.82,686.36 C507.028927,689.456841 507.018902,692.564571 506.79,695.66 Z" id="Path" fill="#67647E"></path>
            <path d="M569.46,709.49 C569.46,709.49 567.13,716.49 545.29,718.83 C523.45,721.17 526.58,704.99 526.58,704.99 C526.58,704.99 526.47,704.53 526.33,703.7 C525.380789,698.229738 525.353749,692.639188 526.25,687.16 C527.01,682.9 526.35,675.51 525.4,668.74 C524.28,660.68 522.75,653.49 522.75,653.49 L556.59,655.99 C556.59,655.99 557.18,662.88 557.52,669.84 C557.63,672.01 557.72,674.18 557.75,676.16 C557.907341,679.164801 558.920487,682.061982 560.67,684.51 C564.676402,690.421467 567.426509,697.092517 568.75,704.11 C569.042021,705.684378 569.248988,707.273348 569.37,708.87 C569.44,709.3 569.46,709.49 569.46,709.49 Z" id="Path" fill="#67647E"></path>
            <path d="M506.79,695.66 L498.46,701.66 C498.46,701.66 493.29,701.66 493.29,706.33 C493.29,711 480.63,715.66 480.63,715.66 C480.63,715.66 461.79,720.99 447.29,715.66 C442.59,713.93 441.15,710.97 441.7,707.36 C442.15,707.36 442.58,707.42 442.94,707.43 C448.88,707.62 454.66,709.22 460.57,709.75 C463.937434,709.998239 467.316401,710.051662 470.69,709.91 C472.363805,709.898709 474.034688,709.76838 475.69,709.52 C479.69,708.81 483.4,706.74 486.97,704.71 C487.843021,704.300342 488.612178,703.69869 489.22,702.95 C489.700606,702.118755 490.038614,701.212894 490.22,700.27 C491.48,695.75 495,692.13 499.04,689.75 C501.498907,688.350958 504.104673,687.227494 506.81,686.4 C507.020374,689.48332 507.013691,692.577617 506.79,695.66 Z" id="Path" fill="#67647E"></path>
            <path d="M569.46,709.49 C569.46,709.49 567.13,716.49 545.29,718.83 C523.45,721.17 526.58,704.99 526.58,704.99 C526.58,704.99 526.47,704.53 526.33,703.7 C527.33,704.22 528.18,704.7 528.57,704.92 C530.57,706.09 532.36,707.7 534.44,708.79 C539.44,711.42 545.49,710.64 551.08,709.79 C553.73,709.39 556.38,708.99 559.02,708.5 C561.032519,708.223849 562.991483,707.643915 564.83,706.78 C566.19587,705.983878 567.505602,705.095132 568.75,704.12 C569.042021,705.694378 569.248988,707.283348 569.37,708.88 C569.44,709.3 569.46,709.49 569.46,709.49 Z" id="Path" fill="#67647E"></path>
            <path d="M506.79,695.66 L498.46,701.66 C498.46,701.66 493.29,701.66 493.29,706.33 C493.29,711 480.63,715.66 480.63,715.66 C480.63,715.66 461.79,720.99 447.29,715.66 C442.59,713.93 441.15,710.97 441.7,707.36 C442.15,707.36 442.58,707.42 442.94,707.43 C448.88,707.62 454.66,709.22 460.57,709.75 C463.937434,709.998239 467.316401,710.051662 470.69,709.91 C472.363805,709.898709 474.034688,709.76838 475.69,709.52 C479.69,708.81 483.4,706.74 486.97,704.71 C487.843021,704.300342 488.612178,703.69869 489.22,702.95 C489.700606,702.118755 490.038614,701.212894 490.22,700.27 C491.48,695.75 495,692.13 499.04,689.75 C501.498907,688.350958 504.104673,687.227494 506.81,686.4 C507.020374,689.48332 507.013691,692.577617 506.79,695.66 Z" id="Path" fill="#000000" opacity="0.1"></path>
            <path d="M569.46,709.49 C569.46,709.49 567.13,716.49 545.29,718.83 C523.45,721.17 526.58,704.99 526.58,704.99 C526.58,704.99 526.47,704.53 526.33,703.7 C527.33,704.22 528.18,704.7 528.57,704.92 C530.57,706.09 532.36,707.7 534.44,708.79 C539.44,711.42 545.49,710.64 551.08,709.79 C553.73,709.39 556.38,708.99 559.02,708.5 C561.032519,708.223849 562.991483,707.643915 564.83,706.78 C566.19587,705.983878 567.505602,705.095132 568.75,704.12 C569.042021,705.694378 569.248988,707.283348 569.37,708.88 C569.44,709.3 569.46,709.49 569.46,709.49 Z" id="Path" fill="#000000" opacity="0.1"></path>
            <path d="M498.79,649.49 C497.043322,654.09321 497.043322,659.17679 498.79,663.78 C490.04,665.27 473.73,668.28 467.73,664.31 C468.423245,660.131044 468.611262,655.883867 468.29,651.66 L498.79,649.49 Z" id="Path" fill="#000000" opacity="0.1"></path>
            <path d="M557.58,669.84 C551.4,670.28 534.77,671.15 525.46,668.74 C524.34,660.68 522.81,653.49 522.81,653.49 L556.65,655.99 C556.65,655.99 557.22,662.88 557.58,669.84 Z" id="Path" fill="#000000" opacity="0.1"></path>
            <path d="M581.96,436.66 C581.96,436.66 581.44,442.91 580.61,451.66 C578.74,471.52 575.29,504.31 572.61,506.98 C568.77,510.83 570.44,539.13 571.94,544.13 C573.44,549.13 571.94,585.13 571.94,585.13 C568.165366,600.168421 566.317227,615.625584 566.44,631.13 C566.94,655.13 559.94,667.63 559.94,667.63 C559.94,667.63 526.94,670.63 520.11,664.25 C513.28,657.87 520.11,607.13 520.11,607.13 C520.11,607.13 532.44,565.63 529.44,559.63 C526.44,553.63 522.94,539.13 522.94,539.13 L522.94,488.63 C518.09,480.63 515.94,469.63 515.01,459.69 C514.269887,451.18704 514.246471,442.636886 514.94,434.13 C514.94,434.13 508.73,446.83 502.4,459.39 C496.68,470.74 490.86,481.97 489.4,483.63 C486.4,487.13 488.9,503.13 489.4,511.13 C489.9,519.13 483.9,535.13 483.9,535.13 C491.4,539.63 492.9,592.63 492.9,592.63 C492.9,592.63 487.4,605.63 498.9,620.13 C510.4,634.63 505.9,662.13 504.4,661.13 C502.9,660.13 472.4,668.63 466.4,661.13 C460.4,653.63 453.9,633.13 453.9,633.13 C453.9,633.13 456.9,612.13 450.4,593.13 C445.58,579.05 439.67,546.04 436.93,529.87 C435.930908,524.003323 435.749181,518.026539 436.39,512.11 C437.65,500.3 439.59,478.44 438.9,461.11 C438.67,455.46 438.83,446.48 439.21,435.95 C440.5,399.85 444.4,345.61 444.4,345.61 L471.58,327.3 L489.48,315.16 L493.86,315.83 L575.48,328.4 L578.65,368.66 L581.96,436.66 Z" id="Path" fill="#444053"></path>
            <path d="M471.58,327.3 L470.15,335.16 C470.15,335.16 458.15,392.66 455.65,422.16 C453.15,451.66 442.65,443.16 442.65,443.16 C441.734218,440.682726 440.610198,438.287493 439.29,436 C440.58,399.9 444.48,345.66 444.48,345.66 L471.58,327.3 Z" id="Path" fill="#000000" opacity="0.1"></path>
            <path d="M557.29,109.16 C557.29,109.16 501.29,153.99 511.63,144.99 C517.29,140.05 513.44,118.99 508.8,100.99 C504.98,86.14 500.63,73.36 500.63,73.36 C500.63,73.36 549.51,27.63 545.96,65.02 C544.71,78.2 545.75,87.57 547.62,94.19 C551.05,106.3 557.29,109.16 557.29,109.16 Z" id="Path" fill="#EFB7B9"></path>
            <path d="M552.63,97.24 L517.13,124.99 L506.79,113.49 C506.79,113.49 497.96,109.66 497.29,113.99 C496.62,118.32 494.13,144.99 499.29,147.49 C504.45,149.99 511.13,151.66 516.96,150.83 C522.79,150 529.29,143.49 533.63,140.99 C537.97,138.49 553.96,125.49 553.96,125.49 L561.96,114.33 L552.63,97.24 Z" id="Path" fill="#000000" opacity="0.1"></path>
            <path d="M552.63,98.24 L517.13,125.99 L506.79,114.49 C506.79,114.49 497.96,110.66 497.29,114.99 C496.62,119.32 494.13,145.99 499.29,148.49 C504.45,150.99 511.13,152.66 516.96,151.83 C522.79,151 529.29,144.49 533.63,141.99 C537.97,139.49 553.96,126.49 553.96,126.49 L561.96,115.33 L552.63,98.24 Z" id="Path" fill="#A36468"></path>
            <path d="M581.96,436.66 C581.96,436.66 581.44,442.91 580.61,451.66 C569.61,452.08 548.27,453.38 533.29,457.3 C527.312228,458.778952 521.187037,459.580661 515.03,459.69 C514.289887,451.18704 514.266471,442.636886 514.96,434.13 C514.96,434.13 508.75,446.83 502.42,459.39 C497.005545,459.024932 491.618694,458.326946 486.29,457.3 L492.96,370.63 C492.96,370.63 492.74,341.54 493.84,315.8 L575.46,328.37 L578.63,368.63 L581.96,436.66 Z" id="Path" fill="#000000" opacity="0.1"></path>
            <path d="M520.63,122.66 C520.63,122.66 544.88,96.15 550.63,100.36 C556.38,104.57 560.1,114.83 560.1,114.83 L540.38,136.49 L520.63,122.66 Z" id="Path" fill="#000000" opacity="0.1"></path>
            <path d="M521.63,121.66 C521.63,121.66 545.88,95.15 551.63,99.36 C557.38,103.57 561.1,113.83 561.1,113.83 L541.38,135.49 L521.63,121.66 Z" id="Path" fill="#A36468"></path>
            <path d="M501.52,138.65 L515.46,121.1 C515.46,121.1 513.25,104.51 508.14,106.63 C503.03,108.75 501.52,117.24 501.52,117.24 L501.52,138.65 Z" id="Path" fill="#000000" opacity="0.1"></path>
            <path d="M500.46,137.49 L514.4,119.94 C514.4,119.94 512.2,103.35 507.08,105.47 C501.96,107.59 500.46,116.08 500.46,116.08 L500.46,137.49 Z" id="Path" fill="#A36468"></path>
            <path d="M564.63,105.99 C564.63,105.99 535.92,136.99 518.78,139.07 C517.22,139.26 515.68,139.52 514.14,139.83 C509.67,140.71 499.91,139.83 501.46,114.2 L499.29,109.66 L485.96,117.83 L481.46,154.49 L473.46,248.49 L461.63,353.16 C461.63,353.16 497.96,349.66 508.13,358.83 C518.3,368 521.13,308.83 521.13,308.83 L548.96,188.83 L578.63,111.66 L564.63,105.99 Z" id="Path" fill="#000000" opacity="0.1"></path>
            <path d="M578.63,115.66 L548.96,192.83 L521.13,312.83 C521.13,312.83 518.29,371.99 508.13,362.83 C504.81,359.83 498.69,358.19 491.96,357.34 C483.684286,356.446348 475.347504,356.259005 467.04,356.78 C463.72,356.96 461.63,357.16 461.63,357.16 L473.46,252.49 L481.46,158.49 L485.96,121.83 L499.29,113.66 L501.46,118.2 C501.46,118.87 501.39,119.53 501.36,120.2 C500.42,143.88 509.79,144.72 514.14,143.86 C515.68,143.55 517.22,143.29 518.78,143.1 C530.92,141.61 548.86,125.64 558.29,116.46 C562.18,112.66 564.63,110.02 564.63,110.02 L578.63,115.66 Z" id="Path" fill="#000000" opacity="0.1"></path>
            <path d="M578.63,112.66 L548.96,189.83 L521.13,309.83 C521.13,309.83 518.29,368.99 508.13,359.83 C504.81,356.83 498.69,355.19 491.96,354.34 C483.684286,353.446348 475.347504,353.259005 467.04,353.78 C463.72,353.96 461.63,354.16 461.63,354.16 L473.46,249.49 L481.46,155.49 L485.96,118.83 L499.29,110.66 L501.46,115.2 C501.46,115.87 501.39,116.53 501.36,117.2 C500.42,140.88 509.79,141.72 514.14,140.86 C515.68,140.55 517.22,140.29 518.78,140.1 C530.92,138.61 548.86,122.64 558.29,113.46 C562.18,109.66 564.63,107.02 564.63,107.02 L578.63,112.66 Z" id="Path" fill="#E1E7EF"></path>
            <path d="M501.46,115.2 C501.46,115.87 501.39,116.53 501.36,117.2 L501.13,117.36 C497.61,119.68 491.96,158.86 491.96,158.86 L484.63,258.69 L471.13,333.19 C471.13,333.19 469.36,341.68 467.04,353.81 C463.72,353.99 461.63,354.19 461.63,354.19 L473.46,249.52 L481.46,155.52 L485.96,118.86 L499.29,110.69 L501.46,115.2 Z" id="Path" fill="#000000" opacity="0.1"></path>
            <path d="M510.65,108.53 C510.65,108.53 502.65,115.01 499.13,117.33 C495.61,119.65 489.96,158.83 489.96,158.83 L482.63,258.66 L469.13,333.16 C469.13,333.16 457.13,390.66 454.63,420.16 C452.13,449.66 441.63,441.16 441.63,441.16 C441.63,441.16 433.79,418.16 415.13,416.83 C396.47,415.5 406.13,404.99 406.13,404.99 C406.13,404.99 417.06,326.22 424.25,312.19 C424.362193,311.949095 424.489099,311.715321 424.63,311.49 C425.69,309.75 426.86,306.28 428.09,301.64 C435.2,274.8 444.29,208.64 444.29,208.64 L449.96,126.64 C464.46,102.97 509.52,103.79 509.52,103.79 L510.65,108.53 Z" id="Path" fill="#67647E"></path>
            <path d="M578.63,112.66 L548.96,189.83 L521.13,309.83 C521.13,309.83 518.29,368.99 508.13,359.83 C504.81,356.83 498.69,355.19 491.96,354.34 C492.08,334 492.7,297.5 495.63,282.16 C498.165583,268.142681 499.224705,253.898168 498.79,239.66 L535.13,160.49 C535.13,160.49 562.46,126.8 562.63,121.98 C562.69,120.2 560.75,116.9 558.29,113.43 C562.18,109.63 564.63,106.99 564.63,106.99 L578.63,112.66 Z" id="Path" fill="#000000" opacity="0.1"></path>
            <path d="M487.29,455.3 L493.96,368.63 C493.96,368.63 493.46,303.96 497.63,282.13 C500.165583,268.112681 501.224705,253.868168 500.79,239.63 L537.13,160.46 C537.13,160.46 564.46,126.77 564.63,121.95 C564.8,117.13 550.31,101.1 550.31,101.1 C550.31,101.1 581.96,104.8 586.13,118.96 C590.3,133.12 613.13,138.63 613.13,138.63 C613.13,138.63 624.13,148.63 623.96,177.3 C623.79,205.97 588.96,228.46 588.96,228.46 C588.96,228.46 583.13,282.46 588.13,306.8 C593.13,331.14 588.79,449.46 588.79,449.46 C588.79,449.46 555.29,449.8 534.29,455.3 C513.29,460.8 487.29,455.3 487.29,455.3 Z" id="Path" fill="#67647E"></path>
            <path d="M536.63,317.83 L562.29,414.99 C562.29,414.99 565.79,423.66 583.79,416.99 C601.79,410.32 654.13,388.66 654.13,388.66 C654.13,388.66 658.79,380.99 650.13,366.83 L623.96,290.16 L536.63,317.83 Z" id="Path" fill="#B07473"></path>
            <polygon id="Path" fill="#E1E7EF" points="569.84 360.79 611.34 315.16 637.84 304.41 648.71 359.28 598.34 414.03"></polygon>
            <path d="M614.18,376.04 C614.18,376.04 601.84,383.3 598.58,383.54 C595.32,383.78 583.85,405.46 588.7,405.29 C593.55,405.12 604.83,399.29 603.7,402.29 C602.57,405.29 595.21,414.29 593.08,413.43 C590.95,412.57 589.95,420.04 599.08,417.43 C608.21,414.82 620.33,412.56 620.33,412.56 C620.33,412.56 626.83,407.81 627.08,404.43 C627.33,401.05 632.96,383.3 632.96,383.3 L614.18,376.04 Z" id="Path" fill="#EFB7B9"></path>
            <path d="M416.07,120.04 C416.07,120.04 426.75,96.98 433.13,89.36 C439.51,81.74 467.34,73.54 470.13,75.79 C472.92,78.04 456.13,90.67 453.13,92.29 C450.13,93.91 472.51,108.96 472.97,109.29 C473.43,109.62 490.47,107.78 481.72,113.53 C472.97,119.28 447.1,125.13 447.1,125.13 C443.57848,124.521491 439.961758,125.389504 437.1,127.53 C432.09,131.16 416.07,120.04 416.07,120.04 Z" id="Path" fill="#EFB7B9"></path>
            <path d="M638.24,377.19 C636.826195,381.825984 634.92911,386.300557 632.58,390.54 C630.08,388.28 606.21,380.41 606.21,380.41 L608.86,376.32 L613.18,369.66 C613.18,369.66 634.46,365.04 638.08,369.66 C639.3,371.21 639.08,374.07 638.24,377.19 Z" id="Path" fill="#000000" opacity="0.1"></path>
            <path d="M639.24,376.19 C637.826195,380.825984 635.92911,385.300557 633.58,389.54 C631.08,387.28 607.21,379.41 607.21,379.41 L609.86,375.32 L614.18,368.66 C614.18,368.66 635.46,364.04 639.08,368.66 C640.3,370.21 640.08,373.07 639.24,376.19 Z" id="Path" fill="#A36468"></path>
            <path d="M440.46,125.24 C439.693488,126.956188 438.790595,128.608149 437.76,130.18 C433.91,136.25 428.08,143.41 428.08,143.41 C428.08,143.41 405.34,132.95 405.34,132.49 C405.34,132.03 412.24,121.16 417.85,112.59 C420.12,109.13 422.17,106.07 423.47,104.28 C423.47,104.28 431.96,122.04 440.34,122.16 C442.58,122.19 441.37,123.07 440.46,125.24 Z" id="Path" fill="#000000" opacity="0.1"></path>
            <path d="M439.46,126.24 C438.693488,127.956188 437.790595,129.608149 436.76,131.18 C432.91,137.25 427.08,144.41 427.08,144.41 C427.08,144.41 404.34,133.95 404.34,133.49 C404.34,133.03 411.24,122.16 416.85,113.59 C419.12,110.13 421.17,107.07 422.47,105.28 C422.47,105.28 430.96,123.04 439.34,123.16 C441.58,123.19 440.37,124.07 439.46,126.24 Z" id="Path" fill="#A36468"></path>
            <polygon id="Path" fill="#B07473" points="567.71 309.66 564.79 300.91 605.77 298.03 590.46 299.66 570.96 303.85 572.46 309.66"></polygon>
            <path d="M639.24,376.19 C634.72,374.06 622.66,369.63 609.86,375.32 L614.18,368.66 C614.18,368.66 635.46,364.04 639.08,368.66 C640.3,370.21 640.08,373.07 639.24,376.19 Z" id="Path" fill="#000000" opacity="0.1"></path>
            <path d="M641.63,322.16 C641.53,323.61 641.44,325.06 641.35,326.5 C641.1,330.91 640.93,335.28 640.82,339.5 C640.32,359.04 641.13,375.16 641.13,375.16 C641.13,375.16 625.63,365.83 609.13,373.66 L607.49,342.04 L607.49,341.49 L605.8,327.66 L600.32,282.99 C600.32,282.99 589.99,220.99 586.82,218.66 C583.65,216.33 610.32,166.16 610.32,166.16 L623.96,177.3 L632.46,234.63 L632.46,263.96 C632.46,263.96 643.46,295.83 641.63,322.16 Z" id="Path" fill="#67647E"></path>
            <path d="M439.96,124.83 L436.76,131.18 C432.91,137.25 427.08,144.41 427.08,144.41 C427.08,144.41 404.34,133.95 404.34,133.49 C404.34,133.03 411.24,122.16 416.85,113.59 C418.58,111.64 419.63,110.49 419.63,110.49 C412.96,126.99 439.96,124.83 439.96,124.83 Z" id="Path" fill="#000000" opacity="0.1"></path>
            <path d="M459.29,121.98 L449.96,126.66 C449.96,126.66 438.46,142.16 435.13,143.83 C431.8,145.5 430.13,145.33 430.13,145.33 L439.96,125.83 C439.96,125.83 412.96,127.99 419.63,111.49 C419.63,111.49 389.46,144.49 386.13,157.83 C386.13,157.83 369.46,185.49 373.46,199.16 C377.46,212.83 393.63,215.49 405.29,211.33 C416.95,207.17 452.79,188.83 452.79,188.83 L459.29,121.98 Z" id="Path" fill="#67647E"></path>
            <path d="M425.79,154.49 C425.79,154.49 400.63,182.66 402.63,186.49 C404.63,190.32 424.46,160.16 425.79,154.49 Z" id="Path" fill="#000000" opacity="0.1"></path>
            <path d="M539.38,78.66 C539.38,78.66 574.79,67.99 594.79,106.49 C614.79,144.99 615.46,147.66 614.46,149.49 C613.46,151.32 574.63,141.16 572.46,145.66 C570.29,150.16 594.46,168.66 594.46,168.66 L500.79,239.66 L540.15,156.02 C542.787105,150.162945 546.304431,144.743633 550.58,139.95 C557.05,132.71 565.9,121.62 562.76,118.2 C560,115.2 555.59,107.37 549.63,98.36 C545.29,91.76 538.36,84.3 539.38,78.66 Z" id="Path" fill="#000000" opacity="0.2"></path>
            <path d="M538.38,77.66 C538.38,77.66 573.79,66.99 593.79,105.49 C613.79,143.99 614.46,146.66 613.46,148.49 C612.46,150.32 573.63,140.16 571.46,144.66 C569.29,149.16 593.46,167.66 593.46,167.66 L500.79,239.66 L539.15,155.02 C541.787105,149.162945 545.304431,143.743633 549.58,138.95 C556.05,131.71 564.9,120.62 561.76,117.2 C559,114.2 554.59,106.37 548.63,97.36 C544.29,90.76 537.36,83.3 538.38,77.66 Z" id="Path" fill="#67647E"></path>
            <path d="M538.38,77.66 C538.38,77.66 573.79,66.99 593.79,105.49 C613.79,143.99 614.46,146.66 613.46,148.49 C612.46,150.32 573.63,140.16 571.46,144.66 C569.29,149.16 593.46,167.66 593.46,167.66 L500.79,239.66 L540.99,150.95 C542.548163,147.505322 544.651858,144.334585 547.22,141.56 C553.56,134.74 565.34,121.07 561.79,117.2 C559.03,114.2 554.62,106.37 548.66,97.36 C544.29,90.76 537.36,83.3 538.38,77.66 Z" id="Path" fill="#000000" opacity="0.1"></path>
            <circle id="Oval" fill="#444053" cx="545.63" cy="246.83" r="7.33"></circle>
            <circle id="Oval" fill="#444053" cx="545.63" cy="292.33" r="7.33"></circle>
            <path d="M640.82,339.5 C636.6,340.5 616.59,340.05 607.49,342.04 L607.49,341.49 L605.8,327.66 C616.06,326.38 638.36,323.95 641.38,326.5 C645.29,329.83 645.85,338.35 640.82,339.5 Z" id="Path" fill="#67647E"></path>
            <path d="M640.82,340.5 C636.6,341.5 616.59,341.05 607.49,343.04 L607.49,342.49 L605.8,328.66 C616.06,327.38 638.36,324.95 641.38,327.5 C645.29,330.83 645.85,339.35 640.82,340.5 Z" id="Path" fill="#000000" opacity="0.1"></path>
            <path d="M640.82,339.5 C636.6,340.5 616.59,340.05 607.49,342.04 L607.49,341.49 L605.8,327.66 C616.06,326.38 638.36,323.95 641.38,326.5 C645.29,329.83 645.85,338.35 640.82,339.5 Z" id="Path" fill="#000000" opacity="0.1"></path>
            <circle id="Oval" fill="#444053" cx="636.46" cy="332.83" r="4.42"></circle>
            <path d="M552.96,350.49 L571.63,414.16 C571.63,414.16 576.63,416.49 576.63,412.33 C576.63,408.17 552.96,350.49 552.96,350.49 Z" id="Path" fill="#FFFFFF" opacity="0.1"></path>
            <path d="M545.79,91.07 C544.610931,92.0160142 543.378936,92.8941029 542.1,93.7 C535.75,97.7 530.1,103.130044 522.01,103.130044 C517.517415,103.136552 513.0544,102.403414 508.8,100.96 C504.98,86.11 500.63,73.33 500.63,73.33 C500.63,73.33 549.51,27.6 545.96,64.99 C544.71,78.17 543.92,84.45 545.79,91.07 Z" id="Path" fill="#000000" opacity="0.1"></path>
            <path d="M563.070444,60.07 C563.070444,82.7468118 544.686812,101.13 522.01,101.13 C499.333188,101.13 480.95,82.7468118 480.95,60.07 C480.95,37.3931882 499.333188,19.0095557 522.01,19.0095557 C532.915288,18.9591836 543.388611,23.2688153 551.099898,30.9801021 C558.811185,38.691389 563.120816,49.1647119 563.070444,60.07 Z" id="Path" fill="#EFB7B9"></path>
            <path d="M498.74,94.43 C498.353982,95.3641324 497.681789,96.1518588 496.82,96.68 L490.3,100.68 L478.11,108.09 L458.82,119.81 C458.366667,120.076667 457.906667,120.326667 457.44,120.56 C452.857315,122.888149 447.454615,122.962007 442.81,120.76 C439.298196,119.18035 436.757791,116.011352 435.98,112.24 C434.932968,106.961728 436.95289,101.544313 441.2,98.24 C441.301358,98.1483199 441.425841,98.0860785 441.56,98.06 C445.664428,96.9001331 449.526172,95.009911 452.96,92.48 L465.1,84.08 L475.94,74.17 L481.42,70.38 C483.060061,69.2431821 485.211836,69.1650778 486.93,70.18 C492.58,73.39 503.74,81.8 498.74,94.43 Z" id="Path" fill="#E1E7EF"></path>
            <path d="M490.3,100.63 L478.11,108.04 C475.57,97.8 469.11,90.57 463.5,85.11 L475.94,74.11 C485.4,78.8 489.16,94.47 490.3,100.63 Z" id="Path" fill="#A36468"></path>
            <path d="M457.44,120.51 C452.857315,122.838149 447.454615,122.912007 442.81,120.71 C439.298196,119.13035 436.757791,115.961352 435.98,112.19 C434.932968,106.911728 436.95289,101.494313 441.2,98.19 C444.227546,99.4715052 447.029837,101.230533 449.5,103.4 C452.946362,106.383922 455.442585,110.312517 456.68,114.7 C457.169684,116.598356 457.424919,118.549561 457.44,120.51 L457.44,120.51 Z" id="Path" fill="#000000" opacity="0.1"></path>
            <path d="M563.07004,60.07 C563.078377,66.0499812 561.774375,71.9589508 559.25,77.38 C556.773036,79.8464432 554.885963,82.8411454 553.73,86.14 C550.95,89.52 549.85,91.43 546.14,93.77 C544.65,92.2 541.3,91.25 540.69,89.22 C539.14,83.99 540.02,78.4 540.1,72.95 C540.1,70.53 539.76,67.67 537.63,66.51 C535.86,65.51 533.63,66.23 531.89,67.21 C530.15,68.19 528.42,69.46 526.42,69.69 C523.42,70.03 520.68,67.92 519,65.44 C517.32,62.96 516.35,60.06 514.76,57.52 C512.66,54.17 509.56,51.6 506.51,49.1 C503.02,46.22 499.63,43.03 495.91,40.45 C493.69,38.9 491.03,38.18 488.84,36.62 L488.49,36.36 C498.818101,21.7608475 517.407435,15.5253341 534.450013,20.9434023 C551.492591,26.3614705 563.068447,42.1869094 563.07004,60.07 L563.07004,60.07 Z" id="Path" fill="#000000" opacity="0.1"></path>
            <path d="M482.17,14.69 C483.04,8.92 487.8,3.51 493.63,3.41 C498.44,3.33 502.54,6.59 506.8,8.82 C515.629648,13.3717856 526.03168,13.738571 535.16,9.82 C537.78,8.68 540.43,7.15 543.28,7.38 C546.13,7.61 548.41,9.48 550.38,11.38 C555.060425,16.0085678 558.727955,21.5592388 561.15,27.68 C561.86,29.48 562.51,31.4 563.89,32.75 C564.942117,33.6313872 566.089199,34.3927545 567.31,35.02 C571.533719,37.8216403 574.447281,42.2100129 575.39,47.19 C576.29649,52.1470883 575.787,57.2593206 573.92,61.94 C572.813141,65.1618285 570.986948,68.0892082 568.58,70.5 C566.76,72.21 564.58,73.5 562.67,75.1 C556.338511,80.4771576 553.300175,88.7870055 554.67,96.98 C549.35,98.21 544.25,93.44 542.67,88.22 C541.09,83 542,77.4 542.08,71.95 C542.08,69.53 541.74,66.67 539.61,65.51 C537.84,64.51 535.61,65.23 533.87,66.21 C532.13,67.19 530.4,68.46 528.4,68.69 C525.4,69.03 522.66,66.93 520.98,64.44 C519.3,61.95 518.34,59.06 516.74,56.52 C514.65,53.17 511.54,50.6 508.49,48.1 C505,45.23 501.61,42.03 497.9,39.45 C495.67,37.9 493.01,37.18 490.82,35.62 C484.21,30.88 482.17,22.24 482.17,14.69 Z" id="Path" fill="#585268"></path>
            <path d="M513.96,83.3 C513.96,83.3 513.4,83.43 512.43,83.7 C512.895046,83.4322261 513.423404,83.2940933 513.96,83.3 L513.96,83.3 Z" id="Path" fill="#000000" opacity="0.1"></path>
            <g id="Group" opacity="0.1" transform="translate(482.000000, 7.000000)" fill="#000000">
                <path d="M62.69,77.95 C61.14,72.72 62.02,67.13 62.1,61.68 C62.1,59.26 61.76,56.4 59.63,55.24 C57.86,54.24 55.63,54.97 53.89,55.94 C52.15,56.91 50.42,58.19 48.42,58.42 C45.42,58.76 42.68,56.66 41,54.18 C39.32,51.7 38.36,48.79 36.76,46.25 C34.66,42.91 31.56,40.34 28.51,37.83 C25.02,34.96 21.63,31.76 17.92,29.18 C15.69,27.63 13.03,26.92 10.84,25.35 C4.21,20.61 2.17,11.97 2.17,4.42 C2.39559199,2.98697651 2.84082425,1.59731218 3.49,0.3 C1.73902955,2.33148747 0.589296428,4.8110324 0.17,7.46 C0.17,15.01 2.17,23.65 8.84,28.39 C11.03,29.96 13.69,30.67 15.92,32.22 C19.63,34.8 23.02,38 26.51,40.87 C29.56,43.38 32.66,45.95 34.76,49.29 C36.36,51.83 37.31,54.74 39,57.22 C40.69,59.7 43.44,61.8 46.42,61.46 C48.42,61.23 50.12,59.95 51.89,58.98 C53.66,58.01 55.89,57.32 57.63,58.28 C59.76,59.44 60.14,62.28 60.1,64.72 C60.02,70.17 59.1,75.72 60.69,80.99 C62.28,86.26 67.35,90.99 72.69,89.75 C72.5236287,88.8110173 72.4167491,87.8624612 72.37,86.91 C67.93,86.52 64.02,82.41 62.69,77.95 Z" id="Path"></path>
                <path d="M88.58,60.23 C86.76,61.95 84.58,63.23 82.67,64.83 C80.5649527,66.5959786 78.7994318,68.7308695 77.46,71.13 C78.4077519,69.9173613 79.4840249,68.8109124 80.67,67.83 C82.59,66.23 84.76,64.95 86.58,63.23 C88.0297708,61.8314161 89.2572757,60.2194729 90.22,58.45 C89.7155842,59.0809143 89.1675752,59.6757045 88.58,60.23 Z" id="Path"></path>
            </g>
            <path d="M515.32,424.19 C514.59,426.36 513.55,428.48 513.41,430.77 C513.17,434.67 515.55,438.29 515.72,442.2 C515.92,446.73 513.16,450.8 510.52,454.5 C513.65,454.5 517.07,453.41 518.66,450.72 C519.200212,449.682692 519.593962,448.575479 519.83,447.43 C522.66,436.14 525.41,423.79 520.49,413.25 C519.729618,411.429978 518.626239,409.773212 517.24,408.37 C516.41,413.69 517.11,418.92 515.32,424.19 Z" id="Path" fill="#000000" opacity="0.1"></path>
            <path d="M437.1,344.51 L428.79,333.3 C426.79,330.59 424.72,327.77 424,324.48 C423.22,320.87 424.13,317.13 424.25,313.48 C424.25,313.07 424.25,312.65 424.25,312.23 C424.362193,311.989095 424.489099,311.755321 424.63,311.53 C425.69,309.79 426.86,306.32 428.09,301.68 C429.302048,302.884044 430.243026,304.333014 430.85,305.93 C434.72,315.37 431.14,326.45 434.34,336.13 C435.26,338.91 436.76,341.57 437.1,344.51 Z" id="Path" fill="#000000" opacity="0.1"></path>
            <path d="M458.25,683.85 C466.561466,689.801844 477.037701,691.875949 486.99,689.54" id="Path" fill="#000000" opacity="0.1"></path>
            <path d="M527.11,685.5 C531.35958,689.480947 537.067758,691.524749 542.878377,691.145837 C548.688996,690.766925 554.083408,687.999119 557.78,683.5" id="Path" fill="#000000" opacity="0.1"></path>
            <path d="M483.23,534.75 C475.035808,536.646799 466.573234,532.90648 462.46,525.57" id="Path" fill="#000000" opacity="0.1"></path>
            <path d="M530.63,560.02 C536.96657,560.489244 543.271073,558.758596 548.48,555.12" id="Path" fill="#000000" opacity="0.1"></path>
            <path d="M498.28,620.42 C492.95,622.58 488.19,625.96 483,628.42 C477.81,630.88 471.8,632.49 466.31,630.77" id="Path" fill="#000000" opacity="0.1"></path>
            <rect id="Rectangle" fill="#9D9CB5" x="394.95" y="324.59" width="6.25" height="190.8"></rect>
            <rect id="Rectangle" fill="#9D9CB5" x="414.36" y="324.59" width="6.26" height="190.8"></rect>
            <circle id="Oval" fill="#535461" cx="381.12" cy="701.06" r="10.69"></circle>
            <path d="M343.29,506.59 C343.29,506.59 353.95,497.92 363.29,500.92 C372.63,503.92 396.95,506.92 401.29,522.25 C405.63,537.58 401.29,705.92 401.29,705.92 C401.29,705.92 380.58,711.3 374.95,708.59 C369.32,705.88 369.95,680.59 369.95,680.59 L368.29,531.3 L343.29,506.59 Z" id="Path" fill="#ED2F25"></path>
            <path d="M343.29,506.59 C343.29,506.59 353.95,497.92 363.29,500.92 C372.63,503.92 396.95,506.92 401.29,522.25 C405.63,537.58 401.29,705.92 401.29,705.92 C401.29,705.92 380.58,711.3 374.95,708.59 C369.32,705.88 369.95,680.59 369.95,680.59 L368.29,531.3 L343.29,506.59 Z" id="Path" fill="#000000" opacity="0.1"></path>
            <path d="M440.29,697.3 L395.42,707.3 L394.95,699.3 L394.66,542.23 C394.632881,527.35561 387.692926,513.338971 375.88,504.298407 L375.88,504.298407 C375.88,504.298407 399.11,503.99 416.88,512.02 C420.68,513.73 424.49,515.41 428.4,516.85 C433.25,518.64 439.83,522.45 440.25,529.97 C440.79,539.77 442.67,636.85 443.34,672.19 C443.513684,680.662007 442.486824,689.115928 440.29,697.3 L440.29,697.3 Z" id="Path" fill="#ED2F25"></path>
            <rect id="Rectangle" fill="#535461" x="392.04" y="310.42" width="10.42" height="16.33"></rect>
            <rect id="Rectangle" fill="#000000" opacity="0.1" x="392.04" y="310.42" width="10.42" height="16.33"></rect>
            <rect id="Rectangle" fill="#535461" x="411.62" y="313" width="10.42" height="16.33"></rect>
            <path d="M422.03,313 L411.58,313 C407.610787,313.101994 404.049022,315.463557 402.41,319.08 C402.26,319.4 402.12,319.73 401.99,320.08 L399.69,317.86 L394.91,313.24 L391.99,310.42 C391.99,310.42 411.28,300.67 422.03,313 Z" id="Path" fill="#535461"></path>
            <circle id="Oval" fill="#535461" cx="426.58" cy="708.59" r="10.69"></circle>
            <circle id="Oval" fill="#535461" cx="316.2" cy="694" r="10.69"></circle>
            <path d="M336.29,504.3 C336.29,504.3 305.95,512.3 304.29,588.64 C302.63,664.98 302.29,672.97 302.29,672.97 C302.29,672.97 302.95,694.97 347.62,708.64 L374.95,708.64 L379.29,533.3 C379.29,533.3 374.29,506.59 336.29,504.3 Z" id="Path" fill="#ED2F25"></path>
            <path d="M333.58,622.59 C333.58,622.59 325.81,515.85 367.7,515.39 L371.63,519.21 C371.63,519.21 334.95,505.92 333.58,622.59 Z" id="Path" fill="#000000" opacity="0.1"></path>
            <circle id="Oval" fill="#535461" cx="352.45" cy="717.91" r="10.69"></circle>
            <path d="M411.73,312.94 C411.734336,312.959765 411.734336,312.980235 411.73,313 L411.58,313 C407.610787,313.101994 404.049022,315.463557 402.41,319.08 C402.26,319.4 402.12,319.73 401.99,320.08 L399.69,317.86 C399.675026,317.663618 399.675026,317.466382 399.69,317.27 C399.900395,315.714855 400.711705,314.304037 401.95,313.34 C404.373204,311.333882 407.668018,310.738617 410.64,311.77 C411.23,311.96 411.84,312.38 411.73,312.94 Z" id="Path" fill="#000000" opacity="0.1"></path>
        </g>
    </g>
</svg>