<?xml version="1.0" encoding="UTF-8"?>
<svg width="1069px" height="708px" viewBox="0 0 1069 708" version="1.1" xmlns="http://www.w3.org/2000/svg" xmlns:xlink="http://www.w3.org/1999/xlink">
    <!-- Generator: Sketch 61 (89581) - https://sketch.com -->
    <title>Slice 1</title>
    <desc>Created with Sketch.</desc>
    <g id="Page-1" stroke="none" stroke-width="1" fill="none" fill-rule="evenodd">
        <g id="day20-rocket-b088c9776bbc4b5b30023d9ecbb366fa" transform="translate(0.000000, 3.000000)">
            <path d="M490.1,360.5 C480.7,361.7 473.2,374.9 471.8,385.8 C471.4,389 471.2,392.1 471.2,395.3 C471.2,405.7 473.4,415.6 477.4,425.7 C481.4,435.6 487.4,445.7 494.6,451.5 C501.9,445.7 507.8,435.6 511.8,425.7 C515.8,415.6 518,405.7 518,395.3 C518,392.1 517.8,389 517.4,385.8 C516,374.8 508.5,361.7 499.1,360.5 C496.2,360.2 493.1,360.2 490.1,360.5 Z" id="XMLID_29_" stroke="#601B23" stroke-width="6" stroke-linecap="round" stroke-linejoin="round"></path>
            <path d="M490.1,360.5 C480.7,361.7 473.2,374.9 471.8,385.8 C471.4,389 471.2,392.1 471.2,395.3 C471.2,405.7 473.4,415.6 477.4,425.7 C481.4,435.6 487.4,445.7 494.6,451.5 C501.9,445.7 507.8,435.6 511.8,425.7 C515.8,415.6 518,405.7 518,395.3 C518,392.1 517.8,389 517.4,385.8 C516,374.8 508.5,361.7 499.1,360.5 C496.2,360.2 493.1,360.2 490.1,360.5 Z" id="XMLID_35_" fill="#E36535" fill-rule="nonzero"></path>
            <path d="M536.6,423.2 C536.6,441.8 532.7,459.6 525.5,477.7 C525.3,478.3 525,478.9 524.7,479.6 C517.5,496.8 507.2,514 494.7,524.1 C481.8,513.7 471.3,495.8 464,478.1 C463.9,478 463.9,477.9 463.8,477.7 C456.6,459.6 452.7,441.8 452.7,423.2 C452.7,417.5 453.1,411.9 453.8,406.1 C456.2,386.7 469.4,363.3 485.9,360.8 C486.1,360.8 486.3,360.7 486.5,360.7 C491.7,360.1 497,360.1 502.2,360.6 C502.4,360.6 502.7,360.6 502.9,360.7 C519.7,362.8 533.2,386.5 535.6,406.1 C536.2,411.9 536.6,417.5 536.6,423.2 Z" id="XMLID_178_" fill-opacity="0.99" fill="#CB9254" fill-rule="nonzero"></path>
            <path d="M536.6,423.2 C536.6,441.8 532.7,459.6 525.5,477.7 C525.3,478.3 525,478.9 524.7,479.6 C517.5,496.8 507.2,514 494.7,524.1 C481.8,513.7 471.3,495.8 464,478.1 C463.9,478 463.9,477.9 463.8,477.7 C456.6,459.6 452.7,441.8 452.7,423.2 C452.7,417.5 453.1,411.9 453.8,406.1 C456.2,386.7 469.4,363.3 485.9,360.8 C486.1,360.8 486.3,360.7 486.5,360.7 C491.7,360.1 497,360.1 502.2,360.6 C502.4,360.6 502.7,360.6 502.9,360.7 C519.7,362.8 533.2,386.5 535.6,406.1 C536.2,411.9 536.6,417.5 536.6,423.2 Z" id="XMLID_177_" stroke="#601B23" stroke-width="6" stroke-linecap="round" stroke-linejoin="round"></path>
            <path d="M1068.00978,705 C1069,605.2 993.022995,569.468775 966.2,556.2 C954.2,551.9 941.2,549.5 927.7,549.5 C887.7,549.5 852.5,570.1 832.1,601.2 C821.5,596.2 809.7,593.5 797.2,593.5 C791.7,593.5 786.4,594 781.3,595.1 C781.3,594.6 781.3,594.1 781.3,593.5 C781.3,568 763.3,546.7 739.4,541.6 C730.2,510.1 701.2,487 666.7,487 C638,487 613,503 600.2,526.5 C591.3,518.2 579.4,513 566.3,513 C558.8,513 551.7,514.7 545.3,517.6 C537.5,505.5 530.6,492.8 524.7,479.4 C510.1,446.4 502,409.6 502,371 C502,367.5 502.1,364.1 502.2,360.6 C503.9,315.9 516.4,274 537.3,237.4 L450.8,237.4 C471.7,274 484.2,316 485.9,360.7 C486,364.1 486.1,367.5 486.1,370.9 C486.1,408.9 478.2,445.2 464,478 C454.7,499.4 442.8,519.4 428.5,537.5 C416.4,522.5 397.9,513 377.2,513 C356.4,513 337.9,522.6 325.8,537.6 C316.1,531.9 304.9,528.6 292.8,528.6 C273.4,528.6 255.9,537.2 244,550.7 C226.4,524.6 196.6,507.4 162.8,507.4 C108.8,507.4 65,551.2 65,605.2 C65,605.5 65,605.8 65,606.1 C28.4,624.7 2.7,661.7 0.2,705 L236.2,705 L720.1,705 L1000,705 L1068.00978,705 Z" id="XMLID_62_" fill-opacity="0.5" fill="#616161" fill-rule="nonzero"></path>
            <path d="M374,207.8 L341.4,220.5 L341.4,158.6 L441.5,80.5 L441.5,197.6 L417.3,210.3 C404.4,203.5 388.7,202.1 374,207.8 Z" id="XMLID_79_" fill="#ED2F25" fill-rule="nonzero"></path>
            <path d="M330.8,236.7 C320.6,221.9 314.7,204.4 314.7,185.7 C314.7,162 324,140.3 339.5,123.6 C355,140.3 364.4,162 364.5,185.7 C364.5,204.5 358.6,221.9 348.5,236.7 L330.8,236.7 Z" id="XMLID_19_" fill="#CF264D" fill-rule="nonzero"></path>
            <path d="M341.4,220.5 L373.8,207.9 C374.2,199.3 373.6,190.5 372,181.7 C369.6,168.5 365.1,156.1 358.9,144.9 L341.4,158.6 L341.4,220.5 L341.4,220.5 Z" id="XMLID_83_" fill="#A5143A" fill-rule="nonzero" opacity="0.72"></path>
            <polygon id="XMLID_63_" fill="#F4A15D" fill-rule="nonzero" opacity="0.23" points="345.6 175.9 441.6 101.1 441.6 80.5 341.4 158.5 341.4 220.5 345.6 218.9"></polygon>
            <path d="M401.7,205 C407.2,205.9 412.4,207.7 417.3,210.3 L441.5,197.6 L441.5,80.5 L399.3,113.4 C397.2,126.1 396.2,139.4 396.2,153.1 C396.3,171.2 398.2,188.7 401.7,205 Z" id="XMLID_69_" fill="#A5143A" fill-rule="nonzero" opacity="0.72"></path>
            <path d="M374,207.8 L341.4,220.5 L341.4,158.6 L441.5,80.5 L441.5,197.6 L417.3,210.3 C404.4,203.5 388.7,202.1 374,207.8 Z" id="XMLID_72_" stroke="#601B23" stroke-width="6" stroke-linecap="round" stroke-linejoin="round"></path>
            <path d="M330.8,236.7 C320.6,221.9 314.7,204.4 314.7,185.7 C314.7,162 324,140.3 339.5,123.6 C355,140.3 364.4,162 364.5,185.7 C364.5,204.5 358.6,221.9 348.5,236.7 L330.8,236.7 Z" id="XMLID_34_" fill="#CF264D" fill-rule="nonzero"></path>
            <path d="M338,123.6 C339.2,124.9 340.4,126.3 341.5,127.7 C331.1,143.7 325.1,162.5 325,182.5 C325,202.3 328,220.8 338.2,236.8 L329,236.8 C318.9,222 313,204.5 313,185.8 C313.1,162 322.5,140.3 338,123.6 Z" id="XMLID_37_" fill="#F4A15D" fill-rule="nonzero" opacity="0.23"></path>
            <path d="M338,123.6 C338.4,124 338.8,124.5 339.2,125 C327.5,142.3 320.8,162.6 320.7,184.4 C320.7,203.3 325.8,221.1 334.7,236.8 L329,236.8 C318.9,222 313,204.5 313,185.8 C313.1,162 322.5,140.3 338,123.6 Z" id="XMLID_4_" fill="#F4A15D" fill-rule="nonzero" opacity="0.32"></path>
            <path d="M364.5,185.7 C364.5,162 355.1,140.4 339.5,123.6 C338.3,124.9 337.1,126.3 336,127.7 C346.4,143.7 352.4,162.5 352.5,182.5 C352.5,202.3 346.7,220.8 336.5,236.8 L348.5,236.8 C358.6,221.9 364.5,204.4 364.5,185.7 Z" id="XMLID_9_" fill="#A5143A" fill-rule="nonzero" opacity="0.37"></path>
            <path d="M364.5,185.7 C364.5,162 355.1,140.4 339.5,123.6 C339.1,124 338.7,124.5 338.3,125 C350,142.3 356.7,162.6 356.8,184.4 C356.8,203.3 351.7,221.1 342.8,236.8 L348.5,236.8 C358.6,221.9 364.5,204.4 364.5,185.7 Z" id="XMLID_45_" fill="#A5143A" fill-rule="nonzero" opacity="0.72"></path>
            <path d="M339.5,123.6 C338.3,124.9 337.1,126.3 336,127.7 C346.4,143.7 352.4,162.5 352.5,182.5 C352.5,202.3 346.7,220.8 336.5,236.8 L348.5,236.8 C358.6,222 364.5,204.5 364.5,185.8 C364.4,162 355,140.3 339.5,123.6 Z" id="XMLID_10_" fill="#A5143A" fill-rule="nonzero" opacity="0.37"></path>
            <path d="M339.5,123.6 C339.1,124 338.7,124.5 338.3,125 C350,142.3 356.7,162.6 356.8,184.4 C356.8,203.3 351.7,221.1 342.8,236.8 L348.5,236.8 C358.6,222 364.5,204.5 364.5,185.8 C364.4,162 355,140.3 339.5,123.6 Z" id="XMLID_16_" fill="#A5143A" fill-rule="nonzero" opacity="0.72"></path>
            <path d="M350.9,141.6 C347.2,135.1 342.8,129.1 337.7,123.5 C332.6,129 328.2,135.1 324.5,141.6 L350.9,141.6 Z" id="XMLID_95_" fill="#601B23" fill-rule="nonzero"></path>
            <path d="M330.8,236.7 C320.6,221.9 314.7,204.4 314.7,185.7 C314.7,162 324,140.3 339.5,123.6 C355,140.3 364.4,162 364.5,185.7 C364.5,204.5 358.6,221.9 348.5,236.7 L330.8,236.7 Z" id="XMLID_28_" stroke="#601B23" stroke-width="6" stroke-linecap="round" stroke-linejoin="round"></path>
            <path d="M460.7,313.9 C460.7,313.9 448.6,316.5 431.2,333.9 C424.9,340.2 415,353 407.7,362.7 C404.7,366.7 398.3,364.7 398.2,359.7 L395.8,253.2 C395.3,250.2 396.1,247.1 398,244.8 L424.2,212.2 L460.7,313.9 Z" id="XMLID_31_" fill="#ED2F25" fill-rule="nonzero"></path>
            <path d="M398,361.8 L398,361.8 C403.7,361 408,356.1 408.1,350.3 L409.2,251.3 C408.7,248.3 409.5,245.2 411.4,242.9 L427.8,222.4 L424.1,212.2 L398,244.7 C396.1,247.1 395.3,250.1 395.8,253.1 L398,361.8 Z" id="XMLID_24_" fill="#F4A15D" fill-rule="nonzero" opacity="0.32"></path>
            <path d="M460.7,313.9 L424.2,212.2 L409.7,230.3 C417.5,260.3 429.8,290.8 446.4,321.2 C455.2,315.1 460.7,313.9 460.7,313.9 Z" id="XMLID_84_" fill="#A5143A" fill-rule="nonzero" opacity="0.72"></path>
            <path d="M460.7,313.9 C460.7,313.9 448.6,316.5 431.2,333.9 C424.9,340.2 415,353 407.7,362.7 C404.7,366.7 398.3,364.7 398.2,359.7 L395.8,253.2 C395.3,250.2 396.1,247.1 398,244.8 L424.2,212.2 L460.7,313.9 Z" id="XMLID_21_" stroke="#601B23" stroke-width="6" stroke-linecap="round" stroke-linejoin="round"></path>
            <line x1="321.3" y1="223.5" x2="354.2" y2="223.5" id="XMLID_32_" stroke="#601B23" stroke-width="4" stroke-linecap="round" stroke-linejoin="round"></line>
            <path d="M330.8,236.7 C320.6,221.9 314.7,204.4 314.7,185.7 C314.7,162 324,140.3 339.5,123.6 C355,140.3 364.4,162 364.5,185.7 C364.5,204.5 358.6,221.9 348.5,236.7 L330.8,236.7 Z" id="XMLID_192_" fill="#CF264D" fill-rule="nonzero"></path>
            <path d="M330.8,236.7 C320.6,221.9 314.7,204.4 314.7,185.7 C314.7,162 324,140.3 339.5,123.6 C355,140.3 364.4,162 364.5,185.7 C364.5,204.5 358.6,221.9 348.5,236.7 L330.8,236.7 Z" id="XMLID_161_" fill="#ED2F25" fill-rule="nonzero"></path>
            <path d="M338,123.6 C339.2,124.9 340.4,126.3 341.5,127.7 C331.1,143.7 325.1,162.5 325,182.5 C325,202.3 328,220.8 338.2,236.8 L329,236.8 C318.9,222 313,204.5 313,185.8 C313.1,162 322.5,140.3 338,123.6 Z" id="XMLID_155_" fill="#F4A15D" fill-rule="nonzero" opacity="0.23"></path>
            <path d="M338,123.6 C338.4,124 338.8,124.5 339.2,125 C327.5,142.3 320.8,162.6 320.7,184.4 C320.7,203.3 325.8,221.1 334.7,236.8 L329,236.8 C318.9,222 313,204.5 313,185.8 C313.1,162 322.5,140.3 338,123.6 Z" id="XMLID_147_" fill="#F4A15D" fill-rule="nonzero" opacity="0.32"></path>
            <path d="M364.5,185.7 C364.5,162 355.1,140.4 339.5,123.6 C338.3,124.9 337.1,126.3 336,127.7 C346.4,143.7 352.4,162.5 352.5,182.5 C352.5,202.3 346.7,220.8 336.5,236.8 L348.5,236.8 C358.6,221.9 364.5,204.4 364.5,185.7 Z" id="XMLID_144_" fill="#A5143A" fill-rule="nonzero" opacity="0.37"></path>
            <path d="M364.5,185.7 C364.5,162 355.1,140.4 339.5,123.6 C339.1,124 338.7,124.5 338.3,125 C350,142.3 356.7,162.6 356.8,184.4 C356.8,203.3 351.7,221.1 342.8,236.8 L348.5,236.8 C358.6,221.9 364.5,204.4 364.5,185.7 Z" id="XMLID_140_" fill="#A5143A" fill-rule="nonzero" opacity="0.72"></path>
            <path d="M339.5,123.6 C338.3,124.9 337.1,126.3 336,127.7 C346.4,143.7 352.4,162.5 352.5,182.5 C352.5,202.3 346.7,220.8 336.5,236.8 L348.5,236.8 C358.6,222 364.5,204.5 364.5,185.8 C364.4,162 355,140.3 339.5,123.6 Z" id="XMLID_134_" fill="#A5143A" fill-rule="nonzero" opacity="0.37"></path>
            <path d="M339.5,123.6 C339.1,124 338.7,124.5 338.3,125 C350,142.3 356.7,162.6 356.8,184.4 C356.8,203.3 351.7,221.1 342.8,236.8 L348.5,236.8 C358.6,222 364.5,204.5 364.5,185.8 C364.4,162 355,140.3 339.5,123.6 Z" id="XMLID_130_" fill="#A5143A" fill-rule="nonzero" opacity="0.72"></path>
            <path d="M352.7,141.6 C349,135.1 344.6,129.1 339.5,123.5 C334.4,129 330,135.1 326.3,141.6 L352.7,141.6 Z" id="XMLID_67_" fill="#601B23" fill-rule="nonzero"></path>
            <path d="M330.8,236.7 C320.6,221.9 314.7,204.4 314.7,185.7 C314.7,162 324,140.3 339.5,123.6 C355,140.3 364.4,162 364.5,185.7 C364.5,204.5 358.6,221.9 348.5,236.7 L330.8,236.7 Z" id="XMLID_39_" stroke="#601B23" stroke-width="6" stroke-linecap="round" stroke-linejoin="round"></path>
            <line x1="321.3" y1="223.5" x2="354.2" y2="223.5" id="XMLID_12_" stroke="#601B23" stroke-width="4" stroke-linecap="round" stroke-linejoin="round"></line>
            <path d="M609.5,207.8 L642.1,220.5 L642.1,158.6 L542,80.5 L542,197.6 L566.2,210.3 C579.1,203.5 594.8,202.1 609.5,207.8 Z" id="XMLID_196_" fill="#ED2F25" fill-rule="nonzero"></path>
            <path d="M642.1,220.5 L609.7,207.9 C609.3,199.3 609.9,190.5 611.5,181.7 C613.9,168.5 618.4,156.1 624.6,144.9 L642.1,158.6 L642.1,220.5 Z" id="XMLID_188_" fill="#A5143A" fill-rule="nonzero" opacity="0.72"></path>
            <polygon id="XMLID_181_" fill="#F4A15D" fill-rule="nonzero" opacity="0.23" points="638 175.9 542 101.1 542 80.5 642.1 158.5 642.1 220.5 638 218.9"></polygon>
            <path d="M581.8,205 C576.3,205.9 571.1,207.7 566.2,210.3 L542,197.6 L542,80.5 L584.2,113.4 C586.3,126.1 587.3,139.4 587.3,153.1 C587.3,171.2 585.4,188.7 581.8,205 Z" id="XMLID_175_" fill="#A5143A" fill-rule="nonzero" opacity="0.72"></path>
            <path d="M609.5,207.8 L642.1,220.5 L642.1,158.6 L542,80.5 L542,197.6 L566.2,210.3 C579.1,203.5 594.8,202.1 609.5,207.8 Z" id="XMLID_166_" stroke="#601B23" stroke-width="6" stroke-linecap="round" stroke-linejoin="round"></path>
            <path d="M522.9,313.9 C522.9,313.9 535,316.5 552.4,333.9 C558.7,340.2 568.6,353 575.9,362.7 C578.9,366.7 585.3,364.7 585.4,359.7 L587.8,253.2 C588.3,250.2 587.5,247.1 585.6,244.8 L559.4,212.2 L522.9,313.9 Z" id="XMLID_59_" fill="#ED2F25" fill-rule="nonzero"></path>
            <path d="M585.5,361.8 L585.5,361.8 C579.8,361 575.5,356.1 575.4,350.3 L574.3,251.3 C574.8,248.3 574,245.2 572.1,242.9 L555.7,222.4 L559.4,212.2 L585.6,244.8 C587.5,247.2 588.3,250.2 587.8,253.2 L585.5,361.8 Z" id="XMLID_48_" fill="#A5143A" fill-rule="nonzero" opacity="0.72"></path>
            <path d="M522.9,313.9 L559.4,212.2 L573.9,230.3 C566.1,260.3 553.8,290.8 537.2,321.2 C528.4,315.1 522.9,313.9 522.9,313.9 Z" id="XMLID_47_" fill="#A5143A" fill-rule="nonzero" opacity="0.72"></path>
            <path d="M522.9,313.9 C522.9,313.9 535,316.5 552.4,333.9 C558.7,340.2 568.6,353 575.9,362.7 C578.9,366.7 585.3,364.7 585.4,359.7 L587.8,253.2 C588.3,250.2 587.5,247.1 585.6,244.8 L559.4,212.2 L522.9,313.9 Z" id="XMLID_33_" stroke="#601B23" stroke-width="6" stroke-linecap="round" stroke-linejoin="round"></path>
            <path d="M522.4,371.1 C523.5,359.2 521.9,348 501.9,318.5 C498.6,313.8 490.7,313.8 487.4,318.5 C467.4,348.1 465.8,359.3 466.9,371.1 C467.1,372.6 469.8,374.3 471.5,373.7 C483,367.8 506.3,367.8 517.8,373.7 C519.5,374.3 522.2,372.7 522.4,371.1 Z" id="XMLID_22_" fill="#4E8280" fill-rule="nonzero"></path>
            <g id="XMLID_107_" opacity="0.32" transform="translate(466.000000, 314.000000)" fill="#F4A15D" fill-rule="nonzero">
                <g id="XMLID_222_">
                    <g id="XMLID_225_">
                        <path d="M11,57.1 C9.9,45.2 11.5,34 31.5,4.5 C32.1,3.6 32.9,2.9 33.7,2.4 C29.9,-0.1 24.1,0.6 21.4,4.5 C1.4,34.1 -0.2,45.3 0.9,57.1 C1.1,58.6 3.8,60.3 5.5,59.7 C7.2,58.9 9.1,58.1 11.1,57.5 C11.1,57.4 11,57.3 11,57.1 Z" id="XMLID_226_"></path>
                    </g>
                    <g id="XMLID_223_" transform="translate(33.000000, 55.000000)">
                        <path d="M0.7,0.5 C7.6,1 14.1,2.4 18.8,4.7 C20.3,5.3 22.7,3.9 23.3,2.5 C16.7,0.6 8.5,-0.1 0.7,0.5 Z" id="XMLID_224_"></path>
                    </g>
                </g>
            </g>
            <g id="XMLID_46_" transform="translate(490.000000, 314.000000)" fill="#37605D" fill-rule="nonzero">
                <g id="XMLID_168_">
                    <g id="XMLID_169_">
                        <path d="M0.9,4.5 C0.6,4.1 0.3,3.8 0,3.5 C3.7,-0.2 10.6,0.2 13.6,4.5 C33.6,34.1 35.2,45.3 34.1,57.1 C33.9,58.6 31.2,60.3 29.5,59.7 C27.2,58.5 24.4,57.6 21.4,56.9 C22.5,45.1 20.8,33.9 0.9,4.5 Z" id="XMLID_170_"></path>
                    </g>
                </g>
            </g>
            <path d="M522.4,371.1 C523.5,359.2 521.9,348 501.9,318.5 C498.6,313.8 490.7,313.8 487.4,318.5 C467.4,348.1 465.8,359.3 466.9,371.1 C467.1,372.6 469.8,374.3 471.5,373.7 C483,367.8 506.3,367.8 517.8,373.7 C519.5,374.3 522.2,372.7 522.4,371.1 Z" id="XMLID_17_" stroke="#601B23" stroke-width="6" stroke-linecap="round" stroke-linejoin="round"></path>
            <path d="M517.2,335.2 C564.3,258.1 581.4,182.4 570.8,119.3 C561.6,64.5 532,25 494.6,0.3 C457.2,25 427.6,64.5 418.4,119.3 C407.8,182.4 425,258.1 472,335.2 L517.2,335.2 Z" id="XMLID_15_" fill="#ED2F25" fill-rule="nonzero"></path>
            <path d="M454.2,120.4 C460.2,70.8 475.8,31.4 496.8,1.9 C496.1,1.4 495.3,0.9 494.6,0.4 C457.2,25.1 427.6,64.6 418.4,119.4 C407.8,182.5 425,258.2 472,335.3 L481.5,335.3 C455.4,258.2 446.6,184.1 454.2,120.4 Z" id="XMLID_20_" fill="#F4A15D" fill-rule="nonzero" opacity="0.23"></path>
            <path d="M570.8,119.3 C561.7,64.9 532.5,25.6 495.4,0.9 C502.3,12 511.1,28 518.5,48.3 C532,85.2 533.5,115.6 534.3,134.7 C537.9,220.6 505,315.6 498.1,335.3 L517.2,335.3 C564.3,258.1 581.4,182.4 570.8,119.3 Z" id="XMLID_54_" fill="#A5143A" fill-rule="nonzero" opacity="0.37"></path>
            <path d="M570.8,119.3 C561.6,64.5 532,25 494.6,0.3 C493.6,0.9 492.7,1.6 491.7,2.2 C505.9,13.3 516.7,25.2 524.9,36.6 C598.5,139 527.9,292.3 518.2,312.6 C517.8,298.8 516,281.7 510.9,262.6 C507.6,250.4 503.6,239.7 499.6,230.6 C498.1,264.5 496.6,298.4 495.1,332.3 L507.5,332.3 C507.2,333.3 506.9,334.2 506.5,335.2 L517,335.2 C564.3,258.1 581.4,182.4 570.8,119.3 Z" id="XMLID_5_" fill="#A5143A" fill-rule="nonzero" opacity="0.72"></path>
            <path d="M431,136.7 C432.4,120.7 437.6,68.7 469.7,26 C474.8,19.3 482.4,10.2 481.8,9.7 C480.9,8.9 463.3,24.8 450.8,41.7 C435.1,62.8 423.6,88.7 418.5,119.3 C407.9,182.4 425.1,258.1 472.1,335.2 L476.2,335.2 C463.3,309.5 454.8,286.3 449,268 C445.2,255.7 438.5,233.9 434.3,204.7 C431.6,185.1 428.6,164.1 431,136.7 Z" id="XMLID_6_" fill="#F4A15D" fill-rule="nonzero" opacity="0.32"></path>
            <circle id="XMLID_13_" stroke="#A5143A" stroke-width="6" fill="#A5143A" fill-rule="nonzero" opacity="0.72" stroke-linecap="round" stroke-linejoin="round" cx="500" cy="130.1" r="27.2"></circle>
            <path d="M517.2,335.2 C564.3,258.1 581.4,182.4 570.8,119.3 C561.6,64.5 532,25 494.6,0.3 C457.2,25 427.6,64.5 418.4,119.3 C407.8,182.4 425,258.1 472,335.2 L517.2,335.2 Z" id="XMLID_11_" stroke="#601B23" stroke-width="6" stroke-linecap="round" stroke-linejoin="round"></path>
            <circle id="XMLID_25_" fill="#ABCFD8" fill-rule="nonzero" cx="494.6" cy="125.9" r="27.2"></circle>
            <circle id="XMLID_26_" fill="#E2F0F2" fill-rule="nonzero" opacity="0.93" cx="490.9" cy="124.4" r="16.4"></circle>
            <circle id="XMLID_1_" stroke="#601B23" stroke-width="6" stroke-linecap="round" stroke-linejoin="round" cx="494.6" cy="125.9" r="27.2"></circle>
            <path d="M456.2,34.8 C481.1,26.2 508.4,26.2 533.3,34.9 C522,21.2 508.9,9.7 494.7,0.3 C480.5,9.7 467.4,21.2 456.2,34.8 Z" id="XMLID_44_" fill="#601B23" fill-rule="nonzero"></path>
            <path d="M456.2,34.8 C481.1,26.2 508.4,26.2 533.3,34.9 C522,21.2 508.9,9.7 494.7,0.3 C480.5,9.7 467.4,21.2 456.2,34.8 Z" id="XMLID_23_" stroke="#601B23" stroke-width="6" stroke-linecap="round" stroke-linejoin="round"></path>
            <path d="M494.6,382 L494.6,382 C495.7,382 496.6,380.8 496.7,379.2 L504.2,256.8 C505,244.2 501,232.5 495.1,229.7 C494.7,229.5 494.3,229.5 494,229.7 C488.1,232.4 484.1,244.1 484.9,256.8 L492.4,379.2 C492.6,380.8 493.6,382 494.6,382 Z" id="XMLID_18_" fill="#BC1D4E" fill-rule="nonzero"></path>
            <path d="M494.6,382 L494.6,382 C495.7,382 496.6,380.8 496.7,379.2 L504.2,256.8 C505,244.2 501,232.5 495.1,229.7 C494.7,229.5 494.3,229.5 494,229.7 C488.1,232.4 484.1,244.1 484.9,256.8 L492.4,379.2 C492.6,380.8 493.6,382 494.6,382 Z" id="XMLID_2_" fill="#A5143A" fill-rule="nonzero" opacity="0.74"></path>
            <g id="XMLID_8_" opacity="0.53" transform="translate(484.000000, 229.000000)" fill="#F4A15D" fill-rule="nonzero">
                <g id="XMLID_199_">
                    <g id="XMLID_202_">
                        <path d="M10.1,0.7 C4.2,3.4 0.2,15.1 1,27.8 L8.5,150.2 C8.6,151.5 9.2,152.6 10,152.9 L10,0.7 L10.1,0.7 Z" id="XMLID_203_"></path>
                    </g>
                    <g id="XMLID_200_" transform="translate(10.000000, 0.000000)">
                        <path d="M0.1,0.7 L1.2,0.7 C0.8,0.5 0.4,0.5 0.1,0.7 Z" id="XMLID_201_"></path>
                    </g>
                </g>
            </g>
            <path d="M494.6,382 L494.6,382 C495.7,382 496.6,380.8 496.7,379.2 L504.2,256.8 C505,244.2 501,232.5 495.1,229.7 C494.7,229.5 494.3,229.5 494,229.7 C488.1,232.4 484.1,244.1 484.9,256.8 L492.4,379.2 C492.6,380.8 493.6,382 494.6,382 Z" id="XMLID_27_" stroke="#601B23" stroke-width="6" stroke-linecap="round" stroke-linejoin="round"></path>
            <path d="M641.4,236.7 C631.2,221.9 625.3,204.4 625.3,185.7 C625.3,162 634.6,140.3 650.1,123.6 C665.6,140.3 675,162 675.1,185.7 C675.1,204.5 669.2,221.9 659.1,236.7 L641.4,236.7 Z" id="XMLID_255_" fill="#CF264D" fill-rule="nonzero"></path>
            <path d="M641.4,236.7 C631.2,221.9 625.3,204.4 625.3,185.7 C625.3,162 634.6,140.3 650.1,123.6 C665.6,140.3 675,162 675.1,185.7 C675.1,204.5 669.2,221.9 659.1,236.7 L641.4,236.7 Z" id="XMLID_249_" fill="#ED2F25" fill-rule="nonzero"></path>
            <path d="M648.7,123.6 C649.9,124.9 651.1,126.3 652.2,127.7 C641.8,143.7 635.8,162.5 635.7,182.5 C635.7,202.3 638.7,220.8 648.9,236.8 L639.7,236.8 C629.6,222 623.7,204.5 623.7,185.8 C623.7,162 633.1,140.3 648.7,123.6 Z" id="XMLID_245_" fill="#F4A15D" fill-rule="nonzero" opacity="0.23"></path>
            <path d="M648.7,123.6 C649.1,124 649.5,124.5 649.9,125 C638.2,142.3 631.5,162.6 631.4,184.4 C631.4,203.3 636.5,221.1 645.4,236.8 L639.7,236.8 C629.6,222 623.7,204.5 623.7,185.8 C623.7,162 633.1,140.3 648.7,123.6 Z" id="XMLID_242_" fill="#F4A15D" fill-rule="nonzero" opacity="0.32"></path>
            <path d="M675.1,185.7 C675.1,162 665.7,140.4 650.1,123.6 C648.9,124.9 647.7,126.3 646.6,127.7 C657,143.7 663,162.5 663.1,182.5 C663.1,202.3 657.3,220.8 647.1,236.8 L659.1,236.8 C669.2,221.9 675.1,204.4 675.1,185.7 Z" id="XMLID_239_" fill="#A5143A" fill-rule="nonzero" opacity="0.37"></path>
            <path d="M675.1,185.7 C675.1,162 665.7,140.4 650.1,123.6 C649.7,124 649.3,124.5 648.9,125 C660.6,142.3 667.3,162.6 667.4,184.4 C667.4,203.3 662.3,221.1 653.4,236.8 L659.1,236.8 C669.2,221.9 675.1,204.4 675.1,185.7 Z" id="XMLID_236_" fill="#A5143A" fill-rule="nonzero" opacity="0.72"></path>
            <path d="M650.1,123.6 C648.9,124.9 647.7,126.3 646.6,127.7 C657,143.7 663,162.5 663.1,182.5 C663.1,202.3 657.3,220.8 647.1,236.8 L659.1,236.8 C669.2,222 675.1,204.5 675.1,185.8 C675.1,162 665.7,140.3 650.1,123.6 Z" id="XMLID_233_" fill="#A5143A" fill-rule="nonzero" opacity="0.37"></path>
            <path d="M650.1,123.6 C649.7,124 649.3,124.5 648.9,125 C660.6,142.3 667.3,162.6 667.4,184.4 C667.4,203.3 662.3,221.1 653.4,236.8 L659.1,236.8 C669.2,222 675.1,204.5 675.1,185.8 C675.1,162 665.7,140.3 650.1,123.6 Z" id="XMLID_230_" fill="#A5143A" fill-rule="nonzero" opacity="0.72"></path>
            <path d="M663.4,141.6 C659.7,135.1 655.3,129.1 650.2,123.5 C645.1,129 640.7,135.1 637,141.6 L663.4,141.6 Z" id="XMLID_227_" fill="#601B23" fill-rule="nonzero"></path>
            <path d="M641.4,236.7 C631.2,221.9 625.3,204.4 625.3,185.7 C625.3,162 634.6,140.3 650.1,123.6 C665.6,140.3 675,162 675.1,185.7 C675.1,204.5 669.2,221.9 659.1,236.7 L641.4,236.7 Z" id="XMLID_219_" stroke="#601B23" stroke-width="6" stroke-linecap="round" stroke-linejoin="round"></path>
            <line x1="633.8" y1="223.5" x2="666.7" y2="223.5" id="XMLID_210_" stroke="#601B23" stroke-width="4" stroke-linecap="round" stroke-linejoin="round"></line>
            <path d="M463.8,31.4 C463.8,31.4 470.6,20.7 493.7,2.7 C483,17.2 480.9,26.3 480.2,27 C473.4,28.3 463.8,31.4 463.8,31.4 Z" id="XMLID_228_" fill="#FFFFFF" fill-rule="nonzero" opacity="0.41"></path>
        </g>
    </g>
</svg>