<?xml version="1.0" encoding="UTF-8"?>
<svg width="482px" height="522px" viewBox="0 0 482 522" version="1.1" xmlns="http://www.w3.org/2000/svg" xmlns:xlink="http://www.w3.org/1999/xlink">
    <!-- Generator: Sketch 61 (89581) - https://sketch.com -->
    <title>Slice 1</title>
    <desc>Created with Sketch.</desc>
    <g id="Page-1" stroke="none" stroke-width="1" fill="none" fill-rule="evenodd">
        <g id="day69-dotted-notebook-75b05391a7fd539c122cafcb2c8ca620" transform="translate(37.000000, -236.000000)">
            <g id="Group">
                <rect id="XMLID_49_" stroke="#0A7362" stroke-width="8" fill="#0A7362" fill-rule="nonzero" stroke-linecap="round" stroke-linejoin="round" x="9" y="361" width="32" height="151"></rect>
                <path d="M41.4,614 C30.6,614 19.7,614 8.9,614 C6.8,592 6.8,569 8.9,546 C19.7,546 30.6,546 41.4,546 C43.5,569 43.5,592 41.4,614 Z" id="XMLID_48_" stroke="#0A7362" stroke-width="8" fill="#0A7362" fill-rule="nonzero" stroke-linecap="round" stroke-linejoin="round"></path>
                <path d="M41.4,546 C30.6,546 19.7,546 8.9,546 C15.6,536 15.6,523 8.9,512 C19.7,512 30.6,512 41.4,512 C34.7,523 34.7,536 41.4,546 Z" id="XMLID_47_" stroke="#0A7362" stroke-width="8" fill="#0A7362" fill-rule="nonzero" stroke-linecap="round" stroke-linejoin="round"></path>
                <path d="M29.3,661 C34.7,645 41.2,630 41.4,614 L8.9,614 C9.1,630 15.6,645 21,661 L29.3,661 Z" id="XMLID_46_" stroke="#0A7362" stroke-width="8" fill="#0A7362" fill-rule="nonzero" stroke-linecap="round" stroke-linejoin="round"></path>
                <rect id="XMLID_45_" stroke="#0A7362" stroke-width="8" fill="#0A7362" fill-rule="nonzero" stroke-linecap="round" stroke-linejoin="round" x="21" y="661" width="8" height="6"></rect>
                <line x1="25" y1="668" x2="25" y2="681" id="XMLID_44_" stroke="#0A7362" stroke-width="8" stroke-linecap="round" stroke-linejoin="round"></line>
                <rect id="XMLID_43_" stroke="#0A7362" stroke-width="8" fill="#0A7362" fill-rule="nonzero" stroke-linecap="round" stroke-linejoin="round" x="13" y="339" width="24" height="22"></rect>
                <path d="M34,339 L16,339 L16,313.3 C16,309.8 19.2,307 22.7,307 L27.7,307 C31.2,307 34,309.8 34,313.3 L34,339 Z" id="XMLID_42_" stroke="#0A7362" stroke-width="8" fill="#0A7362" fill-rule="nonzero" stroke-linecap="round" stroke-linejoin="round"></path>
                <rect id="XMLID_41_" stroke="#0A7362" stroke-width="8" fill="#0A7362" fill-rule="nonzero" stroke-linecap="round" stroke-linejoin="round" x="21" y="375" width="31" height="18"></rect>
                <polygon id="XMLID_40_" stroke="#0A7362" stroke-width="8" fill="#0A7362" fill-rule="nonzero" stroke-linecap="round" stroke-linejoin="round" points="52 454.3 41 439.8 41 393 52 393"></polygon>
                <path d="M34.4,541 C23.6,541 12.7,541 1.9,541 C8.6,531 8.6,518 1.9,507 C12.7,507 23.6,507 34.4,507 C27.7,518 27.7,531 34.4,541 Z" id="XMLID_24_" fill="#102D3B" fill-rule="nonzero"></path>
                <path d="M386,688 L110,688 L110,292 L386,292 C395.9,292 404,299.8 404,309.7 L404,669.7 C404,679.7 395.9,688 386,688 Z" id="XMLID_38_" stroke="#0A7362" stroke-width="8" fill="#0A7362" fill-rule="nonzero" stroke-linecap="round" stroke-linejoin="round"></path>
                <path d="M347,696 L333,696 C330.2,696 328,693.8 328,691 L328,289 C328,286.2 330.2,284 333,284 L347,284 C349.8,284 352,286.2 352,289 L352,691 C352,693.8 349.8,696 347,696 Z" id="XMLID_36_" stroke="#0A7362" stroke-width="8" fill="#0A7362" fill-rule="nonzero" stroke-linecap="round" stroke-linejoin="round"></path>
                <polygon id="XMLID_34_" stroke="#0A7362" stroke-width="8" fill="#0A7362" fill-rule="nonzero" stroke-linecap="round" stroke-linejoin="round" points="171 733.7 141 717 141 688 171 688"></polygon>
                <path d="M376,673 L100,673 L100,277 L376,277 C385.9,277 394,284.8 394,294.7 L394,654.7 C394,664.7 385.9,673 376,673 Z" id="XMLID_19_" fill="#4C5B60" fill-rule="nonzero"></path>
                <rect id="XMLID_54_" fill="#3E4B4F" fill-rule="nonzero" x="329" y="277" width="24" height="396"></rect>
                <rect id="XMLID_50_" fill="#CCDDE5" fill-rule="nonzero" opacity="0.3" x="100" y="277" width="17" height="396"></rect>
                <g id="XMLID_57_" opacity="0.11" transform="translate(69.000000, 0.000000)" fill="#102D3B" fill-rule="nonzero">
                    <g id="Group" transform="translate(0.000000, 630.000000)">
                        <path d="M2.4,347.6 C2,347.6 1.6,347.5 1.3,347.2 C0.7,346.6 0.7,345.7 1.3,345.1 L345.7,0.8 C346.3,0.2 347.2,0.2 347.8,0.8 C348.4,1.4 348.4,2.3 347.8,2.9 L3.5,347.2 C3.2,347.5 2.8,347.6 2.4,347.6 Z" id="Path"></path>
                    </g>
                    <g id="Group" transform="translate(0.000000, 616.000000)">
                        <path d="M2.4,347.6 C2,347.6 1.6,347.5 1.3,347.2 C0.7,346.6 0.7,345.7 1.3,345.1 L345.7,0.8 C346.3,0.2 347.2,0.2 347.8,0.8 C348.4,1.4 348.4,2.3 347.8,2.9 L3.5,347.2 C3.2,347.5 2.8,347.6 2.4,347.6 Z" id="Path"></path>
                    </g>
                    <g id="Group" transform="translate(0.000000, 602.000000)">
                        <path d="M2.4,347.6 C2,347.6 1.6,347.5 1.3,347.2 C0.7,346.6 0.7,345.7 1.3,345.1 L345.7,0.8 C346.3,0.2 347.2,0.2 347.8,0.8 C348.4,1.4 348.4,2.3 347.8,2.9 L3.5,347.2 C3.2,347.5 2.8,347.6 2.4,347.6 Z" id="Path"></path>
                    </g>
                    <g id="Group" transform="translate(0.000000, 588.000000)">
                        <path d="M2.4,347.6 C2,347.6 1.6,347.5 1.3,347.2 C0.7,346.6 0.7,345.7 1.3,345.1 L345.7,0.8 C346.3,0.2 347.2,0.2 347.8,0.8 C348.4,1.4 348.4,2.3 347.8,2.9 L3.5,347.2 C3.2,347.5 2.8,347.6 2.4,347.6 Z" id="Path"></path>
                    </g>
                    <g id="Group" transform="translate(0.000000, 574.000000)">
                        <path d="M2.4,347.6 C2,347.6 1.6,347.5 1.3,347.2 C0.7,346.6 0.7,345.7 1.3,345.1 L345.7,0.8 C346.3,0.2 347.2,0.2 347.8,0.8 C348.4,1.4 348.4,2.3 347.8,2.9 L3.5,347.2 C3.2,347.5 2.8,347.6 2.4,347.6 Z" id="Path"></path>
                    </g>
                    <g id="Group" transform="translate(0.000000, 560.000000)">
                        <path d="M2.4,347.6 C2,347.6 1.6,347.5 1.3,347.2 C0.7,346.6 0.7,345.7 1.3,345.1 L345.7,0.8 C346.3,0.2 347.2,0.2 347.8,0.8 C348.4,1.4 348.4,2.3 347.8,2.9 L3.5,347.2 C3.2,347.5 2.8,347.6 2.4,347.6 Z" id="Path"></path>
                    </g>
                    <g id="Group" transform="translate(0.000000, 546.000000)">
                        <path d="M2.4,347.6 C2,347.6 1.6,347.5 1.3,347.2 C0.7,346.6 0.7,345.7 1.3,345.1 L345.7,0.8 C346.3,0.2 347.2,0.2 347.8,0.8 C348.4,1.4 348.4,2.3 347.8,2.9 L3.5,347.2 C3.2,347.5 2.8,347.6 2.4,347.6 Z" id="Path"></path>
                    </g>
                    <g id="Group" transform="translate(0.000000, 532.000000)">
                        <path d="M2.4,347.6 C2,347.6 1.6,347.5 1.3,347.2 C0.7,346.6 0.7,345.7 1.3,345.1 L345.7,0.8 C346.3,0.2 347.2,0.2 347.8,0.8 C348.4,1.4 348.4,2.3 347.8,2.9 L3.5,347.2 C3.2,347.5 2.8,347.6 2.4,347.6 Z" id="Path"></path>
                    </g>
                    <g id="Group" transform="translate(0.000000, 518.000000)">
                        <path d="M2.4,347.6 C2,347.6 1.6,347.5 1.3,347.2 C0.7,346.6 0.7,345.7 1.3,345.1 L345.7,0.8 C346.3,0.2 347.2,0.2 347.8,0.8 C348.4,1.4 348.4,2.3 347.8,2.9 L3.5,347.2 C3.2,347.5 2.8,347.6 2.4,347.6 Z" id="Path"></path>
                    </g>
                    <g id="Group" transform="translate(0.000000, 504.000000)">
                        <path d="M2.4,347.6 C2,347.6 1.6,347.5 1.3,347.2 C0.7,346.6 0.7,345.7 1.3,345.1 L345.7,0.8 C346.3,0.2 347.2,0.2 347.8,0.8 C348.4,1.4 348.4,2.3 347.8,2.9 L3.5,347.2 C3.2,347.5 2.8,347.6 2.4,347.6 Z" id="Path"></path>
                    </g>
                    <g id="Group" transform="translate(0.000000, 490.000000)">
                        <path d="M2.4,347.6 C2,347.6 1.6,347.5 1.3,347.2 C0.7,346.6 0.7,345.7 1.3,345.1 L345.7,0.8 C346.3,0.2 347.2,0.2 347.8,0.8 C348.4,1.4 348.4,2.3 347.8,2.9 L3.5,347.2 C3.2,347.5 2.8,347.6 2.4,347.6 Z" id="Path"></path>
                    </g>
                    <g id="Group" transform="translate(0.000000, 476.000000)">
                        <path d="M2.4,347.6 C2,347.6 1.6,347.5 1.3,347.2 C0.7,346.6 0.7,345.7 1.3,345.1 L345.7,0.8 C346.3,0.2 347.2,0.2 347.8,0.8 C348.4,1.4 348.4,2.3 347.8,2.9 L3.5,347.2 C3.2,347.5 2.8,347.6 2.4,347.6 Z" id="Path"></path>
                    </g>
                    <g id="Group" transform="translate(0.000000, 462.000000)">
                        <path d="M2.4,347.6 C2,347.6 1.6,347.5 1.3,347.2 C0.7,346.6 0.7,345.7 1.3,345.1 L345.7,0.8 C346.3,0.2 347.2,0.2 347.8,0.8 C348.4,1.4 348.4,2.3 347.8,2.9 L3.5,347.2 C3.2,347.5 2.8,347.6 2.4,347.6 Z" id="Path"></path>
                    </g>
                    <g id="Group" transform="translate(0.000000, 448.000000)">
                        <path d="M2.4,347.6 C2,347.6 1.6,347.5 1.3,347.2 C0.7,346.6 0.7,345.7 1.3,345.1 L345.7,0.8 C346.3,0.2 347.2,0.2 347.8,0.8 C348.4,1.4 348.4,2.3 347.8,2.9 L3.5,347.2 C3.2,347.5 2.8,347.6 2.4,347.6 Z" id="Path"></path>
                    </g>
                    <g id="Group" transform="translate(0.000000, 434.000000)">
                        <path d="M2.4,347.6 C2,347.6 1.6,347.5 1.3,347.2 C0.7,346.6 0.7,345.7 1.3,345.1 L345.7,0.8 C346.3,0.2 347.2,0.2 347.8,0.8 C348.4,1.4 348.4,2.3 347.8,2.9 L3.5,347.2 C3.2,347.5 2.8,347.6 2.4,347.6 Z" id="Path"></path>
                    </g>
                    <g id="Group" transform="translate(0.000000, 420.000000)">
                        <path d="M2.4,347.6 C2,347.6 1.6,347.5 1.3,347.2 C0.7,346.6 0.7,345.7 1.3,345.1 L345.7,0.8 C346.3,0.2 347.2,0.2 347.8,0.8 C348.4,1.4 348.4,2.3 347.8,2.9 L3.5,347.2 C3.2,347.5 2.8,347.6 2.4,347.6 Z" id="Path"></path>
                    </g>
                    <g id="Group" transform="translate(0.000000, 406.000000)">
                        <path d="M2.4,347.6 C2,347.6 1.6,347.5 1.3,347.2 C0.7,346.6 0.7,345.7 1.3,345.1 L345.7,0.8 C346.3,0.2 347.2,0.2 347.8,0.8 C348.4,1.4 348.4,2.3 347.8,2.9 L3.5,347.2 C3.2,347.5 2.8,347.6 2.4,347.6 Z" id="Path"></path>
                    </g>
                    <g id="Group" transform="translate(0.000000, 392.000000)">
                        <path d="M2.4,347.6 C2,347.6 1.6,347.5 1.3,347.2 C0.7,346.6 0.7,345.7 1.3,345.1 L345.7,0.8 C346.3,0.2 347.2,0.2 347.8,0.8 C348.4,1.4 348.4,2.3 347.8,2.9 L3.5,347.2 C3.2,347.5 2.8,347.6 2.4,347.6 Z" id="Path"></path>
                    </g>
                    <g id="Group" transform="translate(0.000000, 378.000000)">
                        <path d="M2.4,347.6 C2,347.6 1.6,347.5 1.3,347.2 C0.7,346.6 0.7,345.7 1.3,345.1 L345.7,0.8 C346.3,0.2 347.2,0.2 347.8,0.8 C348.4,1.4 348.4,2.3 347.8,2.9 L3.5,347.2 C3.2,347.5 2.8,347.6 2.4,347.6 Z" id="Path"></path>
                    </g>
                    <g id="Group" transform="translate(0.000000, 364.000000)">
                        <path d="M2.4,347.6 C2,347.6 1.6,347.5 1.3,347.2 C0.7,346.6 0.7,345.7 1.3,345.1 L345.7,0.8 C346.3,0.2 347.2,0.2 347.8,0.8 C348.4,1.4 348.4,2.3 347.8,2.9 L3.5,347.2 C3.2,347.5 2.8,347.6 2.4,347.6 Z" id="Path"></path>
                    </g>
                    <g id="Group" transform="translate(0.000000, 350.000000)">
                        <path d="M2.4,347.6 C2,347.6 1.6,347.5 1.3,347.2 C0.7,346.6 0.7,345.7 1.3,345.1 L345.7,0.8 C346.3,0.2 347.2,0.2 347.8,0.8 C348.4,1.4 348.4,2.3 347.8,2.9 L3.5,347.2 C3.2,347.5 2.8,347.6 2.4,347.6 Z" id="Path"></path>
                    </g>
                    <g id="Group" transform="translate(0.000000, 336.000000)">
                        <path d="M2.4,347.6 C2,347.6 1.6,347.5 1.3,347.2 C0.7,346.6 0.7,345.7 1.3,345.1 L345.7,0.8 C346.3,0.2 347.2,0.2 347.8,0.8 C348.4,1.4 348.4,2.3 347.8,2.9 L3.5,347.2 C3.2,347.5 2.8,347.6 2.4,347.6 Z" id="Path"></path>
                    </g>
                    <g id="Group" transform="translate(0.000000, 322.000000)">
                        <path d="M2.4,347.6 C2,347.6 1.6,347.5 1.3,347.2 C0.7,346.6 0.7,345.7 1.3,345.1 L345.7,0.8 C346.3,0.2 347.2,0.2 347.8,0.8 C348.4,1.4 348.4,2.3 347.8,2.9 L3.5,347.2 C3.2,347.5 2.8,347.6 2.4,347.6 Z" id="Path"></path>
                    </g>
                    <g id="Group" transform="translate(0.000000, 308.000000)">
                        <path d="M2.4,347.6 C2,347.6 1.6,347.5 1.3,347.2 C0.7,346.6 0.7,345.7 1.3,345.1 L345.7,0.8 C346.3,0.2 347.2,0.2 347.8,0.8 C348.4,1.4 348.4,2.3 347.8,2.9 L3.5,347.2 C3.2,347.5 2.8,347.6 2.4,347.6 Z" id="Path"></path>
                    </g>
                    <g id="Group" transform="translate(0.000000, 294.000000)">
                        <path d="M2.4,347.6 C2,347.6 1.6,347.5 1.3,347.2 C0.7,346.6 0.7,345.7 1.3,345.1 L345.7,0.8 C346.3,0.2 347.2,0.2 347.8,0.8 C348.4,1.4 348.4,2.3 347.8,2.9 L3.5,347.2 C3.2,347.5 2.8,347.6 2.4,347.6 Z" id="Path"></path>
                    </g>
                    <g id="Group" transform="translate(0.000000, 280.000000)">
                        <path d="M2.4,347.6 C2,347.6 1.6,347.5 1.3,347.2 C0.7,346.6 0.7,345.7 1.3,345.1 L345.7,0.8 C346.3,0.2 347.2,0.2 347.8,0.8 C348.4,1.4 348.4,2.3 347.8,2.9 L3.5,347.2 C3.2,347.5 2.8,347.6 2.4,347.6 Z" id="Path"></path>
                    </g>
                    <g id="Group" transform="translate(0.000000, 266.000000)">
                        <path d="M2.4,347.6 C2,347.6 1.6,347.5 1.3,347.2 C0.7,346.6 0.7,345.7 1.3,345.1 L345.7,0.8 C346.3,0.2 347.2,0.2 347.8,0.8 C348.4,1.4 348.4,2.3 347.8,2.9 L3.5,347.2 C3.2,347.5 2.8,347.6 2.4,347.6 Z" id="Path"></path>
                    </g>
                    <g id="Group" transform="translate(0.000000, 252.000000)">
                        <path d="M2.4,347.6 C2,347.6 1.6,347.5 1.3,347.2 C0.7,346.6 0.7,345.7 1.3,345.1 L345.7,0.8 C346.3,0.2 347.2,0.2 347.8,0.8 C348.4,1.4 348.4,2.3 347.8,2.9 L3.5,347.2 C3.2,347.5 2.8,347.6 2.4,347.6 Z" id="Path"></path>
                    </g>
                    <g id="Group" transform="translate(0.000000, 238.000000)">
                        <path d="M2.4,347.6 C2,347.6 1.6,347.5 1.3,347.2 C0.7,346.6 0.7,345.7 1.3,345.1 L345.7,0.8 C346.3,0.2 347.2,0.2 347.8,0.8 C348.4,1.4 348.4,2.3 347.8,2.9 L3.5,347.2 C3.2,347.5 2.8,347.6 2.4,347.6 Z" id="Path"></path>
                    </g>
                    <g id="Group" transform="translate(0.000000, 224.000000)">
                        <path d="M2.4,347.6 C2,347.6 1.6,347.5 1.3,347.2 C0.7,346.6 0.7,345.7 1.3,345.1 L345.7,0.8 C346.3,0.2 347.2,0.2 347.8,0.8 C348.4,1.4 348.4,2.3 347.8,2.9 L3.5,347.2 C3.2,347.5 2.8,347.6 2.4,347.6 Z" id="Path"></path>
                    </g>
                    <g id="Group" transform="translate(0.000000, 210.000000)">
                        <path d="M2.4,347.6 C2,347.6 1.6,347.5 1.3,347.2 C0.7,346.6 0.7,345.7 1.3,345.1 L345.7,0.8 C346.3,0.2 347.2,0.2 347.8,0.8 C348.4,1.4 348.4,2.3 347.8,2.9 L3.5,347.2 C3.2,347.5 2.8,347.6 2.4,347.6 Z" id="Path"></path>
                    </g>
                    <g id="Group" transform="translate(0.000000, 196.000000)">
                        <path d="M2.4,347.6 C2,347.6 1.6,347.5 1.3,347.2 C0.7,346.6 0.7,345.7 1.3,345.1 L345.7,0.8 C346.3,0.2 347.2,0.2 347.8,0.8 C348.4,1.4 348.4,2.3 347.8,2.9 L3.5,347.2 C3.2,347.5 2.8,347.6 2.4,347.6 Z" id="Path"></path>
                    </g>
                    <g id="Group" transform="translate(0.000000, 182.000000)">
                        <path d="M2.4,347.6 C2,347.6 1.6,347.5 1.3,347.2 C0.7,346.6 0.7,345.7 1.3,345.1 L345.7,0.8 C346.3,0.2 347.2,0.2 347.8,0.8 C348.4,1.4 348.4,2.3 347.8,2.9 L3.5,347.2 C3.2,347.5 2.8,347.6 2.4,347.6 Z" id="Path"></path>
                    </g>
                    <g id="Group" transform="translate(0.000000, 168.000000)">
                        <path d="M2.4,347.6 C2,347.6 1.6,347.5 1.3,347.2 C0.7,346.6 0.7,345.7 1.3,345.1 L345.7,0.8 C346.3,0.2 347.2,0.2 347.8,0.8 C348.4,1.4 348.4,2.3 347.8,2.9 L3.5,347.2 C3.2,347.5 2.8,347.6 2.4,347.6 Z" id="Path"></path>
                    </g>
                    <g id="Group" transform="translate(0.000000, 154.000000)">
                        <path d="M2.4,347.6 C2,347.6 1.6,347.5 1.3,347.2 C0.7,346.6 0.7,345.7 1.3,345.1 L345.7,0.8 C346.3,0.2 347.2,0.2 347.8,0.8 C348.4,1.4 348.4,2.3 347.8,2.9 L3.5,347.2 C3.2,347.5 2.8,347.6 2.4,347.6 Z" id="Path"></path>
                    </g>
                    <g id="Group" transform="translate(0.000000, 140.000000)">
                        <path d="M2.4,347.6 C2,347.6 1.6,347.5 1.3,347.2 C0.7,346.6 0.7,345.7 1.3,345.1 L345.7,0.8 C346.3,0.2 347.2,0.2 347.8,0.8 C348.4,1.4 348.4,2.3 347.8,2.9 L3.5,347.2 C3.2,347.5 2.8,347.6 2.4,347.6 Z" id="Path"></path>
                    </g>
                    <g id="Group" transform="translate(0.000000, 126.000000)">
                        <path d="M2.4,347.6 C2,347.6 1.6,347.5 1.3,347.2 C0.7,346.6 0.7,345.7 1.3,345.1 L345.7,0.8 C346.3,0.2 347.2,0.2 347.8,0.8 C348.4,1.4 348.4,2.3 347.8,2.9 L3.5,347.2 C3.2,347.5 2.8,347.6 2.4,347.6 Z" id="Path"></path>
                    </g>
                    <g id="Group" transform="translate(0.000000, 112.000000)">
                        <path d="M2.4,347.6 C2,347.6 1.6,347.5 1.3,347.2 C0.7,346.6 0.7,345.7 1.3,345.1 L345.7,0.7 C346.3,0.1 347.2,0.1 347.8,0.7 C348.4,1.3 348.4,2.2 347.8,2.8 L3.5,347.2 C3.2,347.5 2.8,347.6 2.4,347.6 Z" id="Path"></path>
                    </g>
                    <g id="Group" transform="translate(0.000000, 98.000000)">
                        <path d="M2.4,347.6 C2,347.6 1.6,347.5 1.3,347.2 C0.7,346.6 0.7,345.7 1.3,345.1 L345.7,0.7 C346.3,0.1 347.2,0.1 347.8,0.7 C348.4,1.3 348.4,2.2 347.8,2.8 L3.5,347.2 C3.2,347.5 2.8,347.6 2.4,347.6 Z" id="Path"></path>
                    </g>
                    <g id="Group" transform="translate(0.000000, 84.000000)">
                        <path d="M2.4,347.6 C2,347.6 1.6,347.5 1.3,347.2 C0.7,346.6 0.7,345.7 1.3,345.1 L345.7,0.6 C346.3,0 347.2,0 347.8,0.6 C348.4,1.2 348.4,2.1 347.8,2.7 L3.5,347.2 C3.2,347.5 2.8,347.6 2.4,347.6 Z" id="Path"></path>
                    </g>
                    <g id="Group" transform="translate(0.000000, 70.000000)">
                        <path d="M2.4,347.6 C2,347.6 1.6,347.5 1.3,347.2 C0.7,346.6 0.7,345.7 1.3,345.1 L345.7,0.6 C346.3,0 347.2,0 347.8,0.6 C348.4,1.2 348.4,2.1 347.8,2.7 L3.5,347.2 C3.2,347.5 2.8,347.6 2.4,347.6 Z" id="Path"></path>
                    </g>
                    <g id="Group" transform="translate(0.000000, 56.000000)">
                        <path d="M2.4,347.6 C2,347.6 1.6,347.5 1.3,347.2 C0.7,346.6 0.7,345.7 1.3,345.1 L345.7,0.6 C346.3,0 347.2,0 347.8,0.6 C348.4,1.2 348.4,2.1 347.8,2.7 L3.5,347.2 C3.2,347.5 2.8,347.6 2.4,347.6 Z" id="Path"></path>
                    </g>
                    <g id="Group" transform="translate(0.000000, 42.000000)">
                        <path d="M2.4,347.6 C2,347.6 1.6,347.5 1.3,347.2 C0.7,346.6 0.7,345.7 1.3,345.1 L345.7,0.6 C346.3,0 347.2,0 347.8,0.6 C348.4,1.2 348.4,2.1 347.8,2.7 L3.5,347.2 C3.2,347.5 2.8,347.6 2.4,347.6 Z" id="Path"></path>
                    </g>
                    <g id="Group" transform="translate(0.000000, 28.000000)">
                        <path d="M2.4,347.6 C2,347.6 1.6,347.5 1.3,347.2 C0.7,346.6 0.7,345.7 1.3,345.1 L345.7,0.6 C346.3,0 347.2,0 347.8,0.6 C348.4,1.2 348.4,2.1 347.8,2.7 L3.5,347.2 C3.2,347.5 2.8,347.6 2.4,347.6 Z" id="Path"></path>
                    </g>
                    <g id="Group" transform="translate(0.000000, 14.000000)">
                        <path d="M2.4,347.6 C2,347.6 1.6,347.5 1.3,347.2 C0.7,346.6 0.7,345.7 1.3,345.1 L345.7,0.6 C346.3,0 347.2,0 347.8,0.6 C348.4,1.2 348.4,2.1 347.8,2.7 L3.5,347.2 C3.2,347.5 2.8,347.6 2.4,347.6 Z" id="Path"></path>
                    </g>
                    <g id="Group">
                        <path d="M2.4,347.6 C2,347.6 1.6,347.5 1.3,347.2 C0.7,346.6 0.7,345.7 1.3,345.1 L345.7,0.6 C346.3,0 347.2,0 347.8,0.6 C348.4,1.2 348.4,2.1 347.8,2.7 L3.5,347.2 C3.2,347.5 2.8,347.6 2.4,347.6 Z" id="Path"></path>
                    </g>
                    <g id="Group" transform="translate(0.000000, 17.000000)">
                        <path d="M2.4,316.6 C2,316.6 1.6,316.5 1.3,316.2 C0.7,315.6 0.7,314.7 1.3,314.1 L314.1,1.1 C314.7,0.5 315.6,0.5 316.2,1.1 C316.8,1.7 316.8,2.6 316.2,3.2 L3.5,316.2 C3.2,316.5 2.8,316.6 2.4,316.6 Z" id="Path"></path>
                    </g>
                    <g id="Group" transform="translate(0.000000, 23.000000)">
                        <path d="M2.4,296.6 C2,296.6 1.6,296.5 1.3,296.2 C0.7,295.6 0.7,294.7 1.3,294.1 L294.7,0.6 C295.3,2.77555756e-17 296.2,2.77555756e-17 296.8,0.6 C297.4,1.2 297.4,2.1 296.8,2.7 L3.5,296.2 C3.2,296.5 2.8,296.6 2.4,296.6 Z" id="Path"></path>
                    </g>
                </g>
                <path d="M376,673 L100,673 L100,277 L376,277 C385.9,277 394,284.8 394,294.7 L394,654.7 C394,664.7 385.9,673 376,673 Z" id="XMLID_1_" stroke="#102D3B" stroke-width="8" stroke-linecap="round" stroke-linejoin="round"></path>
                <rect id="XMLID_21_" stroke="#102D3B" stroke-width="8" stroke-linecap="round" stroke-linejoin="round" x="100" y="277" width="34" height="396"></rect>
                <rect id="XMLID_31_" fill="#FF9852" fill-rule="nonzero" x="100" y="391" width="294" height="112"></rect>
                <line x1="134" y1="391" x2="134" y2="503" id="XMLID_53_" stroke="#D85639" stroke-width="8" opacity="0.6"></line>
                <rect id="XMLID_51_" fill="#FDBA5D" fill-rule="nonzero" x="100" y="391" width="17" height="112"></rect>
                <rect id="XMLID_56_" fill="#D85639" fill-rule="nonzero" opacity="0.61" x="336" y="391" width="17" height="112"></rect>
                <rect id="XMLID_3_" stroke="#102D3B" stroke-width="8" stroke-linecap="round" stroke-linejoin="round" x="100" y="391" width="294" height="112"></rect>
                <path d="M336.2,681 L323.9,681 C320.7,681 318.1,678.4 318.1,675.2 L318.1,274.8 C318.1,271.6 320.7,269 323.9,269 L336.2,269 C339.4,269 342,271.6 342,274.8 L342,675.1 C342,678.4 339.4,681 336.2,681 Z" id="XMLID_4_" fill="#B7C8CE" fill-rule="nonzero"></path>
                <path d="M336.2,681 L323.9,681 C320.7,681 318.1,678.4 318.1,675.2 L318.1,274.8 C318.1,271.6 320.7,269 323.9,269 L336.2,269 C339.4,269 342,271.6 342,274.8 L342,675.1 C342,678.4 339.4,681 336.2,681 Z" id="XMLID_2_" stroke="#102D3B" stroke-width="8" stroke-linecap="round" stroke-linejoin="round"></path>
                <polygon id="XMLID_20_" fill="#EA3939" fill-rule="nonzero" points="161 718.7 131 702 131 673 161 673"></polygon>
                <rect id="XMLID_60_" fill="#EA3939" fill-rule="nonzero" opacity="0.62" x="131" y="673" width="30" height="11.3"></rect>
                <polygon id="XMLID_5_" stroke="#102D3B" stroke-width="8" stroke-linecap="round" stroke-linejoin="round" points="161 718.7 131 702 131 673 161 673"></polygon>
                <rect id="XMLID_22_" fill="#526066" fill-rule="nonzero" x="2" y="356" width="32" height="151"></rect>
                <rect id="XMLID_32_" fill="#526066" fill-rule="nonzero" x="2" y="356" width="32" height="151"></rect>
                <rect id="XMLID_33_" fill="#526066" fill-rule="nonzero" opacity="0.64" x="2" y="356" width="10" height="151"></rect>
                <rect id="XMLID_35_" fill="#526066" fill-rule="nonzero" opacity="0.3" x="25" y="356" width="9" height="151"></rect>
                <rect id="XMLID_6_" stroke="#102D3B" stroke-width="8" stroke-linecap="round" stroke-linejoin="round" x="2" y="356" width="32" height="151"></rect>
                <path d="M34.4,609 C23.6,609 12.7,609 1.9,609 C-0.2,587 -0.2,564 1.9,541 C12.7,541 23.6,541 34.4,541 C36.5,564 36.5,587 34.4,609 Z" id="XMLID_23_" fill="#42708A" fill-rule="nonzero"></path>
                <path d="M34.4,609 C23.6,609 12.7,609 1.9,609 C-0.2,587 -0.2,564 1.9,541 C12.7,541 23.6,541 34.4,541 C36.5,564 36.5,587 34.4,609 Z" id="XMLID_25_" fill="#526066" fill-rule="nonzero"></path>
                <path d="M34.4,541 C31.8,541 29.2,541 26.6,541 C28.7,564 28.7,587 26.6,609 C29.2,609 31.8,609 34.4,609 C36.5,587 36.5,564 34.4,541 Z" id="XMLID_59_" fill="#526066" fill-rule="nonzero" opacity="0.3"></path>
                <path d="M13.4,608 C11.8,608 10.3,608 8.7,608 C6.6,586.3 6.6,563.7 8.6,541 C10.2,541 11.8,541 13.4,541 C11.4,563.7 11.4,586.3 13.4,608 Z" id="XMLID_37_" fill="#CCDDE5" fill-rule="nonzero" opacity="0.73"></path>
                <path d="M34.4,609 C23.6,609 12.7,609 1.9,609 C-0.2,587 -0.2,564 1.9,541 C12.7,541 23.6,541 34.4,541 C36.5,564 36.5,587 34.4,609 Z" id="XMLID_10_" stroke="#102D3B" stroke-width="8" stroke-linecap="round" stroke-linejoin="round"></path>
                <rect id="XMLID_8_" stroke="#102D3B" stroke-width="8" stroke-linecap="round" stroke-linejoin="round" x="0" y="565" width="36" height="21"></rect>
                <path d="M34.4,541 C23.6,541 12.7,541 1.9,541 C8.6,531 8.6,518 1.9,507 C12.7,507 23.6,507 34.4,507 C27.7,518 27.7,531 34.4,541 Z" id="XMLID_9_" stroke="#102D3B" stroke-width="8" stroke-linecap="round" stroke-linejoin="round"></path>
                <path d="M22.3,656 C27.7,640 34.2,625 34.4,609 L1.9,609 C2.1,625 8.6,640 14,656 L22.3,656 Z" id="XMLID_26_" fill="#CCDDE5" fill-rule="nonzero"></path>
                <path d="M34.4,609 C34.4,609.3 34.4,609.7 34.4,610 L13,610 C13.1,625.7 15.9,640.7 19.2,656 L14,656 C8.6,640 2.1,625 1.9,609 L34.4,609 Z" id="XMLID_39_" fill="#FFFFFF" fill-rule="nonzero"></path>
                <path d="M22.3,656 C27.7,640 34.2,625 34.4,609 L1.9,609 C2.1,625 8.6,640 14,656 L22.3,656 Z" id="XMLID_14_" stroke="#102D3B" stroke-width="8" stroke-linecap="round" stroke-linejoin="round"></path>
                <rect id="XMLID_11_" stroke="#102D3B" stroke-width="8" stroke-linecap="round" stroke-linejoin="round" x="14" y="656" width="8" height="6"></rect>
                <line x1="18" y1="663" x2="18" y2="676" id="XMLID_13_" stroke="#102D3B" stroke-width="8" stroke-linecap="round" stroke-linejoin="round"></line>
                <rect id="XMLID_12_" stroke="#102D3B" stroke-width="8" stroke-linecap="round" stroke-linejoin="round" x="6" y="334" width="24" height="22"></rect>
                <rect id="XMLID_29_" fill="#102D3B" fill-rule="nonzero" x="6" y="334" width="24" height="22"></rect>
                <path d="M27,334 L9,334 L9,308.3 C9,304.8 12.2,302 15.7,302 L20.7,302 C24.2,302 27,304.8 27,308.3 L27,334 Z" id="XMLID_30_" fill="#CCDDE5" fill-rule="nonzero"></path>
                <path d="M27,334 L9,334 L9,308.3 C9,304.8 12.2,302 15.7,302 L20.7,302 C24.2,302 27,304.8 27,308.3 L27,334 Z" id="XMLID_16_" stroke="#102D3B" stroke-width="8" stroke-linecap="round" stroke-linejoin="round"></path>
                <rect id="XMLID_27_" fill="#CCDDE5" fill-rule="nonzero" x="14" y="370" width="31" height="18"></rect>
                <rect id="XMLID_15_" stroke="#102D3B" stroke-width="8" stroke-linecap="round" stroke-linejoin="round" x="14" y="370" width="31" height="18"></rect>
                <polygon id="XMLID_28_" fill="#CCDDE5" fill-rule="nonzero" points="45 449.3 34 434.8 34 388 45 388"></polygon>
                <polygon id="XMLID_17_" stroke="#102D3B" stroke-width="8" stroke-linecap="round" stroke-linejoin="round" points="45 449.3 34 434.8 34 388 45 388"></polygon>
            </g>
        </g>
        <text id="BROWSER-LONDON" font-family="Gilroy-ExtraBold, Gilroy" font-size="25" font-weight="600" fill="#FFFFFF" fill-opacity="0.6">
            <tspan x="194" y="215">BROWSER</tspan>
            <tspan x="194" y="246">LONDON</tspan>
        </text>
        <text id="N-O-T-E-S" font-family="Gilroy-ExtraBold, Gilroy" font-size="10" font-weight="600" fill="#FFFFFF" fill-opacity="0.6">
            <tspan x="194" y="186">N  O  T  E  S</tspan>
        </text>
    </g>
</svg>