<?xml version="1.0" encoding="UTF-8"?>
<svg width="1000px" height="1000px" viewBox="0 0 1000 1000" version="1.1" xmlns="http://www.w3.org/2000/svg" xmlns:xlink="http://www.w3.org/1999/xlink">
    <!-- Generator: Sketch 61 (89581) - https://sketch.com -->
    <title>Slice 1</title>
    <desc>Created with Sketch.</desc>
    <g id="Page-1" stroke="none" stroke-width="1" fill="none" fill-rule="evenodd">
        <g id="day93-programing-69eb724751d1cc0977d48fcc5f0d8326" transform="translate(160.000000, 345.000000)">
            <g id="XMLID_34_">
                <path d="M629.5,321.3 L9.2,321.3 C4.2,321.3 0.2,317.3 0.2,312.3 L0.2,312.3 C0.2,307.3 4.2,303.3 9.2,303.3 L629.5,303.3 C634.5,303.3 638.5,307.3 638.5,312.3 L638.5,312.3 C638.5,317.3 634.5,321.3 629.5,321.3 Z" id="XMLID_223_" fill="#C9C9C9" fill-rule="nonzero"></path>
                <g id="XMLID_19_" transform="translate(22.000000, 0.000000)">
                    <g id="XMLID_163_" transform="translate(80.000000, 187.000000)">
                        <path d="M23.9,41.3 C14.3,41.3 6.6,33.5 6.6,24 C6.6,14.5 14.4,6.7 23.9,6.7 L121.9,6.7 L121.9,41.4 L23.9,41.4 L23.9,41.3 Z" id="XMLID_178_" fill="#CECECE" fill-rule="nonzero"></path>
                        <path d="M127.6,47.3 L23.9,47.3 C11,47.3 0.6,36.8 0.6,24 L0.6,24 C0.6,11.1 11.1,0.7 23.9,0.7 L127.6,0.7 L127.6,47.3 L127.6,47.3 Z" id="XMLID_162_" fill="#FFFFFF" fill-rule="nonzero"></path>
                        <line x1="17.5" y1="18.6" x2="121.9" y2="18.6" id="XMLID_164_" stroke="#1F3969" stroke-width="4" stroke-linecap="round" stroke-linejoin="round"></line>
                        <line x1="17.5" y1="29.2" x2="121.9" y2="29.2" id="XMLID_173_" stroke="#1F3969" stroke-width="4" stroke-linecap="round" stroke-linejoin="round"></line>
                        <path d="M23.9,41.3 C14.3,41.3 6.6,33.5 6.6,24 C6.6,14.5 14.4,6.7 23.9,6.7 L121.9,6.7 L121.9,41.4 L23.9,41.4 L23.9,41.3 Z" id="XMLID_179_" stroke="#1F3969" stroke-width="4" stroke-linecap="round" stroke-linejoin="round"></path>
                        <path d="M23.9,41.3 C14.3,41.3 6.6,33.5 6.6,24 C6.6,14.5 14.4,6.7 23.9,6.7 L123.6,6.7 L127.6,0.7 L23.9,0.7 C11,0.7 0.6,11.2 0.6,24 L0.6,24 C0.6,36.9 11.1,47.3 23.9,47.3 L127.6,47.3 L123.6,41.3 L23.9,41.3 Z" id="XMLID_161_" fill="#FF3E3E" fill-rule="nonzero"></path>
                        <path d="M23.9,41.3 C14.3,41.3 6.6,33.5 6.6,24 C6.6,14.5 14.4,6.7 23.9,6.7 L123.6,6.7 L127.6,0.7 L23.9,0.7 C11,0.7 0.6,11.2 0.6,24 L0.6,24 C0.6,36.9 11.1,47.3 23.9,47.3 L127.6,47.3 L123.6,41.3 L23.9,41.3 Z" id="XMLID_182_" stroke="#1F3969" stroke-width="4" stroke-linecap="round" stroke-linejoin="round"></path>
                        <rect id="XMLID_224_" stroke="#1F3969" stroke-width="4" fill="#1F3969" fill-rule="nonzero" opacity="0.28" stroke-linecap="round" stroke-linejoin="round" x="86.9" y="0.6" width="18.4" height="46.7"></rect>
                    </g>
                    <g id="XMLID_160_" transform="translate(0.000000, 234.000000)">
                        <path d="M196.9,38.8 L7,38.8 C3.3,38.8 0.2,35.8 0.2,32 L0.2,7 C0.2,3.3 3.2,0.2 7,0.2 L196.9,0.2 C200.6,0.2 203.7,3.2 203.7,7 L203.7,32 C203.7,35.8 200.7,38.8 196.9,38.8 Z" id="XMLID_157_" fill="#50B56F" fill-rule="nonzero"></path>
                        <path d="M196.9,38.8 L7,38.8 C3.3,38.8 0.2,35.8 0.2,32 L0.2,7 C0.2,3.3 3.2,0.2 7,0.2 L196.9,0.2 C200.6,0.2 203.7,3.2 203.7,7 L203.7,32 C203.7,35.8 200.7,38.8 196.9,38.8 Z" id="XMLID_146_" stroke="#1F3969" stroke-width="4" stroke-linecap="round" stroke-linejoin="round"></path>
                    </g>
                    <path d="M196.9,234.3 L166.9,234.3 L166.9,249.3 C166.9,258.7 174.5,266.4 184,266.4 L203.7,266.4 C203.7,266.3 203.7,266.2 203.7,266.1 L203.7,241.1 C203.7,237.3 200.7,234.3 196.9,234.3 Z" id="XMLID_246_" stroke="#1F3969" stroke-width="4" fill="#1F3969" fill-rule="nonzero" opacity="0.28" stroke-linecap="round" stroke-linejoin="round"></path>
                    <path d="M250.4,280.6 L30.4,280.6 C31.7,283.8 32.4,287.8 32.4,292 C32.4,296.2 31.7,300.1 30.4,303.4 L250.3,303.4 C249,300.2 248.3,296.2 248.3,292 C248.4,287.7 249.1,283.8 250.4,280.6 Z" id="XMLID_35_" fill="#CECECE" fill-rule="nonzero"></path>
                    <rect id="XMLID_156_" fill="#5F5AFF" fill-rule="nonzero" x="24.5" y="274.5" width="231.9" height="6"></rect>
                    <rect id="XMLID_32_" stroke="#1F3969" stroke-width="4" stroke-linecap="round" stroke-linejoin="round" x="24.5" y="274.5" width="231.9" height="6"></rect>
                    <rect id="XMLID_147_" fill="#F6F9FD" fill-rule="nonzero" x="24.5" y="303.3" width="231.9" height="6"></rect>
                    <rect id="XMLID_39_" fill="#5F5AFF" fill-rule="nonzero" x="24.5" y="303.3" width="231.9" height="6"></rect>
                    <rect id="XMLID_37_" stroke="#1F3969" stroke-width="4" stroke-linecap="round" stroke-linejoin="round" x="24.5" y="303.3" width="231.9" height="6"></rect>
                    <path d="M371.6,288 L368.6,254.3 L319.2,254.3 L316.2,288 C315.5,295.8 310.8,303.3 303.4,309.3 L303.4,309.4 L384.4,309.4 L384.4,309.3 C377,303.3 372.3,295.8 371.6,288 Z" id="XMLID_69_" fill="#BFCFE2" fill-rule="nonzero"></path>
                    <polygon id="XMLID_33_" stroke="#1F3969" stroke-width="4" fill="#1F3969" fill-rule="nonzero" opacity="0.28" stroke-linecap="round" stroke-linejoin="round" points="319.2 254.3 317.4 274.5 370.4 274.5 368.6 254.3"></polygon>
                    <path d="M371.6,288 L368.6,254.3 L319.2,254.3 L316.2,288 C315.5,295.8 310.8,303.3 303.4,309.3 L303.4,309.4 L384.4,309.4 L384.4,309.3 C377,303.3 372.3,295.8 371.6,288 Z" id="XMLID_10_" stroke="#1F3969" stroke-width="4" stroke-linecap="round" stroke-linejoin="round"></path>
                    <path d="M501.9,259.3 L185.9,259.3 C179.3,259.3 173.9,253.9 173.9,247.3 L173.9,41.3 C173.9,34.7 179.3,29.3 185.9,29.3 L501.9,29.3 C508.5,29.3 513.9,34.7 513.9,41.3 L513.9,247.3 C513.9,254 508.5,259.3 501.9,259.3 Z" id="XMLID_13_" fill="#FFFFFF" fill-rule="nonzero"></path>
                    <path d="M501.9,259.3 L185.9,259.3 C179.3,259.3 173.9,253.9 173.9,247.3 L173.9,41.3 C173.9,34.7 179.3,29.3 185.9,29.3 L501.9,29.3 C508.5,29.3 513.9,34.7 513.9,41.3 L513.9,247.3 C513.9,254 508.5,259.3 501.9,259.3 Z" id="XMLID_63_" fill="#BFCFE2" fill-rule="nonzero"></path>
                    <path d="M501.9,259.3 L185.9,259.3 C179.3,259.3 173.9,253.9 173.9,247.3 L173.9,41.3 C173.9,34.7 179.3,29.3 185.9,29.3 L501.9,29.3 C508.5,29.3 513.9,34.7 513.9,41.3 L513.9,247.3 C513.9,254 508.5,259.3 501.9,259.3 Z" id="XMLID_4_" stroke="#1F3969" stroke-width="4" stroke-linecap="round" stroke-linejoin="round"></path>
                    <rect id="XMLID_68_" fill="#F6F9FD" fill-rule="nonzero" transform="translate(343.955600, 133.628100) rotate(90.000000) translate(-343.955600, -133.628100) " x="256.6556" y="-19.3719" width="174.6" height="306"></rect>
                    <path d="M201.9,29.3 L201.9,167.9 C201.9,172.3 205.5,175.9 209.9,175.9 L399,175.9 C403.4,175.9 407,172.3 407,167.9 L407,29.3 L201.9,29.3 Z" id="XMLID_197_" stroke="#1F3969" stroke-width="4" fill="#1F3969" fill-rule="nonzero" opacity="0.28" stroke-linecap="round" stroke-linejoin="round"></path>
                    <rect id="XMLID_11_" stroke="#1F3969" stroke-width="4" stroke-linecap="round" stroke-linejoin="round" transform="translate(343.955600, 133.628100) rotate(90.000000) translate(-343.955600, -133.628100) " x="256.6556" y="-19.3719" width="174.6" height="306"></rect>
                    <line x1="330.5" y1="240" x2="357.4" y2="240" id="XMLID_9_" stroke="#1F3969" stroke-width="4" stroke-linecap="round" stroke-linejoin="round"></line>
                    <path d="M408,164.9 L218.9,164.9 C214.5,164.9 210.9,161.3 210.9,156.9 L210.9,8.7 C210.9,4.3 214.5,0.7 218.9,0.7 L408,0.7 C412.4,0.7 416,4.3 416,8.7 L416,157 C416,161.4 412.4,164.9 408,164.9 Z" id="XMLID_15_" fill="#2D425E" fill-rule="nonzero"></path>
                    <path d="M416,20.1 L210.9,20.1 L210.9,8.6 C210.9,4.2 214.5,0.6 218.9,0.6 L408,0.6 C412.4,0.6 416,4.2 416,8.6 L416,20.1 Z" id="XMLID_17_" stroke="#1F3969" stroke-width="4" stroke-linecap="round" stroke-linejoin="round"></path>
                    <path d="M416,23.9 L210.9,23.9 L210.9,8.6 C210.9,4.2 214.5,0.6 218.9,0.6 L408,0.6 C412.4,0.6 416,4.2 416,8.6 L416,23.9 Z" id="XMLID_23_" fill="#D0DDF0" fill-rule="nonzero"></path>
                    <path d="M416,23.9 L210.9,23.9 L210.9,8.6 C210.9,4.2 214.5,0.6 218.9,0.6 L408,0.6 C412.4,0.6 416,4.2 416,8.6 L416,23.9 Z" id="XMLID_18_" stroke="#1F3969" stroke-width="4" stroke-linecap="round" stroke-linejoin="round"></path>
                    <path d="M416,23.9 L210.9,23.9 L210.9,8.6 C210.9,4.2 214.5,0.6 218.9,0.6 L408,0.6 C412.4,0.6 416,4.2 416,8.6 L416,23.9 Z" id="XMLID_20_" stroke="#1F3969" stroke-width="4" stroke-linecap="round" stroke-linejoin="round"></path>
                    <path d="M408,164.9 L218.9,164.9 C214.5,164.9 210.9,161.3 210.9,156.9 L210.9,8.7 C210.9,4.3 214.5,0.7 218.9,0.7 L408,0.7 C412.4,0.7 416,4.3 416,8.7 L416,157 C416,161.4 412.4,164.9 408,164.9 Z" id="XMLID_12_" stroke="#1F3969" stroke-width="4" stroke-linecap="round" stroke-linejoin="round"></path>
                    <g id="XMLID_72_" transform="translate(382.000000, 54.000000)">
                        <path d="M124.7,146.3 L8.7,146.3 C4.3,146.3 0.7,142.7 0.7,138.3 L0.7,15.4 C0.7,11 4.3,7.4 8.7,7.4 L124.7,7.4 C129.1,7.4 132.7,11 132.7,15.4 L132.7,138.3 C132.7,142.8 129.1,146.3 124.7,146.3 Z" id="XMLID_7_" stroke="#1F3969" stroke-width="4" fill="#1F3969" fill-rule="nonzero" opacity="0.28" stroke-linecap="round" stroke-linejoin="round"></path>
                        <path d="M132.7,139.3 L16.7,139.3 C12.3,139.3 8.7,135.7 8.7,131.3 L8.7,8.4 C8.7,4 12.3,0.4 16.7,0.4 L132.7,0.4 C137.1,0.4 140.7,4 140.7,8.4 L140.7,131.3 C140.7,135.8 137.1,139.3 132.7,139.3 Z" id="XMLID_16_" fill="#2AA1FF" fill-rule="nonzero"></path>
                        <path d="M132.7,139.3 L16.7,139.3 C12.3,139.3 8.7,135.7 8.7,131.3 L8.7,8.4 C8.7,4 12.3,0.4 16.7,0.4 L132.7,0.4 C137.1,0.4 140.7,4 140.7,8.4 L140.7,131.3 C140.7,135.8 137.1,139.3 132.7,139.3 Z" id="XMLID_14_" stroke="#1F3969" stroke-width="4" stroke-linecap="round" stroke-linejoin="round"></path>
                        <path d="M115.4,38.5 L33.8,38.5 C30.9,38.5 28.6,36.2 28.6,33.3 L28.6,25.5 C28.6,22.6 30.9,20.3 33.8,20.3 L115.4,20.3 C118.3,20.3 120.6,22.6 120.6,25.5 L120.6,33.3 C120.6,36.2 118.3,38.5 115.4,38.5 Z" id="XMLID_75_" stroke="#FFFFFF" stroke-width="2" opacity="0.34" stroke-linecap="round" stroke-linejoin="round"></path>
                        <g id="XMLID_143_" opacity="0.34" transform="translate(28.000000, 49.000000)" stroke="#FFFFFF" stroke-linecap="round" stroke-linejoin="round" stroke-width="2">
                            <path d="M51.6,18.8 L6,18.8 C3.1,18.8 0.8,16.5 0.8,13.6 L0.8,5.8 C0.8,2.9 3.1,0.6 6,0.6 L51.6,0.6 C54.5,0.6 56.8,2.9 56.8,5.8 L56.8,13.6 C56.7,16.5 54.4,18.8 51.6,18.8 Z" id="XMLID_78_"></path>
                            <path d="M87.5,18.8 L69.8,18.8 C66.9,18.8 64.6,16.5 64.6,13.6 L64.6,5.8 C64.6,2.9 66.9,0.6 69.8,0.6 L87.5,0.6 C90.4,0.6 92.7,2.9 92.7,5.8 L92.7,13.6 C92.7,16.5 90.4,18.8 87.5,18.8 Z" id="XMLID_79_"></path>
                        </g>
                        <g id="XMLID_76_" transform="translate(28.000000, 97.000000)" stroke="#FFFFFF" stroke-linecap="round" stroke-linejoin="round" stroke-width="2">
                            <line x1="0.7" y1="1.2" x2="92.6" y2="1.2" id="XMLID_135_"></line>
                            <line x1="0.7" y1="12" x2="92.6" y2="12" id="XMLID_136_"></line>
                            <line x1="0.7" y1="22.8" x2="56.7" y2="22.8" id="XMLID_138_"></line>
                        </g>
                    </g>
                    <circle id="XMLID_24_" fill="#1F3969" fill-rule="nonzero" cx="231" cy="12.3" r="4"></circle>
                    <circle id="XMLID_28_" fill="#1F3969" fill-rule="nonzero" cx="244.9" cy="12.3" r="4"></circle>
                    <circle id="XMLID_38_" fill="#1F3969" fill-rule="nonzero" cx="258.8" cy="12.3" r="4"></circle>
                    <g id="XMLID_61_" transform="translate(235.000000, 41.000000)" stroke-linecap="round" stroke-linejoin="round" stroke-width="4">
                        <line x1="93.7" y1="1.4" x2="106.7" y2="1.4" id="XMLID_54_" stroke="#FFFFFF"></line>
                        <line x1="27.8" y1="1.4" x2="84.1" y2="1.4" id="XMLID_66_" stroke="#7BFFA0"></line>
                        <line x1="0" y1="1.4" x2="19.8" y2="1.4" id="XMLID_29_" stroke="#9169FF"></line>
                    </g>
                    <g id="XMLID_42_" transform="translate(235.000000, 140.000000)" stroke-linecap="round" stroke-linejoin="round" stroke-width="4">
                        <line x1="25.8" y1="0.9" x2="68.8" y2="0.9" id="XMLID_62_" stroke="#9169FF"></line>
                        <line x1="0" y1="0.9" x2="13.9" y2="0.9" id="XMLID_30_" stroke="#7BFFA0"></line>
                    </g>
                    <g id="XMLID_27_" transform="translate(244.000000, 54.000000)" stroke-linecap="round" stroke-linejoin="round" stroke-width="4">
                        <line x1="75.1" y1="0.7" x2="83.2" y2="0.7" id="XMLID_60_" stroke="#FFFFFF"></line>
                        <line x1="38.3" y1="0.7" x2="65.5" y2="0.7" id="XMLID_45_" stroke="#9169FF"></line>
                        <line x1="0.9" y1="0.7" x2="28.6" y2="0.7" id="XMLID_47_" stroke="#FFC47D"></line>
                    </g>
                    <g id="XMLID_49_" transform="translate(257.000000, 66.000000)" stroke-linecap="round" stroke-linejoin="round" stroke-width="4">
                        <line x1="30.8" y1="1" x2="54.7" y2="1" id="XMLID_59_" stroke="#FFFFFF"></line>
                        <line x1="0.8" y1="1" x2="23.3" y2="1" id="XMLID_50_" stroke="#FF5757"></line>
                    </g>
                    <g id="XMLID_65_" transform="translate(244.000000, 78.000000)" stroke-linecap="round" stroke-linejoin="round" stroke-width="4">
                        <line x1="47" y1="1.3" x2="51.9" y2="1.3" id="XMLID_58_" stroke="#FFFFFF"></line>
                        <line x1="27.2" y1="1.3" x2="38.3" y2="1.3" id="XMLID_70_" stroke="#9169FF"></line>
                        <line x1="0.9" y1="1.3" x2="18.8" y2="1.3" id="XMLID_67_" stroke="#7BFFA0"></line>
                    </g>
                    <g id="XMLID_73_" transform="translate(244.000000, 91.000000)" stroke-linecap="round" stroke-linejoin="round" stroke-width="4">
                        <line x1="39.3" y1="0.7" x2="71.2" y2="0.7" id="XMLID_77_" stroke="#FFC47D"></line>
                        <line x1="0.9" y1="0.7" x2="29.5" y2="0.7" id="XMLID_74_" stroke="#FF5757"></line>
                    </g>
                    <g id="XMLID_80_" transform="translate(257.000000, 103.000000)" stroke-linecap="round" stroke-linejoin="round" stroke-width="4">
                        <line x1="63.2" y1="1" x2="80.5" y2="1" id="XMLID_64_" stroke="#9169FF"></line>
                        <line x1="26.3" y1="1" x2="54" y2="1" id="XMLID_84_" stroke="#FF5757"></line>
                        <line x1="0.8" y1="1" x2="16.5" y2="1" id="XMLID_81_" stroke="#7BFFA0"></line>
                    </g>
                    <g id="XMLID_87_" transform="translate(257.000000, 115.000000)" stroke-linecap="round" stroke-linejoin="round" stroke-width="4">
                        <line x1="38.9" y1="1.3" x2="54" y2="1.3" id="XMLID_95_" stroke="#FFFFFF"></line>
                        <line x1="0.8" y1="1.3" x2="28.5" y2="1.3" id="XMLID_90_" stroke="#9169FF"></line>
                    </g>
                    <g id="XMLID_98_" transform="translate(244.000000, 128.000000)" stroke-linecap="round" stroke-linejoin="round" stroke-width="4">
                        <line x1="91.2" y1="0.6" x2="108.5" y2="0.6" id="XMLID_71_" stroke="#FFFFFF"></line>
                        <line x1="38.3" y1="0.6" x2="81.8" y2="0.6" id="XMLID_102_" stroke="#FFC47D"></line>
                        <line x1="0.9" y1="0.6" x2="28.6" y2="0.6" id="XMLID_99_" stroke="#FFFFFF"></line>
                    </g>
                    <line x1="32.9" y1="287.5" x2="248.4" y2="287.5" id="XMLID_145_" stroke="#1F3969" stroke-width="4" stroke-linecap="round" stroke-linejoin="round"></line>
                    <line x1="32.9" y1="295.5" x2="248.4" y2="295.5" id="XMLID_151_" stroke="#1F3969" stroke-width="4" stroke-linecap="round" stroke-linejoin="round"></line>
                    <path d="M250.4,280.6 L30.4,280.6 C31.7,283.8 32.4,287.8 32.4,292 C32.4,296.2 31.7,300.1 30.4,303.4 L250.3,303.4 C249,300.2 248.3,296.2 248.3,292 C248.4,287.7 249.1,283.8 250.4,280.6 Z" id="XMLID_158_" stroke="#1F3969" stroke-width="4" stroke-linecap="round" stroke-linejoin="round"></path>
                </g>
                <g id="XMLID_222_" transform="translate(555.000000, 199.000000)">
                    <g id="XMLID_174_" transform="translate(3.000000, 0.000000)">
                        <rect id="XMLID_177_" fill="#FFA364" fill-rule="nonzero" transform="translate(9.715260, 36.695620) rotate(-6.695779) translate(-9.715260, -36.695620) " x="4.81515759" y="0.394861338" width="9.80020482" height="72.6015173"></rect>
                        <rect id="XMLID_31_" fill="#2AA1FF" fill-rule="nonzero" transform="translate(5.927220, 4.393840) rotate(-6.695779) translate(-5.927220, -4.393840) " x="1.02711759" y="0.693762671" width="9.80020482" height="7.40015466"></rect>
                        <rect id="XMLID_217_" stroke="#1F3969" stroke-width="4.0000836" stroke-linecap="round" stroke-linejoin="round" transform="translate(5.927220, 4.393840) rotate(-6.695779) translate(-5.927220, -4.393840) " x="1.02711759" y="0.693762671" width="9.80020482" height="7.40015466"></rect>
                        <rect id="XMLID_22_" stroke="#1F3969" stroke-width="4.0000836" stroke-linecap="round" stroke-linejoin="round" transform="translate(9.715260, 36.695620) rotate(-6.695779) translate(-9.715260, -36.695620) " x="4.81515759" y="0.394861338" width="9.80020482" height="72.6015173"></rect>
                    </g>
                    <g id="XMLID_189_" transform="translate(22.000000, 13.000000)">
                        <rect id="XMLID_218_" fill="#FF5252" fill-rule="nonzero" transform="translate(9.243690, 37.396970) rotate(6.206048) translate(-9.243690, -37.396970) " x="4.34388497" y="1.09841441" width="9.79961005" height="72.5971112"></rect>
                        <rect id="XMLID_214_" stroke="#1F3969" stroke-width="3.99984084" stroke-linecap="round" stroke-linejoin="round" transform="translate(9.243690, 37.396970) rotate(6.206048) translate(-9.243690, -37.396970) " x="4.34388497" y="1.09841441" width="9.79961005" height="72.5971112"></rect>
                        <rect id="XMLID_220_" fill="#2D425E" fill-rule="nonzero" transform="translate(12.840090, 5.006390) rotate(6.206048) translate(-12.840090, -5.006390) " x="7.94028497" y="1.30653723" width="9.79961005" height="7.39970555"></rect>
                        <rect id="XMLID_211_" stroke="#1F3969" stroke-width="3.99984084" stroke-linecap="round" stroke-linejoin="round" transform="translate(12.840090, 5.006390) rotate(6.206048) translate(-12.840090, -5.006390) " x="7.94028497" y="1.30653723" width="9.79961005" height="7.39970555"></rect>
                    </g>
                    <polygon id="XMLID_26_" fill="#6567C3" fill-rule="nonzero" points="46.1 110.6 6.8 110.6 0.4 50.4 52.5 50.4"></polygon>
                    <polygon id="XMLID_233_" fill="#6567C3" fill-rule="nonzero" points="0.4 50.4 0.5 51.5 40.2 51.5 33.9 110.6 46.1 110.6 52.5 50.4"></polygon>
                    <polygon id="XMLID_21_" stroke="#1F3969" stroke-width="4" stroke-linecap="round" stroke-linejoin="round" points="46.1 110.6 6.8 110.6 0.4 50.4 52.5 50.4"></polygon>
                </g>
            </g>
        </g>
        <text id="H-T-M-L-C-S-S-J-S" font-family="Gilroy-ExtraBold, Gilroy" font-size="10" font-weight="600" fill="#FFFFFF" fill-opacity="0.6">
            <tspan x="227" y="602">H T M L    C S S    J S</tspan>
        </text>
    </g>
</svg>