<!-- Generated by IcoMoon.io -->
<svg version="1.1" xmlns="http://www.w3.org/2000/svg" width="28" height="32" viewBox="0 0 28 32">
<title>bootstrap-brands</title>
<path d="M18.269 19.496c0 2.651-2.482 2.589-2.745 2.589h-5.056v-5.106h5.056c2.66 0 2.745 1.994 2.745 2.516zM15.134 14.925c0.042 0 2.403 0.063 2.403-2.269 0-0.97-0.219-2.242-2.402-2.242h-4.666v4.511h4.666zM28 6.667v18.666c-0.008 2.574-2.093 4.659-4.666 4.667h-18.667c-2.574-0.008-4.659-2.093-4.667-4.666v-18.667c0.008-2.574 2.093-4.659 4.666-4.667h18.667c2.574 0.008 4.659 2.093 4.667 4.666v0.001zM21.128 19.866c0-1.348-0.416-3.643-3.066-4.209v-0.046c1.432-0.611 2.334-1.766 2.334-3.477 0-0.438 0.125-4.049-4.85-4.049h-7.938v16.333c8.014 0 8.742 0.105 10.225-0.357 0.888-0.276 3.294-1.124 3.294-4.195z"></path>
</svg>
