<!-- Generated by IcoMoon.io -->
<svg version="1.1" xmlns="http://www.w3.org/2000/svg" width="32" height="32" viewBox="0 0 32 32">
<title>dribbble-brands</title>
<path d="M16 0.5c-8.547 0-15.5 6.953-15.5 15.5s6.953 15.5 15.5 15.5 15.5-6.953 15.5-15.5-6.953-15.5-15.5-15.5zM26.248 7.648c1.844 2.253 2.961 5.122 2.99 8.247-0.436-0.092-4.814-0.98-9.219-0.426-0.36-0.878-0.699-1.65-1.164-2.601 4.895-1.999 7.114-4.843 7.393-5.22zM24.776 6.117c-0.238 0.339-2.231 3.018-6.939 4.782-2.169-3.986-4.574-7.261-4.94-7.75 4.198-1.012 8.623 0.079 11.879 2.968zM10.371 4.039c0.349 0.479 2.715 3.757 4.909 7.657-6.193 1.645-11.648 1.621-12.24 1.613 0.859-4.108 3.627-7.523 7.331-9.27zM2.761 16.020c0-0.135 0.003-0.27 0.007-0.405 0.579 0.012 6.995 0.095 13.607-1.884 0.379 0.742 0.741 1.495 1.073 2.247-4.787 1.348-9.137 5.22-11.283 8.894-2.115-2.347-3.404-5.452-3.404-8.852zM7.874 26.465c1.383-2.827 5.136-6.476 10.474-8.297 1.859 4.83 2.627 8.878 2.824 10.040-4.257 1.813-9.376 1.316-13.298-1.743zM23.397 26.995c-0.136-0.805-0.84-4.681-2.572-9.44 4.149-0.664 7.794 0.423 8.247 0.566-0.59 3.684-2.705 6.865-5.675 8.874z"></path>
</svg>
